G04 #@! TF.GenerationSoftware,KiCad,Pcbnew,8.0.2-8.0.2-0~ubuntu22.04.1*
G04 #@! TF.CreationDate,2024-05-06T17:13:46-07:00*
G04 #@! TF.ProjectId,pifire-main-module-nopwr,70696669-7265-42d6-9d61-696e2d6d6f64,rev?*
G04 #@! TF.SameCoordinates,Original*
G04 #@! TF.FileFunction,Legend,Bot*
G04 #@! TF.FilePolarity,Positive*
%FSLAX46Y46*%
G04 Gerber Fmt 4.6, Leading zero omitted, Abs format (unit mm)*
G04 Created by KiCad (PCBNEW 8.0.2-8.0.2-0~ubuntu22.04.1) date 2024-05-06 17:13:46*
%MOMM*%
%LPD*%
G01*
G04 APERTURE LIST*
G04 Aperture macros list*
%AMRoundRect*
0 Rectangle with rounded corners*
0 $1 Rounding radius*
0 $2 $3 $4 $5 $6 $7 $8 $9 X,Y pos of 4 corners*
0 Add a 4 corners polygon primitive as box body*
4,1,4,$2,$3,$4,$5,$6,$7,$8,$9,$2,$3,0*
0 Add four circle primitives for the rounded corners*
1,1,$1+$1,$2,$3*
1,1,$1+$1,$4,$5*
1,1,$1+$1,$6,$7*
1,1,$1+$1,$8,$9*
0 Add four rect primitives between the rounded corners*
20,1,$1+$1,$2,$3,$4,$5,0*
20,1,$1+$1,$4,$5,$6,$7,0*
20,1,$1+$1,$6,$7,$8,$9,0*
20,1,$1+$1,$8,$9,$2,$3,0*%
%AMFreePoly0*
4,1,6,1.000000,0.000000,0.500000,-0.750000,-0.500000,-0.750000,-0.500000,0.750000,0.500000,0.750000,1.000000,0.000000,1.000000,0.000000,$1*%
%AMFreePoly1*
4,1,6,0.500000,-0.750000,-0.650000,-0.750000,-0.150000,0.000000,-0.650000,0.750000,0.500000,0.750000,0.500000,-0.750000,0.500000,-0.750000,$1*%
G04 Aperture macros list end*
%ADD10C,0.000000*%
%ADD11C,0.052916*%
%ADD12C,0.200000*%
%ADD13C,0.150000*%
%ADD14C,0.120000*%
%ADD15RoundRect,0.250000X-0.725000X0.600000X-0.725000X-0.600000X0.725000X-0.600000X0.725000X0.600000X0*%
%ADD16O,1.950000X1.700000*%
%ADD17RoundRect,0.250000X-0.600000X-0.725000X0.600000X-0.725000X0.600000X0.725000X-0.600000X0.725000X0*%
%ADD18O,1.700000X1.950000*%
%ADD19R,3.000000X3.000000*%
%ADD20C,3.000000*%
%ADD21C,2.700000*%
%ADD22RoundRect,0.250000X0.750000X-0.600000X0.750000X0.600000X-0.750000X0.600000X-0.750000X-0.600000X0*%
%ADD23O,2.000000X1.700000*%
%ADD24C,1.600000*%
%ADD25O,1.600000X1.600000*%
%ADD26RoundRect,0.250000X0.725000X-0.600000X0.725000X0.600000X-0.725000X0.600000X-0.725000X-0.600000X0*%
%ADD27R,1.700000X1.700000*%
%ADD28O,1.700000X1.700000*%
%ADD29FreePoly0,180.000000*%
%ADD30FreePoly1,180.000000*%
%ADD31FreePoly0,90.000000*%
%ADD32FreePoly1,90.000000*%
%ADD33FreePoly0,0.000000*%
%ADD34FreePoly1,0.000000*%
G04 APERTURE END LIST*
D10*
G36*
X131971419Y-55343240D02*
G01*
X131957241Y-55439321D01*
X131952396Y-55537875D01*
X131956394Y-55638625D01*
X131968741Y-55741295D01*
X131988946Y-55845607D01*
X132016516Y-55951286D01*
X132050959Y-56058053D01*
X132091783Y-56165633D01*
X132138496Y-56273749D01*
X132190606Y-56382124D01*
X132247620Y-56490482D01*
X132374394Y-56706036D01*
X132514879Y-56918199D01*
X132665139Y-57124756D01*
X132821237Y-57323494D01*
X132979234Y-57512199D01*
X133135195Y-57688657D01*
X133285181Y-57850653D01*
X133425255Y-57995975D01*
X133659918Y-58227738D01*
X133755778Y-58323991D01*
X133846772Y-58424555D01*
X133932717Y-58529255D01*
X134013433Y-58637917D01*
X134088737Y-58750367D01*
X134158447Y-58866431D01*
X134222382Y-58985934D01*
X134280359Y-59108702D01*
X134332196Y-59234562D01*
X134377712Y-59363338D01*
X134416724Y-59494858D01*
X134449052Y-59628947D01*
X134474512Y-59765431D01*
X134492923Y-59904135D01*
X134504103Y-60044886D01*
X134507870Y-60187509D01*
X134504103Y-60330132D01*
X134492923Y-60470883D01*
X134474512Y-60609588D01*
X134449052Y-60746071D01*
X134416725Y-60880160D01*
X134377713Y-61011681D01*
X134332197Y-61140458D01*
X134280360Y-61266318D01*
X134222383Y-61389086D01*
X134158448Y-61508590D01*
X134088738Y-61624653D01*
X134013434Y-61737104D01*
X133932718Y-61845766D01*
X133846772Y-61950466D01*
X133755778Y-62051030D01*
X133659918Y-62147284D01*
X133559373Y-62239053D01*
X133454326Y-62326164D01*
X133344959Y-62408442D01*
X133231453Y-62485713D01*
X133113990Y-62557804D01*
X132992752Y-62624539D01*
X132867922Y-62685745D01*
X132739680Y-62741247D01*
X132608210Y-62790872D01*
X132473692Y-62834446D01*
X132336309Y-62871793D01*
X132196243Y-62902741D01*
X132053675Y-62927114D01*
X131908788Y-62944740D01*
X131761763Y-62955442D01*
X131612782Y-62959049D01*
X131463801Y-62955442D01*
X131316777Y-62944740D01*
X131171890Y-62927114D01*
X131029322Y-62902741D01*
X130889256Y-62871793D01*
X130751874Y-62834446D01*
X130617356Y-62790872D01*
X130485886Y-62741247D01*
X130357645Y-62685745D01*
X130232815Y-62624539D01*
X130111577Y-62557804D01*
X129994115Y-62485713D01*
X129880609Y-62408442D01*
X129771242Y-62326164D01*
X129666195Y-62239053D01*
X129565650Y-62147284D01*
X129469790Y-62051030D01*
X129378796Y-61950466D01*
X129292851Y-61845766D01*
X129212135Y-61737104D01*
X129136831Y-61624653D01*
X129067121Y-61508590D01*
X129003187Y-61389086D01*
X128945210Y-61266318D01*
X128893373Y-61140458D01*
X128847857Y-61011681D01*
X128808845Y-60880160D01*
X128776518Y-60746071D01*
X128751058Y-60609588D01*
X128732647Y-60470883D01*
X128721467Y-60330132D01*
X128717700Y-60187509D01*
X128718923Y-60114876D01*
X128722565Y-60040527D01*
X128728585Y-59964539D01*
X128736944Y-59886987D01*
X128747601Y-59807948D01*
X128760517Y-59727498D01*
X128775649Y-59645713D01*
X128792960Y-59562669D01*
X128833952Y-59393108D01*
X128883170Y-59219423D01*
X128940293Y-59042224D01*
X129004998Y-58862119D01*
X129040309Y-58772132D01*
X129077786Y-58683410D01*
X129117335Y-58595776D01*
X129158858Y-58509055D01*
X129202260Y-58423071D01*
X129247444Y-58337649D01*
X129342772Y-58167785D01*
X129444073Y-57998057D01*
X129550576Y-57827059D01*
X129776106Y-57475632D01*
X129828893Y-57601878D01*
X129886143Y-57721159D01*
X129947368Y-57833600D01*
X130012081Y-57939320D01*
X130079796Y-58038444D01*
X130150024Y-58131094D01*
X130222279Y-58217391D01*
X130296074Y-58297459D01*
X130370922Y-58371419D01*
X130446335Y-58439394D01*
X130521826Y-58501507D01*
X130596908Y-58557879D01*
X130671095Y-58608634D01*
X130743898Y-58653893D01*
X130814831Y-58693779D01*
X130883407Y-58728414D01*
X130949138Y-58757921D01*
X131011537Y-58782422D01*
X131070118Y-58802039D01*
X131124393Y-58816895D01*
X131173874Y-58827113D01*
X131218076Y-58832814D01*
X131256510Y-58834120D01*
X131288690Y-58831156D01*
X131314128Y-58824041D01*
X131332338Y-58812900D01*
X131342831Y-58797855D01*
X131345122Y-58779027D01*
X131338722Y-58756539D01*
X131323146Y-58730514D01*
X131297904Y-58701074D01*
X131262512Y-58668341D01*
X131219608Y-58627354D01*
X131179020Y-58579208D01*
X131140717Y-58524386D01*
X131104669Y-58463372D01*
X131070844Y-58396649D01*
X131039212Y-58324699D01*
X130982402Y-58167053D01*
X130933992Y-57994299D01*
X130893735Y-57810300D01*
X130861385Y-57618922D01*
X130836694Y-57424029D01*
X130819416Y-57229485D01*
X130809303Y-57039156D01*
X130806109Y-56856905D01*
X130809586Y-56686597D01*
X130819487Y-56532097D01*
X130835567Y-56397269D01*
X130857577Y-56285978D01*
X130885270Y-56202088D01*
X131026320Y-56060511D01*
X131163774Y-55918521D01*
X131299106Y-55779546D01*
X131366435Y-55712260D01*
X131433786Y-55647014D01*
X131501342Y-55584237D01*
X131569286Y-55524356D01*
X131637804Y-55467801D01*
X131707078Y-55415000D01*
X131777293Y-55366382D01*
X131848633Y-55322374D01*
X131921282Y-55283407D01*
X131958155Y-55265948D01*
X131995423Y-55249909D01*
X131971419Y-55343240D01*
G37*
G36*
X131250000Y-51000000D02*
G01*
X131301510Y-51027145D01*
X131402998Y-51087727D01*
X131502658Y-51156145D01*
X131600746Y-51231733D01*
X131697521Y-51313823D01*
X131793238Y-51401750D01*
X131888154Y-51494847D01*
X131982528Y-51592447D01*
X132076615Y-51693886D01*
X132170673Y-51798495D01*
X132359728Y-52014560D01*
X132551749Y-52235313D01*
X132748793Y-52455423D01*
X132787480Y-52585848D01*
X132818228Y-52758873D01*
X132840690Y-52968491D01*
X132854522Y-53208693D01*
X132859380Y-53473472D01*
X132854917Y-53756819D01*
X132840789Y-54052725D01*
X132816652Y-54355184D01*
X132782159Y-54658185D01*
X132736967Y-54955722D01*
X132680730Y-55241786D01*
X132613102Y-55510369D01*
X132533740Y-55755463D01*
X132442298Y-55971059D01*
X132391940Y-56065917D01*
X132338432Y-56151149D01*
X132281731Y-56226002D01*
X132221795Y-56289725D01*
X132172353Y-56340615D01*
X132137091Y-56386386D01*
X132115331Y-56426847D01*
X132106391Y-56461809D01*
X132109591Y-56491081D01*
X132124250Y-56514472D01*
X132149688Y-56531793D01*
X132185225Y-56542854D01*
X132230179Y-56547463D01*
X132283871Y-56545431D01*
X132345619Y-56536568D01*
X132414743Y-56520683D01*
X132490564Y-56497586D01*
X132572399Y-56467086D01*
X132659570Y-56428994D01*
X132751394Y-56383119D01*
X132847192Y-56329272D01*
X132946284Y-56267260D01*
X133047988Y-56196896D01*
X133151624Y-56117987D01*
X133256512Y-56030344D01*
X133361971Y-55933777D01*
X133467321Y-55828096D01*
X133571881Y-55713109D01*
X133674971Y-55588628D01*
X133775909Y-55454460D01*
X133874016Y-55310418D01*
X133968612Y-55156309D01*
X134059014Y-54991944D01*
X134144544Y-54817133D01*
X134224521Y-54631685D01*
X134298263Y-54435410D01*
X134613320Y-54981777D01*
X134762101Y-55247628D01*
X134903615Y-55511505D01*
X135036786Y-55775594D01*
X135160537Y-56042080D01*
X135218544Y-56176906D01*
X135273793Y-56313151D01*
X135326148Y-56451088D01*
X135375476Y-56590991D01*
X135465867Y-56871003D01*
X135545666Y-57146495D01*
X135614423Y-57416524D01*
X135671687Y-57680141D01*
X135717008Y-57936402D01*
X135749938Y-58184360D01*
X135761615Y-58304930D01*
X135770026Y-58423070D01*
X135775113Y-58538660D01*
X135776821Y-58651584D01*
X135776821Y-58651590D01*
X135771559Y-58873327D01*
X135755941Y-59092153D01*
X135730222Y-59307797D01*
X135694655Y-59519989D01*
X135649495Y-59728458D01*
X135594996Y-59932933D01*
X135531412Y-60133144D01*
X135458997Y-60328819D01*
X135378005Y-60519688D01*
X135288691Y-60705480D01*
X135191309Y-60885925D01*
X135086111Y-61060752D01*
X134973354Y-61229690D01*
X134853290Y-61392468D01*
X134726175Y-61548815D01*
X134592261Y-61698461D01*
X134451804Y-61841136D01*
X134305056Y-61976567D01*
X134152274Y-62104486D01*
X133993709Y-62224620D01*
X133829618Y-62336699D01*
X133660253Y-62440452D01*
X133485869Y-62535610D01*
X133306719Y-62621900D01*
X133123059Y-62699052D01*
X132935142Y-62766796D01*
X132743223Y-62824860D01*
X132547554Y-62872974D01*
X132348392Y-62910868D01*
X132145989Y-62938270D01*
X131940599Y-62954910D01*
X131732478Y-62960517D01*
X131524356Y-62954910D01*
X131318967Y-62938270D01*
X131116564Y-62910868D01*
X130917401Y-62872974D01*
X130721733Y-62824860D01*
X130529813Y-62766796D01*
X130341896Y-62699052D01*
X130158236Y-62621900D01*
X129979087Y-62535610D01*
X129804702Y-62440452D01*
X129635337Y-62336699D01*
X129471245Y-62224620D01*
X129312681Y-62104485D01*
X129159898Y-61976567D01*
X129013151Y-61841135D01*
X128872693Y-61698461D01*
X128738779Y-61548815D01*
X128611664Y-61392467D01*
X128491600Y-61229689D01*
X128378842Y-61060751D01*
X128273645Y-60885925D01*
X128176262Y-60705479D01*
X128086948Y-60519687D01*
X128005956Y-60328818D01*
X127933541Y-60133142D01*
X127869957Y-59932932D01*
X127815458Y-59728456D01*
X127770298Y-59519987D01*
X127734731Y-59307795D01*
X127709012Y-59092150D01*
X127693394Y-58873324D01*
X127688131Y-58651587D01*
X127693394Y-58429850D01*
X127709012Y-58211024D01*
X127734731Y-57995380D01*
X127770298Y-57783188D01*
X127815458Y-57574719D01*
X127869957Y-57370243D01*
X127933541Y-57170033D01*
X128005956Y-56974357D01*
X128086948Y-56783488D01*
X128176262Y-56597696D01*
X128273645Y-56417251D01*
X128378842Y-56242424D01*
X128491600Y-56073486D01*
X128611663Y-55910708D01*
X128738779Y-55754361D01*
X128872692Y-55604715D01*
X129200510Y-55244392D01*
X129605715Y-54766602D01*
X129823587Y-54492262D01*
X130044304Y-54198882D01*
X130262368Y-53889902D01*
X130472276Y-53568766D01*
X130668530Y-53238915D01*
X130845628Y-52903791D01*
X130925275Y-52735327D01*
X130998070Y-52566836D01*
X131063327Y-52398747D01*
X131120357Y-52231492D01*
X131168473Y-52065500D01*
X131206987Y-51901201D01*
X131235212Y-51739026D01*
X131252461Y-51579404D01*
X131258045Y-51422767D01*
X131251277Y-51269545D01*
X131231470Y-51120167D01*
X131197937Y-50975064D01*
X131250000Y-51000000D01*
G37*
D11*
X131961935Y-60552423D02*
X132196295Y-60569539D01*
X132422497Y-60597372D01*
X132639356Y-60635353D01*
X132845683Y-60682916D01*
X133040294Y-60739493D01*
X133222001Y-60804515D01*
X133389618Y-60877415D01*
X133541959Y-60957625D01*
X133677838Y-61044578D01*
X133796067Y-61137706D01*
X133895460Y-61236441D01*
X133937722Y-61287734D01*
X133974831Y-61340215D01*
X134006638Y-61393814D01*
X134032994Y-61448461D01*
X134053751Y-61504083D01*
X134068761Y-61560610D01*
X134077876Y-61617971D01*
X134080947Y-61676096D01*
X134077876Y-61734220D01*
X134068761Y-61791581D01*
X134053751Y-61848109D01*
X134032994Y-61903731D01*
X134006638Y-61958377D01*
X133974831Y-62011976D01*
X133937722Y-62064458D01*
X133895460Y-62115751D01*
X133848192Y-62165783D01*
X133796067Y-62214485D01*
X133739232Y-62261786D01*
X133677838Y-62307613D01*
X133612030Y-62351897D01*
X133541959Y-62394566D01*
X133467773Y-62435550D01*
X133389618Y-62474777D01*
X133307645Y-62512176D01*
X133222001Y-62547677D01*
X133132835Y-62581208D01*
X133040294Y-62612699D01*
X132944527Y-62642078D01*
X132845683Y-62669275D01*
X132743910Y-62694219D01*
X132639356Y-62716838D01*
X132532169Y-62737062D01*
X132422497Y-62754820D01*
X132310490Y-62770040D01*
X132196295Y-62782653D01*
X132080060Y-62792586D01*
X131961935Y-62799769D01*
X131842066Y-62804130D01*
X131720604Y-62805600D01*
X131479272Y-62799769D01*
X131244912Y-62782653D01*
X131018710Y-62754820D01*
X130801851Y-62716838D01*
X130595524Y-62669275D01*
X130400913Y-62612699D01*
X130219206Y-62547677D01*
X130051589Y-62474777D01*
X129899248Y-62394566D01*
X129763369Y-62307613D01*
X129645140Y-62214485D01*
X129545747Y-62115751D01*
X129503485Y-62064458D01*
X129466376Y-62011976D01*
X129434569Y-61958377D01*
X129408213Y-61903731D01*
X129387456Y-61848109D01*
X129372446Y-61791581D01*
X129363331Y-61734220D01*
X129360260Y-61676096D01*
X129363331Y-61617971D01*
X129372446Y-61560610D01*
X129387456Y-61504083D01*
X129408213Y-61448461D01*
X129434569Y-61393814D01*
X129466376Y-61340215D01*
X129503485Y-61287734D01*
X129545747Y-61236441D01*
X129593015Y-61186408D01*
X129645140Y-61137706D01*
X129701975Y-61090406D01*
X129763369Y-61044578D01*
X129829177Y-61000295D01*
X129899248Y-60957625D01*
X129973434Y-60916642D01*
X130051589Y-60877415D01*
X130133562Y-60840016D01*
X130219206Y-60804515D01*
X130308372Y-60770983D01*
X130400913Y-60739493D01*
X130496680Y-60710113D01*
X130595524Y-60682916D01*
X130697297Y-60657972D01*
X130801851Y-60635353D01*
X130909038Y-60615129D01*
X131018710Y-60597372D01*
X131130717Y-60582151D01*
X131244912Y-60569539D01*
X131361147Y-60559606D01*
X131479272Y-60552423D01*
X131599141Y-60548061D01*
X131720604Y-60546591D01*
X131961935Y-60552423D01*
G36*
X131961935Y-60552423D02*
G01*
X132196295Y-60569539D01*
X132422497Y-60597372D01*
X132639356Y-60635353D01*
X132845683Y-60682916D01*
X133040294Y-60739493D01*
X133222001Y-60804515D01*
X133389618Y-60877415D01*
X133541959Y-60957625D01*
X133677838Y-61044578D01*
X133796067Y-61137706D01*
X133895460Y-61236441D01*
X133937722Y-61287734D01*
X133974831Y-61340215D01*
X134006638Y-61393814D01*
X134032994Y-61448461D01*
X134053751Y-61504083D01*
X134068761Y-61560610D01*
X134077876Y-61617971D01*
X134080947Y-61676096D01*
X134077876Y-61734220D01*
X134068761Y-61791581D01*
X134053751Y-61848109D01*
X134032994Y-61903731D01*
X134006638Y-61958377D01*
X133974831Y-62011976D01*
X133937722Y-62064458D01*
X133895460Y-62115751D01*
X133848192Y-62165783D01*
X133796067Y-62214485D01*
X133739232Y-62261786D01*
X133677838Y-62307613D01*
X133612030Y-62351897D01*
X133541959Y-62394566D01*
X133467773Y-62435550D01*
X133389618Y-62474777D01*
X133307645Y-62512176D01*
X133222001Y-62547677D01*
X133132835Y-62581208D01*
X133040294Y-62612699D01*
X132944527Y-62642078D01*
X132845683Y-62669275D01*
X132743910Y-62694219D01*
X132639356Y-62716838D01*
X132532169Y-62737062D01*
X132422497Y-62754820D01*
X132310490Y-62770040D01*
X132196295Y-62782653D01*
X132080060Y-62792586D01*
X131961935Y-62799769D01*
X131842066Y-62804130D01*
X131720604Y-62805600D01*
X131479272Y-62799769D01*
X131244912Y-62782653D01*
X131018710Y-62754820D01*
X130801851Y-62716838D01*
X130595524Y-62669275D01*
X130400913Y-62612699D01*
X130219206Y-62547677D01*
X130051589Y-62474777D01*
X129899248Y-62394566D01*
X129763369Y-62307613D01*
X129645140Y-62214485D01*
X129545747Y-62115751D01*
X129503485Y-62064458D01*
X129466376Y-62011976D01*
X129434569Y-61958377D01*
X129408213Y-61903731D01*
X129387456Y-61848109D01*
X129372446Y-61791581D01*
X129363331Y-61734220D01*
X129360260Y-61676096D01*
X129363331Y-61617971D01*
X129372446Y-61560610D01*
X129387456Y-61504083D01*
X129408213Y-61448461D01*
X129434569Y-61393814D01*
X129466376Y-61340215D01*
X129503485Y-61287734D01*
X129545747Y-61236441D01*
X129593015Y-61186408D01*
X129645140Y-61137706D01*
X129701975Y-61090406D01*
X129763369Y-61044578D01*
X129829177Y-61000295D01*
X129899248Y-60957625D01*
X129973434Y-60916642D01*
X130051589Y-60877415D01*
X130133562Y-60840016D01*
X130219206Y-60804515D01*
X130308372Y-60770983D01*
X130400913Y-60739493D01*
X130496680Y-60710113D01*
X130595524Y-60682916D01*
X130697297Y-60657972D01*
X130801851Y-60635353D01*
X130909038Y-60615129D01*
X131018710Y-60597372D01*
X131130717Y-60582151D01*
X131244912Y-60569539D01*
X131361147Y-60559606D01*
X131479272Y-60552423D01*
X131599141Y-60548061D01*
X131720604Y-60546591D01*
X131961935Y-60552423D01*
G37*
D12*
X130758898Y-70129790D02*
X130835088Y-70091695D01*
X130835088Y-70091695D02*
X130949374Y-70091695D01*
X130949374Y-70091695D02*
X131063660Y-70129790D01*
X131063660Y-70129790D02*
X131139850Y-70205980D01*
X131139850Y-70205980D02*
X131177945Y-70282171D01*
X131177945Y-70282171D02*
X131216041Y-70434552D01*
X131216041Y-70434552D02*
X131216041Y-70548838D01*
X131216041Y-70548838D02*
X131177945Y-70701219D01*
X131177945Y-70701219D02*
X131139850Y-70777409D01*
X131139850Y-70777409D02*
X131063660Y-70853600D01*
X131063660Y-70853600D02*
X130949374Y-70891695D01*
X130949374Y-70891695D02*
X130873183Y-70891695D01*
X130873183Y-70891695D02*
X130758898Y-70853600D01*
X130758898Y-70853600D02*
X130720802Y-70815504D01*
X130720802Y-70815504D02*
X130720802Y-70548838D01*
X130720802Y-70548838D02*
X130873183Y-70548838D01*
X130035088Y-70091695D02*
X130187469Y-70091695D01*
X130187469Y-70091695D02*
X130263660Y-70129790D01*
X130263660Y-70129790D02*
X130301755Y-70167885D01*
X130301755Y-70167885D02*
X130377945Y-70282171D01*
X130377945Y-70282171D02*
X130416041Y-70434552D01*
X130416041Y-70434552D02*
X130416041Y-70739314D01*
X130416041Y-70739314D02*
X130377945Y-70815504D01*
X130377945Y-70815504D02*
X130339850Y-70853600D01*
X130339850Y-70853600D02*
X130263660Y-70891695D01*
X130263660Y-70891695D02*
X130111279Y-70891695D01*
X130111279Y-70891695D02*
X130035088Y-70853600D01*
X130035088Y-70853600D02*
X129996993Y-70815504D01*
X129996993Y-70815504D02*
X129958898Y-70739314D01*
X129958898Y-70739314D02*
X129958898Y-70548838D01*
X129958898Y-70548838D02*
X129996993Y-70472647D01*
X129996993Y-70472647D02*
X130035088Y-70434552D01*
X130035088Y-70434552D02*
X130111279Y-70396457D01*
X130111279Y-70396457D02*
X130263660Y-70396457D01*
X130263660Y-70396457D02*
X130339850Y-70434552D01*
X130339850Y-70434552D02*
X130377945Y-70472647D01*
X130377945Y-70472647D02*
X130416041Y-70548838D01*
X141546993Y-76091695D02*
X141927945Y-76091695D01*
X141927945Y-76091695D02*
X141966041Y-76472647D01*
X141966041Y-76472647D02*
X141927945Y-76434552D01*
X141927945Y-76434552D02*
X141851755Y-76396457D01*
X141851755Y-76396457D02*
X141661279Y-76396457D01*
X141661279Y-76396457D02*
X141585088Y-76434552D01*
X141585088Y-76434552D02*
X141546993Y-76472647D01*
X141546993Y-76472647D02*
X141508898Y-76548838D01*
X141508898Y-76548838D02*
X141508898Y-76739314D01*
X141508898Y-76739314D02*
X141546993Y-76815504D01*
X141546993Y-76815504D02*
X141585088Y-76853600D01*
X141585088Y-76853600D02*
X141661279Y-76891695D01*
X141661279Y-76891695D02*
X141851755Y-76891695D01*
X141851755Y-76891695D02*
X141927945Y-76853600D01*
X141927945Y-76853600D02*
X141966041Y-76815504D01*
X141280326Y-76091695D02*
X141013659Y-76891695D01*
X141013659Y-76891695D02*
X140746993Y-76091695D01*
X142220802Y-72065504D02*
X142258898Y-72103600D01*
X142258898Y-72103600D02*
X142373183Y-72141695D01*
X142373183Y-72141695D02*
X142449374Y-72141695D01*
X142449374Y-72141695D02*
X142563660Y-72103600D01*
X142563660Y-72103600D02*
X142639850Y-72027409D01*
X142639850Y-72027409D02*
X142677945Y-71951219D01*
X142677945Y-71951219D02*
X142716041Y-71798838D01*
X142716041Y-71798838D02*
X142716041Y-71684552D01*
X142716041Y-71684552D02*
X142677945Y-71532171D01*
X142677945Y-71532171D02*
X142639850Y-71455980D01*
X142639850Y-71455980D02*
X142563660Y-71379790D01*
X142563660Y-71379790D02*
X142449374Y-71341695D01*
X142449374Y-71341695D02*
X142373183Y-71341695D01*
X142373183Y-71341695D02*
X142258898Y-71379790D01*
X142258898Y-71379790D02*
X142220802Y-71417885D01*
X141877945Y-71722647D02*
X141611279Y-71722647D01*
X141496993Y-72141695D02*
X141877945Y-72141695D01*
X141877945Y-72141695D02*
X141877945Y-71341695D01*
X141877945Y-71341695D02*
X141496993Y-71341695D01*
X140735088Y-72141695D02*
X141192231Y-72141695D01*
X140963659Y-72141695D02*
X140963659Y-71341695D01*
X140963659Y-71341695D02*
X141039850Y-71455980D01*
X141039850Y-71455980D02*
X141116040Y-71532171D01*
X141116040Y-71532171D02*
X141192231Y-71570266D01*
X131254136Y-76341695D02*
X130758898Y-76341695D01*
X130758898Y-76341695D02*
X131025564Y-76646457D01*
X131025564Y-76646457D02*
X130911279Y-76646457D01*
X130911279Y-76646457D02*
X130835088Y-76684552D01*
X130835088Y-76684552D02*
X130796993Y-76722647D01*
X130796993Y-76722647D02*
X130758898Y-76798838D01*
X130758898Y-76798838D02*
X130758898Y-76989314D01*
X130758898Y-76989314D02*
X130796993Y-77065504D01*
X130796993Y-77065504D02*
X130835088Y-77103600D01*
X130835088Y-77103600D02*
X130911279Y-77141695D01*
X130911279Y-77141695D02*
X131139850Y-77141695D01*
X131139850Y-77141695D02*
X131216041Y-77103600D01*
X131216041Y-77103600D02*
X131254136Y-77065504D01*
X130530326Y-76341695D02*
X130263659Y-77141695D01*
X130263659Y-77141695D02*
X129996993Y-76341695D01*
X129806517Y-76341695D02*
X129311279Y-76341695D01*
X129311279Y-76341695D02*
X129577945Y-76646457D01*
X129577945Y-76646457D02*
X129463660Y-76646457D01*
X129463660Y-76646457D02*
X129387469Y-76684552D01*
X129387469Y-76684552D02*
X129349374Y-76722647D01*
X129349374Y-76722647D02*
X129311279Y-76798838D01*
X129311279Y-76798838D02*
X129311279Y-76989314D01*
X129311279Y-76989314D02*
X129349374Y-77065504D01*
X129349374Y-77065504D02*
X129387469Y-77103600D01*
X129387469Y-77103600D02*
X129463660Y-77141695D01*
X129463660Y-77141695D02*
X129692231Y-77141695D01*
X129692231Y-77141695D02*
X129768422Y-77103600D01*
X129768422Y-77103600D02*
X129806517Y-77065504D01*
X130720802Y-74315504D02*
X130758898Y-74353600D01*
X130758898Y-74353600D02*
X130873183Y-74391695D01*
X130873183Y-74391695D02*
X130949374Y-74391695D01*
X130949374Y-74391695D02*
X131063660Y-74353600D01*
X131063660Y-74353600D02*
X131139850Y-74277409D01*
X131139850Y-74277409D02*
X131177945Y-74201219D01*
X131177945Y-74201219D02*
X131216041Y-74048838D01*
X131216041Y-74048838D02*
X131216041Y-73934552D01*
X131216041Y-73934552D02*
X131177945Y-73782171D01*
X131177945Y-73782171D02*
X131139850Y-73705980D01*
X131139850Y-73705980D02*
X131063660Y-73629790D01*
X131063660Y-73629790D02*
X130949374Y-73591695D01*
X130949374Y-73591695D02*
X130873183Y-73591695D01*
X130873183Y-73591695D02*
X130758898Y-73629790D01*
X130758898Y-73629790D02*
X130720802Y-73667885D01*
X130377945Y-73972647D02*
X130111279Y-73972647D01*
X129996993Y-74391695D02*
X130377945Y-74391695D01*
X130377945Y-74391695D02*
X130377945Y-73591695D01*
X130377945Y-73591695D02*
X129996993Y-73591695D01*
X129501754Y-73591695D02*
X129425564Y-73591695D01*
X129425564Y-73591695D02*
X129349373Y-73629790D01*
X129349373Y-73629790D02*
X129311278Y-73667885D01*
X129311278Y-73667885D02*
X129273183Y-73744076D01*
X129273183Y-73744076D02*
X129235088Y-73896457D01*
X129235088Y-73896457D02*
X129235088Y-74086933D01*
X129235088Y-74086933D02*
X129273183Y-74239314D01*
X129273183Y-74239314D02*
X129311278Y-74315504D01*
X129311278Y-74315504D02*
X129349373Y-74353600D01*
X129349373Y-74353600D02*
X129425564Y-74391695D01*
X129425564Y-74391695D02*
X129501754Y-74391695D01*
X129501754Y-74391695D02*
X129577945Y-74353600D01*
X129577945Y-74353600D02*
X129616040Y-74315504D01*
X129616040Y-74315504D02*
X129654135Y-74239314D01*
X129654135Y-74239314D02*
X129692231Y-74086933D01*
X129692231Y-74086933D02*
X129692231Y-73896457D01*
X129692231Y-73896457D02*
X129654135Y-73744076D01*
X129654135Y-73744076D02*
X129616040Y-73667885D01*
X129616040Y-73667885D02*
X129577945Y-73629790D01*
X129577945Y-73629790D02*
X129501754Y-73591695D01*
D13*
X106583333Y-49704819D02*
X106583333Y-50419104D01*
X106583333Y-50419104D02*
X106630952Y-50561961D01*
X106630952Y-50561961D02*
X106726190Y-50657200D01*
X106726190Y-50657200D02*
X106869047Y-50704819D01*
X106869047Y-50704819D02*
X106964285Y-50704819D01*
X105583333Y-50704819D02*
X106154761Y-50704819D01*
X105869047Y-50704819D02*
X105869047Y-49704819D01*
X105869047Y-49704819D02*
X105964285Y-49847676D01*
X105964285Y-49847676D02*
X106059523Y-49942914D01*
X106059523Y-49942914D02*
X106154761Y-49990533D01*
X134333333Y-68312295D02*
X134333333Y-68883723D01*
X134333333Y-68883723D02*
X134380952Y-68998009D01*
X134380952Y-68998009D02*
X134476190Y-69074200D01*
X134476190Y-69074200D02*
X134619047Y-69112295D01*
X134619047Y-69112295D02*
X134714285Y-69112295D01*
X133857142Y-69112295D02*
X133857142Y-68312295D01*
X133857142Y-68312295D02*
X133476190Y-68312295D01*
X133476190Y-68312295D02*
X133380952Y-68350390D01*
X133380952Y-68350390D02*
X133333333Y-68388485D01*
X133333333Y-68388485D02*
X133285714Y-68464676D01*
X133285714Y-68464676D02*
X133285714Y-68578961D01*
X133285714Y-68578961D02*
X133333333Y-68655152D01*
X133333333Y-68655152D02*
X133380952Y-68693247D01*
X133380952Y-68693247D02*
X133476190Y-68731342D01*
X133476190Y-68731342D02*
X133857142Y-68731342D01*
X132714285Y-68655152D02*
X132809523Y-68617057D01*
X132809523Y-68617057D02*
X132857142Y-68578961D01*
X132857142Y-68578961D02*
X132904761Y-68502771D01*
X132904761Y-68502771D02*
X132904761Y-68464676D01*
X132904761Y-68464676D02*
X132857142Y-68388485D01*
X132857142Y-68388485D02*
X132809523Y-68350390D01*
X132809523Y-68350390D02*
X132714285Y-68312295D01*
X132714285Y-68312295D02*
X132523809Y-68312295D01*
X132523809Y-68312295D02*
X132428571Y-68350390D01*
X132428571Y-68350390D02*
X132380952Y-68388485D01*
X132380952Y-68388485D02*
X132333333Y-68464676D01*
X132333333Y-68464676D02*
X132333333Y-68502771D01*
X132333333Y-68502771D02*
X132380952Y-68578961D01*
X132380952Y-68578961D02*
X132428571Y-68617057D01*
X132428571Y-68617057D02*
X132523809Y-68655152D01*
X132523809Y-68655152D02*
X132714285Y-68655152D01*
X132714285Y-68655152D02*
X132809523Y-68693247D01*
X132809523Y-68693247D02*
X132857142Y-68731342D01*
X132857142Y-68731342D02*
X132904761Y-68807533D01*
X132904761Y-68807533D02*
X132904761Y-68959914D01*
X132904761Y-68959914D02*
X132857142Y-69036104D01*
X132857142Y-69036104D02*
X132809523Y-69074200D01*
X132809523Y-69074200D02*
X132714285Y-69112295D01*
X132714285Y-69112295D02*
X132523809Y-69112295D01*
X132523809Y-69112295D02*
X132428571Y-69074200D01*
X132428571Y-69074200D02*
X132380952Y-69036104D01*
X132380952Y-69036104D02*
X132333333Y-68959914D01*
X132333333Y-68959914D02*
X132333333Y-68807533D01*
X132333333Y-68807533D02*
X132380952Y-68731342D01*
X132380952Y-68731342D02*
X132428571Y-68693247D01*
X132428571Y-68693247D02*
X132523809Y-68655152D01*
X141608333Y-83262295D02*
X141608333Y-83833723D01*
X141608333Y-83833723D02*
X141655952Y-83948009D01*
X141655952Y-83948009D02*
X141751190Y-84024200D01*
X141751190Y-84024200D02*
X141894047Y-84062295D01*
X141894047Y-84062295D02*
X141989285Y-84062295D01*
X141132142Y-84062295D02*
X141132142Y-83262295D01*
X141132142Y-83262295D02*
X140751190Y-83262295D01*
X140751190Y-83262295D02*
X140655952Y-83300390D01*
X140655952Y-83300390D02*
X140608333Y-83338485D01*
X140608333Y-83338485D02*
X140560714Y-83414676D01*
X140560714Y-83414676D02*
X140560714Y-83528961D01*
X140560714Y-83528961D02*
X140608333Y-83605152D01*
X140608333Y-83605152D02*
X140655952Y-83643247D01*
X140655952Y-83643247D02*
X140751190Y-83681342D01*
X140751190Y-83681342D02*
X141132142Y-83681342D01*
X140227380Y-83262295D02*
X139608333Y-83262295D01*
X139608333Y-83262295D02*
X139941666Y-83567057D01*
X139941666Y-83567057D02*
X139798809Y-83567057D01*
X139798809Y-83567057D02*
X139703571Y-83605152D01*
X139703571Y-83605152D02*
X139655952Y-83643247D01*
X139655952Y-83643247D02*
X139608333Y-83719438D01*
X139608333Y-83719438D02*
X139608333Y-83909914D01*
X139608333Y-83909914D02*
X139655952Y-83986104D01*
X139655952Y-83986104D02*
X139703571Y-84024200D01*
X139703571Y-84024200D02*
X139798809Y-84062295D01*
X139798809Y-84062295D02*
X140084523Y-84062295D01*
X140084523Y-84062295D02*
X140179761Y-84024200D01*
X140179761Y-84024200D02*
X140227380Y-83986104D01*
X142297618Y-87862295D02*
X142297618Y-87062295D01*
X142297618Y-87062295D02*
X142059523Y-87062295D01*
X142059523Y-87062295D02*
X141916666Y-87100390D01*
X141916666Y-87100390D02*
X141821428Y-87176580D01*
X141821428Y-87176580D02*
X141773809Y-87252771D01*
X141773809Y-87252771D02*
X141726190Y-87405152D01*
X141726190Y-87405152D02*
X141726190Y-87519438D01*
X141726190Y-87519438D02*
X141773809Y-87671819D01*
X141773809Y-87671819D02*
X141821428Y-87748009D01*
X141821428Y-87748009D02*
X141916666Y-87824200D01*
X141916666Y-87824200D02*
X142059523Y-87862295D01*
X142059523Y-87862295D02*
X142297618Y-87862295D01*
X141535714Y-87938485D02*
X140773809Y-87938485D01*
X140059523Y-87062295D02*
X140535713Y-87062295D01*
X140535713Y-87062295D02*
X140583332Y-87443247D01*
X140583332Y-87443247D02*
X140535713Y-87405152D01*
X140535713Y-87405152D02*
X140440475Y-87367057D01*
X140440475Y-87367057D02*
X140202380Y-87367057D01*
X140202380Y-87367057D02*
X140107142Y-87405152D01*
X140107142Y-87405152D02*
X140059523Y-87443247D01*
X140059523Y-87443247D02*
X140011904Y-87519438D01*
X140011904Y-87519438D02*
X140011904Y-87709914D01*
X140011904Y-87709914D02*
X140059523Y-87786104D01*
X140059523Y-87786104D02*
X140107142Y-87824200D01*
X140107142Y-87824200D02*
X140202380Y-87862295D01*
X140202380Y-87862295D02*
X140440475Y-87862295D01*
X140440475Y-87862295D02*
X140535713Y-87824200D01*
X140535713Y-87824200D02*
X140583332Y-87786104D01*
X139726189Y-87062295D02*
X139392856Y-87862295D01*
X139392856Y-87862295D02*
X139059523Y-87062295D01*
X107454819Y-55690476D02*
X108169104Y-55690476D01*
X108169104Y-55690476D02*
X108311961Y-55642857D01*
X108311961Y-55642857D02*
X108407200Y-55547619D01*
X108407200Y-55547619D02*
X108454819Y-55404762D01*
X108454819Y-55404762D02*
X108454819Y-55309524D01*
X108454819Y-56166667D02*
X107454819Y-56166667D01*
X107454819Y-56166667D02*
X107454819Y-56547619D01*
X107454819Y-56547619D02*
X107502438Y-56642857D01*
X107502438Y-56642857D02*
X107550057Y-56690476D01*
X107550057Y-56690476D02*
X107645295Y-56738095D01*
X107645295Y-56738095D02*
X107788152Y-56738095D01*
X107788152Y-56738095D02*
X107883390Y-56690476D01*
X107883390Y-56690476D02*
X107931009Y-56642857D01*
X107931009Y-56642857D02*
X107978628Y-56547619D01*
X107978628Y-56547619D02*
X107978628Y-56166667D01*
X108454819Y-57690476D02*
X108454819Y-57119048D01*
X108454819Y-57404762D02*
X107454819Y-57404762D01*
X107454819Y-57404762D02*
X107597676Y-57309524D01*
X107597676Y-57309524D02*
X107692914Y-57214286D01*
X107692914Y-57214286D02*
X107740533Y-57119048D01*
X108454819Y-58642857D02*
X108454819Y-58071429D01*
X108454819Y-58357143D02*
X107454819Y-58357143D01*
X107454819Y-58357143D02*
X107597676Y-58261905D01*
X107597676Y-58261905D02*
X107692914Y-58166667D01*
X107692914Y-58166667D02*
X107740533Y-58071429D01*
X109954819Y-51619047D02*
X109954819Y-51142857D01*
X109954819Y-51142857D02*
X110431009Y-51095238D01*
X110431009Y-51095238D02*
X110383390Y-51142857D01*
X110383390Y-51142857D02*
X110335771Y-51238095D01*
X110335771Y-51238095D02*
X110335771Y-51476190D01*
X110335771Y-51476190D02*
X110383390Y-51571428D01*
X110383390Y-51571428D02*
X110431009Y-51619047D01*
X110431009Y-51619047D02*
X110526247Y-51666666D01*
X110526247Y-51666666D02*
X110764342Y-51666666D01*
X110764342Y-51666666D02*
X110859580Y-51619047D01*
X110859580Y-51619047D02*
X110907200Y-51571428D01*
X110907200Y-51571428D02*
X110954819Y-51476190D01*
X110954819Y-51476190D02*
X110954819Y-51238095D01*
X110954819Y-51238095D02*
X110907200Y-51142857D01*
X110907200Y-51142857D02*
X110859580Y-51095238D01*
X109954819Y-51952381D02*
X110954819Y-52285714D01*
X110954819Y-52285714D02*
X109954819Y-52619047D01*
X111050057Y-52714286D02*
X111050057Y-53476190D01*
X110431009Y-54047619D02*
X110478628Y-54190476D01*
X110478628Y-54190476D02*
X110526247Y-54238095D01*
X110526247Y-54238095D02*
X110621485Y-54285714D01*
X110621485Y-54285714D02*
X110764342Y-54285714D01*
X110764342Y-54285714D02*
X110859580Y-54238095D01*
X110859580Y-54238095D02*
X110907200Y-54190476D01*
X110907200Y-54190476D02*
X110954819Y-54095238D01*
X110954819Y-54095238D02*
X110954819Y-53714286D01*
X110954819Y-53714286D02*
X109954819Y-53714286D01*
X109954819Y-53714286D02*
X109954819Y-54047619D01*
X109954819Y-54047619D02*
X110002438Y-54142857D01*
X110002438Y-54142857D02*
X110050057Y-54190476D01*
X110050057Y-54190476D02*
X110145295Y-54238095D01*
X110145295Y-54238095D02*
X110240533Y-54238095D01*
X110240533Y-54238095D02*
X110335771Y-54190476D01*
X110335771Y-54190476D02*
X110383390Y-54142857D01*
X110383390Y-54142857D02*
X110431009Y-54047619D01*
X110431009Y-54047619D02*
X110431009Y-53714286D01*
X110478628Y-54904762D02*
X110954819Y-54904762D01*
X109954819Y-54571429D02*
X110478628Y-54904762D01*
X110478628Y-54904762D02*
X109954819Y-55238095D01*
X110954819Y-55571429D02*
X109954819Y-55571429D01*
X109954819Y-55571429D02*
X109954819Y-55952381D01*
X109954819Y-55952381D02*
X110002438Y-56047619D01*
X110002438Y-56047619D02*
X110050057Y-56095238D01*
X110050057Y-56095238D02*
X110145295Y-56142857D01*
X110145295Y-56142857D02*
X110288152Y-56142857D01*
X110288152Y-56142857D02*
X110383390Y-56095238D01*
X110383390Y-56095238D02*
X110431009Y-56047619D01*
X110431009Y-56047619D02*
X110478628Y-55952381D01*
X110478628Y-55952381D02*
X110478628Y-55571429D01*
X110669104Y-56523810D02*
X110669104Y-57000000D01*
X110954819Y-56428572D02*
X109954819Y-56761905D01*
X109954819Y-56761905D02*
X110954819Y-57095238D01*
X110907200Y-57380953D02*
X110954819Y-57523810D01*
X110954819Y-57523810D02*
X110954819Y-57761905D01*
X110954819Y-57761905D02*
X110907200Y-57857143D01*
X110907200Y-57857143D02*
X110859580Y-57904762D01*
X110859580Y-57904762D02*
X110764342Y-57952381D01*
X110764342Y-57952381D02*
X110669104Y-57952381D01*
X110669104Y-57952381D02*
X110573866Y-57904762D01*
X110573866Y-57904762D02*
X110526247Y-57857143D01*
X110526247Y-57857143D02*
X110478628Y-57761905D01*
X110478628Y-57761905D02*
X110431009Y-57571429D01*
X110431009Y-57571429D02*
X110383390Y-57476191D01*
X110383390Y-57476191D02*
X110335771Y-57428572D01*
X110335771Y-57428572D02*
X110240533Y-57380953D01*
X110240533Y-57380953D02*
X110145295Y-57380953D01*
X110145295Y-57380953D02*
X110050057Y-57428572D01*
X110050057Y-57428572D02*
X110002438Y-57476191D01*
X110002438Y-57476191D02*
X109954819Y-57571429D01*
X109954819Y-57571429D02*
X109954819Y-57809524D01*
X109954819Y-57809524D02*
X110002438Y-57952381D01*
X110907200Y-58333334D02*
X110954819Y-58476191D01*
X110954819Y-58476191D02*
X110954819Y-58714286D01*
X110954819Y-58714286D02*
X110907200Y-58809524D01*
X110907200Y-58809524D02*
X110859580Y-58857143D01*
X110859580Y-58857143D02*
X110764342Y-58904762D01*
X110764342Y-58904762D02*
X110669104Y-58904762D01*
X110669104Y-58904762D02*
X110573866Y-58857143D01*
X110573866Y-58857143D02*
X110526247Y-58809524D01*
X110526247Y-58809524D02*
X110478628Y-58714286D01*
X110478628Y-58714286D02*
X110431009Y-58523810D01*
X110431009Y-58523810D02*
X110383390Y-58428572D01*
X110383390Y-58428572D02*
X110335771Y-58380953D01*
X110335771Y-58380953D02*
X110240533Y-58333334D01*
X110240533Y-58333334D02*
X110145295Y-58333334D01*
X110145295Y-58333334D02*
X110050057Y-58380953D01*
X110050057Y-58380953D02*
X110002438Y-58428572D01*
X110002438Y-58428572D02*
X109954819Y-58523810D01*
X109954819Y-58523810D02*
X109954819Y-58761905D01*
X109954819Y-58761905D02*
X110002438Y-58904762D01*
X140083333Y-76812295D02*
X140083333Y-77383723D01*
X140083333Y-77383723D02*
X140130952Y-77498009D01*
X140130952Y-77498009D02*
X140226190Y-77574200D01*
X140226190Y-77574200D02*
X140369047Y-77612295D01*
X140369047Y-77612295D02*
X140464285Y-77612295D01*
X139607142Y-77612295D02*
X139607142Y-76812295D01*
X139607142Y-76812295D02*
X139226190Y-76812295D01*
X139226190Y-76812295D02*
X139130952Y-76850390D01*
X139130952Y-76850390D02*
X139083333Y-76888485D01*
X139083333Y-76888485D02*
X139035714Y-76964676D01*
X139035714Y-76964676D02*
X139035714Y-77078961D01*
X139035714Y-77078961D02*
X139083333Y-77155152D01*
X139083333Y-77155152D02*
X139130952Y-77193247D01*
X139130952Y-77193247D02*
X139226190Y-77231342D01*
X139226190Y-77231342D02*
X139607142Y-77231342D01*
X138702380Y-76812295D02*
X138035714Y-76812295D01*
X138035714Y-76812295D02*
X138464285Y-77612295D01*
X147083333Y-83312295D02*
X147083333Y-83883723D01*
X147083333Y-83883723D02*
X147130952Y-83998009D01*
X147130952Y-83998009D02*
X147226190Y-84074200D01*
X147226190Y-84074200D02*
X147369047Y-84112295D01*
X147369047Y-84112295D02*
X147464285Y-84112295D01*
X146607142Y-84112295D02*
X146607142Y-83312295D01*
X146607142Y-83312295D02*
X146226190Y-83312295D01*
X146226190Y-83312295D02*
X146130952Y-83350390D01*
X146130952Y-83350390D02*
X146083333Y-83388485D01*
X146083333Y-83388485D02*
X146035714Y-83464676D01*
X146035714Y-83464676D02*
X146035714Y-83578961D01*
X146035714Y-83578961D02*
X146083333Y-83655152D01*
X146083333Y-83655152D02*
X146130952Y-83693247D01*
X146130952Y-83693247D02*
X146226190Y-83731342D01*
X146226190Y-83731342D02*
X146607142Y-83731342D01*
X145654761Y-83388485D02*
X145607142Y-83350390D01*
X145607142Y-83350390D02*
X145511904Y-83312295D01*
X145511904Y-83312295D02*
X145273809Y-83312295D01*
X145273809Y-83312295D02*
X145178571Y-83350390D01*
X145178571Y-83350390D02*
X145130952Y-83388485D01*
X145130952Y-83388485D02*
X145083333Y-83464676D01*
X145083333Y-83464676D02*
X145083333Y-83540866D01*
X145083333Y-83540866D02*
X145130952Y-83655152D01*
X145130952Y-83655152D02*
X145702380Y-84112295D01*
X145702380Y-84112295D02*
X145083333Y-84112295D01*
X148273809Y-87862295D02*
X148273809Y-87062295D01*
X148273809Y-87062295D02*
X148035714Y-87062295D01*
X148035714Y-87062295D02*
X147892857Y-87100390D01*
X147892857Y-87100390D02*
X147797619Y-87176580D01*
X147797619Y-87176580D02*
X147750000Y-87252771D01*
X147750000Y-87252771D02*
X147702381Y-87405152D01*
X147702381Y-87405152D02*
X147702381Y-87519438D01*
X147702381Y-87519438D02*
X147750000Y-87671819D01*
X147750000Y-87671819D02*
X147797619Y-87748009D01*
X147797619Y-87748009D02*
X147892857Y-87824200D01*
X147892857Y-87824200D02*
X148035714Y-87862295D01*
X148035714Y-87862295D02*
X148273809Y-87862295D01*
X147511905Y-87938485D02*
X146750000Y-87938485D01*
X146607142Y-87062295D02*
X145988095Y-87062295D01*
X145988095Y-87062295D02*
X146321428Y-87367057D01*
X146321428Y-87367057D02*
X146178571Y-87367057D01*
X146178571Y-87367057D02*
X146083333Y-87405152D01*
X146083333Y-87405152D02*
X146035714Y-87443247D01*
X146035714Y-87443247D02*
X145988095Y-87519438D01*
X145988095Y-87519438D02*
X145988095Y-87709914D01*
X145988095Y-87709914D02*
X146035714Y-87786104D01*
X146035714Y-87786104D02*
X146083333Y-87824200D01*
X146083333Y-87824200D02*
X146178571Y-87862295D01*
X146178571Y-87862295D02*
X146464285Y-87862295D01*
X146464285Y-87862295D02*
X146559523Y-87824200D01*
X146559523Y-87824200D02*
X146607142Y-87786104D01*
X145702380Y-87062295D02*
X145369047Y-87862295D01*
X145369047Y-87862295D02*
X145035714Y-87062295D01*
X144797618Y-87062295D02*
X144178571Y-87062295D01*
X144178571Y-87062295D02*
X144511904Y-87367057D01*
X144511904Y-87367057D02*
X144369047Y-87367057D01*
X144369047Y-87367057D02*
X144273809Y-87405152D01*
X144273809Y-87405152D02*
X144226190Y-87443247D01*
X144226190Y-87443247D02*
X144178571Y-87519438D01*
X144178571Y-87519438D02*
X144178571Y-87709914D01*
X144178571Y-87709914D02*
X144226190Y-87786104D01*
X144226190Y-87786104D02*
X144273809Y-87824200D01*
X144273809Y-87824200D02*
X144369047Y-87862295D01*
X144369047Y-87862295D02*
X144654761Y-87862295D01*
X144654761Y-87862295D02*
X144749999Y-87824200D01*
X144749999Y-87824200D02*
X144797618Y-87786104D01*
X141608333Y-81812295D02*
X141608333Y-82383723D01*
X141608333Y-82383723D02*
X141655952Y-82498009D01*
X141655952Y-82498009D02*
X141751190Y-82574200D01*
X141751190Y-82574200D02*
X141894047Y-82612295D01*
X141894047Y-82612295D02*
X141989285Y-82612295D01*
X141132142Y-82612295D02*
X141132142Y-81812295D01*
X141132142Y-81812295D02*
X140751190Y-81812295D01*
X140751190Y-81812295D02*
X140655952Y-81850390D01*
X140655952Y-81850390D02*
X140608333Y-81888485D01*
X140608333Y-81888485D02*
X140560714Y-81964676D01*
X140560714Y-81964676D02*
X140560714Y-82078961D01*
X140560714Y-82078961D02*
X140608333Y-82155152D01*
X140608333Y-82155152D02*
X140655952Y-82193247D01*
X140655952Y-82193247D02*
X140751190Y-82231342D01*
X140751190Y-82231342D02*
X141132142Y-82231342D01*
X139703571Y-82078961D02*
X139703571Y-82612295D01*
X139941666Y-81774200D02*
X140179761Y-82345628D01*
X140179761Y-82345628D02*
X139560714Y-82345628D01*
X141821428Y-78862295D02*
X141821428Y-78062295D01*
X141821428Y-78062295D02*
X141583333Y-78062295D01*
X141583333Y-78062295D02*
X141440476Y-78100390D01*
X141440476Y-78100390D02*
X141345238Y-78176580D01*
X141345238Y-78176580D02*
X141297619Y-78252771D01*
X141297619Y-78252771D02*
X141250000Y-78405152D01*
X141250000Y-78405152D02*
X141250000Y-78519438D01*
X141250000Y-78519438D02*
X141297619Y-78671819D01*
X141297619Y-78671819D02*
X141345238Y-78748009D01*
X141345238Y-78748009D02*
X141440476Y-78824200D01*
X141440476Y-78824200D02*
X141583333Y-78862295D01*
X141583333Y-78862295D02*
X141821428Y-78862295D01*
X141059524Y-78938485D02*
X140297619Y-78938485D01*
X139488095Y-78786104D02*
X139535714Y-78824200D01*
X139535714Y-78824200D02*
X139678571Y-78862295D01*
X139678571Y-78862295D02*
X139773809Y-78862295D01*
X139773809Y-78862295D02*
X139916666Y-78824200D01*
X139916666Y-78824200D02*
X140011904Y-78748009D01*
X140011904Y-78748009D02*
X140059523Y-78671819D01*
X140059523Y-78671819D02*
X140107142Y-78519438D01*
X140107142Y-78519438D02*
X140107142Y-78405152D01*
X140107142Y-78405152D02*
X140059523Y-78252771D01*
X140059523Y-78252771D02*
X140011904Y-78176580D01*
X140011904Y-78176580D02*
X139916666Y-78100390D01*
X139916666Y-78100390D02*
X139773809Y-78062295D01*
X139773809Y-78062295D02*
X139678571Y-78062295D01*
X139678571Y-78062295D02*
X139535714Y-78100390D01*
X139535714Y-78100390D02*
X139488095Y-78138485D01*
X139059523Y-78443247D02*
X138726190Y-78443247D01*
X138583333Y-78862295D02*
X139059523Y-78862295D01*
X139059523Y-78862295D02*
X139059523Y-78062295D01*
X139059523Y-78062295D02*
X138583333Y-78062295D01*
X137964285Y-78062295D02*
X137869047Y-78062295D01*
X137869047Y-78062295D02*
X137773809Y-78100390D01*
X137773809Y-78100390D02*
X137726190Y-78138485D01*
X137726190Y-78138485D02*
X137678571Y-78214676D01*
X137678571Y-78214676D02*
X137630952Y-78367057D01*
X137630952Y-78367057D02*
X137630952Y-78557533D01*
X137630952Y-78557533D02*
X137678571Y-78709914D01*
X137678571Y-78709914D02*
X137726190Y-78786104D01*
X137726190Y-78786104D02*
X137773809Y-78824200D01*
X137773809Y-78824200D02*
X137869047Y-78862295D01*
X137869047Y-78862295D02*
X137964285Y-78862295D01*
X137964285Y-78862295D02*
X138059523Y-78824200D01*
X138059523Y-78824200D02*
X138107142Y-78786104D01*
X138107142Y-78786104D02*
X138154761Y-78709914D01*
X138154761Y-78709914D02*
X138202380Y-78557533D01*
X138202380Y-78557533D02*
X138202380Y-78367057D01*
X138202380Y-78367057D02*
X138154761Y-78214676D01*
X138154761Y-78214676D02*
X138107142Y-78138485D01*
X138107142Y-78138485D02*
X138059523Y-78100390D01*
X138059523Y-78100390D02*
X137964285Y-78062295D01*
X140059523Y-70562295D02*
X140059523Y-71133723D01*
X140059523Y-71133723D02*
X140107142Y-71248009D01*
X140107142Y-71248009D02*
X140202380Y-71324200D01*
X140202380Y-71324200D02*
X140345237Y-71362295D01*
X140345237Y-71362295D02*
X140440475Y-71362295D01*
X139583332Y-71362295D02*
X139583332Y-70562295D01*
X139583332Y-70562295D02*
X139202380Y-70562295D01*
X139202380Y-70562295D02*
X139107142Y-70600390D01*
X139107142Y-70600390D02*
X139059523Y-70638485D01*
X139059523Y-70638485D02*
X139011904Y-70714676D01*
X139011904Y-70714676D02*
X139011904Y-70828961D01*
X139011904Y-70828961D02*
X139059523Y-70905152D01*
X139059523Y-70905152D02*
X139107142Y-70943247D01*
X139107142Y-70943247D02*
X139202380Y-70981342D01*
X139202380Y-70981342D02*
X139583332Y-70981342D01*
X138059523Y-71362295D02*
X138630951Y-71362295D01*
X138345237Y-71362295D02*
X138345237Y-70562295D01*
X138345237Y-70562295D02*
X138440475Y-70676580D01*
X138440475Y-70676580D02*
X138535713Y-70752771D01*
X138535713Y-70752771D02*
X138630951Y-70790866D01*
X137440475Y-70562295D02*
X137345237Y-70562295D01*
X137345237Y-70562295D02*
X137249999Y-70600390D01*
X137249999Y-70600390D02*
X137202380Y-70638485D01*
X137202380Y-70638485D02*
X137154761Y-70714676D01*
X137154761Y-70714676D02*
X137107142Y-70867057D01*
X137107142Y-70867057D02*
X137107142Y-71057533D01*
X137107142Y-71057533D02*
X137154761Y-71209914D01*
X137154761Y-71209914D02*
X137202380Y-71286104D01*
X137202380Y-71286104D02*
X137249999Y-71324200D01*
X137249999Y-71324200D02*
X137345237Y-71362295D01*
X137345237Y-71362295D02*
X137440475Y-71362295D01*
X137440475Y-71362295D02*
X137535713Y-71324200D01*
X137535713Y-71324200D02*
X137583332Y-71286104D01*
X137583332Y-71286104D02*
X137630951Y-71209914D01*
X137630951Y-71209914D02*
X137678570Y-71057533D01*
X137678570Y-71057533D02*
X137678570Y-70867057D01*
X137678570Y-70867057D02*
X137630951Y-70714676D01*
X137630951Y-70714676D02*
X137583332Y-70638485D01*
X137583332Y-70638485D02*
X137535713Y-70600390D01*
X137535713Y-70600390D02*
X137440475Y-70562295D01*
X147108333Y-81862295D02*
X147108333Y-82433723D01*
X147108333Y-82433723D02*
X147155952Y-82548009D01*
X147155952Y-82548009D02*
X147251190Y-82624200D01*
X147251190Y-82624200D02*
X147394047Y-82662295D01*
X147394047Y-82662295D02*
X147489285Y-82662295D01*
X146632142Y-82662295D02*
X146632142Y-81862295D01*
X146632142Y-81862295D02*
X146251190Y-81862295D01*
X146251190Y-81862295D02*
X146155952Y-81900390D01*
X146155952Y-81900390D02*
X146108333Y-81938485D01*
X146108333Y-81938485D02*
X146060714Y-82014676D01*
X146060714Y-82014676D02*
X146060714Y-82128961D01*
X146060714Y-82128961D02*
X146108333Y-82205152D01*
X146108333Y-82205152D02*
X146155952Y-82243247D01*
X146155952Y-82243247D02*
X146251190Y-82281342D01*
X146251190Y-82281342D02*
X146632142Y-82281342D01*
X145155952Y-81862295D02*
X145632142Y-81862295D01*
X145632142Y-81862295D02*
X145679761Y-82243247D01*
X145679761Y-82243247D02*
X145632142Y-82205152D01*
X145632142Y-82205152D02*
X145536904Y-82167057D01*
X145536904Y-82167057D02*
X145298809Y-82167057D01*
X145298809Y-82167057D02*
X145203571Y-82205152D01*
X145203571Y-82205152D02*
X145155952Y-82243247D01*
X145155952Y-82243247D02*
X145108333Y-82319438D01*
X145108333Y-82319438D02*
X145108333Y-82509914D01*
X145108333Y-82509914D02*
X145155952Y-82586104D01*
X145155952Y-82586104D02*
X145203571Y-82624200D01*
X145203571Y-82624200D02*
X145298809Y-82662295D01*
X145298809Y-82662295D02*
X145536904Y-82662295D01*
X145536904Y-82662295D02*
X145632142Y-82624200D01*
X145632142Y-82624200D02*
X145679761Y-82586104D01*
X149071428Y-78862295D02*
X149071428Y-78062295D01*
X149071428Y-78062295D02*
X148833333Y-78062295D01*
X148833333Y-78062295D02*
X148690476Y-78100390D01*
X148690476Y-78100390D02*
X148595238Y-78176580D01*
X148595238Y-78176580D02*
X148547619Y-78252771D01*
X148547619Y-78252771D02*
X148500000Y-78405152D01*
X148500000Y-78405152D02*
X148500000Y-78519438D01*
X148500000Y-78519438D02*
X148547619Y-78671819D01*
X148547619Y-78671819D02*
X148595238Y-78748009D01*
X148595238Y-78748009D02*
X148690476Y-78824200D01*
X148690476Y-78824200D02*
X148833333Y-78862295D01*
X148833333Y-78862295D02*
X149071428Y-78862295D01*
X148309524Y-78938485D02*
X147547619Y-78938485D01*
X146738095Y-78786104D02*
X146785714Y-78824200D01*
X146785714Y-78824200D02*
X146928571Y-78862295D01*
X146928571Y-78862295D02*
X147023809Y-78862295D01*
X147023809Y-78862295D02*
X147166666Y-78824200D01*
X147166666Y-78824200D02*
X147261904Y-78748009D01*
X147261904Y-78748009D02*
X147309523Y-78671819D01*
X147309523Y-78671819D02*
X147357142Y-78519438D01*
X147357142Y-78519438D02*
X147357142Y-78405152D01*
X147357142Y-78405152D02*
X147309523Y-78252771D01*
X147309523Y-78252771D02*
X147261904Y-78176580D01*
X147261904Y-78176580D02*
X147166666Y-78100390D01*
X147166666Y-78100390D02*
X147023809Y-78062295D01*
X147023809Y-78062295D02*
X146928571Y-78062295D01*
X146928571Y-78062295D02*
X146785714Y-78100390D01*
X146785714Y-78100390D02*
X146738095Y-78138485D01*
X146309523Y-78443247D02*
X145976190Y-78443247D01*
X145833333Y-78862295D02*
X146309523Y-78862295D01*
X146309523Y-78862295D02*
X146309523Y-78062295D01*
X146309523Y-78062295D02*
X145833333Y-78062295D01*
X144880952Y-78862295D02*
X145452380Y-78862295D01*
X145166666Y-78862295D02*
X145166666Y-78062295D01*
X145166666Y-78062295D02*
X145261904Y-78176580D01*
X145261904Y-78176580D02*
X145357142Y-78252771D01*
X145357142Y-78252771D02*
X145452380Y-78290866D01*
X134108333Y-77062295D02*
X134108333Y-77633723D01*
X134108333Y-77633723D02*
X134155952Y-77748009D01*
X134155952Y-77748009D02*
X134251190Y-77824200D01*
X134251190Y-77824200D02*
X134394047Y-77862295D01*
X134394047Y-77862295D02*
X134489285Y-77862295D01*
X133632142Y-77862295D02*
X133632142Y-77062295D01*
X133632142Y-77062295D02*
X133251190Y-77062295D01*
X133251190Y-77062295D02*
X133155952Y-77100390D01*
X133155952Y-77100390D02*
X133108333Y-77138485D01*
X133108333Y-77138485D02*
X133060714Y-77214676D01*
X133060714Y-77214676D02*
X133060714Y-77328961D01*
X133060714Y-77328961D02*
X133108333Y-77405152D01*
X133108333Y-77405152D02*
X133155952Y-77443247D01*
X133155952Y-77443247D02*
X133251190Y-77481342D01*
X133251190Y-77481342D02*
X133632142Y-77481342D01*
X132203571Y-77062295D02*
X132394047Y-77062295D01*
X132394047Y-77062295D02*
X132489285Y-77100390D01*
X132489285Y-77100390D02*
X132536904Y-77138485D01*
X132536904Y-77138485D02*
X132632142Y-77252771D01*
X132632142Y-77252771D02*
X132679761Y-77405152D01*
X132679761Y-77405152D02*
X132679761Y-77709914D01*
X132679761Y-77709914D02*
X132632142Y-77786104D01*
X132632142Y-77786104D02*
X132584523Y-77824200D01*
X132584523Y-77824200D02*
X132489285Y-77862295D01*
X132489285Y-77862295D02*
X132298809Y-77862295D01*
X132298809Y-77862295D02*
X132203571Y-77824200D01*
X132203571Y-77824200D02*
X132155952Y-77786104D01*
X132155952Y-77786104D02*
X132108333Y-77709914D01*
X132108333Y-77709914D02*
X132108333Y-77519438D01*
X132108333Y-77519438D02*
X132155952Y-77443247D01*
X132155952Y-77443247D02*
X132203571Y-77405152D01*
X132203571Y-77405152D02*
X132298809Y-77367057D01*
X132298809Y-77367057D02*
X132489285Y-77367057D01*
X132489285Y-77367057D02*
X132584523Y-77405152D01*
X132584523Y-77405152D02*
X132632142Y-77443247D01*
X132632142Y-77443247D02*
X132679761Y-77519438D01*
D14*
X107040000Y-44900000D02*
X107040000Y-47500000D01*
X107040000Y-44900000D02*
X157960000Y-44900000D01*
X107040000Y-47500000D02*
X109640000Y-47500000D01*
X107040000Y-48770000D02*
X107040000Y-50100000D01*
X107040000Y-50100000D02*
X108370000Y-50100000D01*
X109640000Y-47500000D02*
X109640000Y-50100000D01*
X109640000Y-50100000D02*
X157960000Y-50100000D01*
X157960000Y-44900000D02*
X157960000Y-50100000D01*
X131875000Y-69500000D02*
X134675000Y-69500000D01*
X131875000Y-71500000D02*
X131875000Y-69500000D01*
X134675000Y-69500000D02*
X134675000Y-71500000D01*
X134675000Y-71500000D02*
X131875000Y-71500000D01*
X131875000Y-72000000D02*
X134675000Y-72000000D01*
X131875000Y-74000000D02*
X131875000Y-72000000D01*
X134675000Y-72000000D02*
X134675000Y-74000000D01*
X134675000Y-74000000D02*
X131875000Y-74000000D01*
X139375000Y-84500000D02*
X142175000Y-84500000D01*
X139375000Y-86500000D02*
X139375000Y-84500000D01*
X142175000Y-84500000D02*
X142175000Y-86500000D01*
X142175000Y-86500000D02*
X139375000Y-86500000D01*
X107000000Y-51825000D02*
X109000000Y-51825000D01*
X107000000Y-54625000D02*
X107000000Y-51825000D01*
X109000000Y-51825000D02*
X109000000Y-54625000D01*
X109000000Y-54625000D02*
X107000000Y-54625000D01*
X137375000Y-74500000D02*
X140175000Y-74500000D01*
X137375000Y-76500000D02*
X137375000Y-74500000D01*
X140175000Y-74500000D02*
X140175000Y-76500000D01*
X140175000Y-76500000D02*
X137375000Y-76500000D01*
X144825000Y-84500000D02*
X147625000Y-84500000D01*
X144825000Y-86500000D02*
X144825000Y-84500000D01*
X147625000Y-84500000D02*
X147625000Y-86500000D01*
X147625000Y-86500000D02*
X144825000Y-86500000D01*
X139375000Y-79500000D02*
X142175000Y-79500000D01*
X139375000Y-81500000D02*
X139375000Y-79500000D01*
X142175000Y-79500000D02*
X142175000Y-81500000D01*
X142175000Y-81500000D02*
X139375000Y-81500000D01*
X137375000Y-72000000D02*
X140175000Y-72000000D01*
X137375000Y-74000000D02*
X137375000Y-72000000D01*
X140175000Y-72000000D02*
X140175000Y-74000000D01*
X140175000Y-74000000D02*
X137375000Y-74000000D01*
X144875000Y-79500000D02*
X147675000Y-79500000D01*
X144875000Y-81500000D02*
X144875000Y-79500000D01*
X147675000Y-79500000D02*
X147675000Y-81500000D01*
X147675000Y-81500000D02*
X144875000Y-81500000D01*
X131875000Y-74500000D02*
X134675000Y-74500000D01*
X131875000Y-76500000D02*
X131875000Y-74500000D01*
X134675000Y-74500000D02*
X134675000Y-76500000D01*
X134675000Y-76500000D02*
X131875000Y-76500000D01*
%LPC*%
D15*
X128250000Y-81750000D03*
D16*
X128250000Y-84250000D03*
X128250000Y-86750000D03*
D15*
X128250000Y-63250000D03*
D16*
X128250000Y-65750000D03*
X128250000Y-68250000D03*
X128250000Y-70750000D03*
X128250000Y-73250000D03*
X128250000Y-75750000D03*
D17*
X146500000Y-94250000D03*
D18*
X149000000Y-94250000D03*
X151500000Y-94250000D03*
X154000000Y-94250000D03*
D19*
X104000000Y-54920000D03*
D20*
X104000000Y-60000000D03*
D21*
X161500000Y-47500000D03*
D22*
X108475000Y-77250000D03*
D23*
X108475000Y-74750000D03*
D24*
X148690000Y-73000000D03*
D25*
X156310000Y-73000000D03*
D26*
X111475000Y-96500000D03*
D16*
X111475000Y-94000000D03*
X111475000Y-91500000D03*
D26*
X151500000Y-85500000D03*
D16*
X151500000Y-83000000D03*
X151500000Y-80500000D03*
X151500000Y-78000000D03*
D26*
X119500000Y-75500000D03*
D16*
X119500000Y-73000000D03*
X119500000Y-70500000D03*
X119500000Y-68000000D03*
X119500000Y-65500000D03*
D15*
X143500000Y-65500000D03*
D16*
X143500000Y-68000000D03*
X143500000Y-70500000D03*
X143500000Y-73000000D03*
X143500000Y-75500000D03*
X143500000Y-78000000D03*
X143500000Y-80500000D03*
X143500000Y-83000000D03*
X143500000Y-85500000D03*
D19*
X104000000Y-83960000D03*
D20*
X104000000Y-89040000D03*
D22*
X108450000Y-68500000D03*
D23*
X108450000Y-66000000D03*
D21*
X103500000Y-96500000D03*
X161500000Y-70500000D03*
X103500000Y-47500000D03*
D26*
X160000000Y-85500000D03*
D16*
X160000000Y-83000000D03*
X160000000Y-80500000D03*
X160000000Y-78000000D03*
D24*
X122380000Y-91250000D03*
D25*
X130000000Y-91250000D03*
D27*
X139220000Y-55500000D03*
D28*
X139220000Y-58040000D03*
X141760000Y-55500000D03*
X141760000Y-58040000D03*
X144300000Y-55500000D03*
X144300000Y-58040000D03*
X146840000Y-55500000D03*
X146840000Y-58040000D03*
X149380000Y-55500000D03*
X149380000Y-58040000D03*
X151920000Y-55500000D03*
X151920000Y-58040000D03*
X154460000Y-55500000D03*
X154460000Y-58040000D03*
X157000000Y-55500000D03*
X157000000Y-58040000D03*
X159540000Y-55500000D03*
X159540000Y-58040000D03*
X162080000Y-55500000D03*
X162080000Y-58040000D03*
D24*
X128000000Y-97000000D03*
X130500000Y-97000000D03*
X122380000Y-94250000D03*
D25*
X130000000Y-94250000D03*
D21*
X161500000Y-96500000D03*
D24*
X148690000Y-68500000D03*
D25*
X156310000Y-68500000D03*
D15*
X136000000Y-65500000D03*
D16*
X136000000Y-68000000D03*
X136000000Y-70500000D03*
X136000000Y-73000000D03*
X136000000Y-75500000D03*
X136000000Y-78000000D03*
D24*
X117500000Y-90190000D03*
D25*
X117500000Y-97810000D03*
D24*
X114500000Y-72190000D03*
D25*
X114500000Y-79810000D03*
D27*
X108370000Y-48770000D03*
D28*
X108370000Y-46230000D03*
X110910000Y-48770000D03*
X110910000Y-46230000D03*
X113450000Y-48770000D03*
X113450000Y-46230000D03*
X115990000Y-48770000D03*
X115990000Y-46230000D03*
X118530000Y-48770000D03*
X118530000Y-46230000D03*
X121070000Y-48770000D03*
X121070000Y-46230000D03*
X123610000Y-48770000D03*
X123610000Y-46230000D03*
X126150000Y-48770000D03*
X126150000Y-46230000D03*
X128690000Y-48770000D03*
X128690000Y-46230000D03*
X131230000Y-48770000D03*
X131230000Y-46230000D03*
X133770000Y-48770000D03*
X133770000Y-46230000D03*
X136310000Y-48770000D03*
X136310000Y-46230000D03*
X138850000Y-48770000D03*
X138850000Y-46230000D03*
X141390000Y-48770000D03*
X141390000Y-46230000D03*
X143930000Y-48770000D03*
X143930000Y-46230000D03*
X146470000Y-48770000D03*
X146470000Y-46230000D03*
X149010000Y-48770000D03*
X149010000Y-46230000D03*
X151550000Y-48770000D03*
X151550000Y-46230000D03*
X154090000Y-48770000D03*
X154090000Y-46230000D03*
X156630000Y-48770000D03*
X156630000Y-46230000D03*
D29*
X134000000Y-70500000D03*
D30*
X132550000Y-70500000D03*
D29*
X134000000Y-73000000D03*
D30*
X132550000Y-73000000D03*
D29*
X141500000Y-85500000D03*
D30*
X140050000Y-85500000D03*
D31*
X108000000Y-53950000D03*
D32*
X108000000Y-52500000D03*
D33*
X138050000Y-75500000D03*
D34*
X139500000Y-75500000D03*
D33*
X145500000Y-85500000D03*
D34*
X146950000Y-85500000D03*
D29*
X141500000Y-80500000D03*
D30*
X140050000Y-80500000D03*
D33*
X138050000Y-73000000D03*
D34*
X139500000Y-73000000D03*
D33*
X145550000Y-80500000D03*
D34*
X147000000Y-80500000D03*
D29*
X134000000Y-75500000D03*
D30*
X132550000Y-75500000D03*
%LPD*%
M02*
