G04 #@! TF.GenerationSoftware,KiCad,Pcbnew,8.0.1-8.0.1-1~ubuntu22.04.1*
G04 #@! TF.CreationDate,2024-05-03T16:19:53-07:00*
G04 #@! TF.ProjectId,pifire-main-module-nopwr,70696669-7265-42d6-9d61-696e2d6d6f64,rev?*
G04 #@! TF.SameCoordinates,Original*
G04 #@! TF.FileFunction,Copper,L2,Bot*
G04 #@! TF.FilePolarity,Positive*
%FSLAX46Y46*%
G04 Gerber Fmt 4.6, Leading zero omitted, Abs format (unit mm)*
G04 Created by KiCad (PCBNEW 8.0.1-8.0.1-1~ubuntu22.04.1) date 2024-05-03 16:19:53*
%MOMM*%
%LPD*%
G01*
G04 APERTURE LIST*
G04 Aperture macros list*
%AMRoundRect*
0 Rectangle with rounded corners*
0 $1 Rounding radius*
0 $2 $3 $4 $5 $6 $7 $8 $9 X,Y pos of 4 corners*
0 Add a 4 corners polygon primitive as box body*
4,1,4,$2,$3,$4,$5,$6,$7,$8,$9,$2,$3,0*
0 Add four circle primitives for the rounded corners*
1,1,$1+$1,$2,$3*
1,1,$1+$1,$4,$5*
1,1,$1+$1,$6,$7*
1,1,$1+$1,$8,$9*
0 Add four rect primitives between the rounded corners*
20,1,$1+$1,$2,$3,$4,$5,0*
20,1,$1+$1,$4,$5,$6,$7,0*
20,1,$1+$1,$6,$7,$8,$9,0*
20,1,$1+$1,$8,$9,$2,$3,0*%
%AMFreePoly0*
4,1,6,1.000000,0.000000,0.500000,-0.750000,-0.500000,-0.750000,-0.500000,0.750000,0.500000,0.750000,1.000000,0.000000,1.000000,0.000000,$1*%
%AMFreePoly1*
4,1,6,0.500000,-0.750000,-0.650000,-0.750000,-0.150000,0.000000,-0.650000,0.750000,0.500000,0.750000,0.500000,-0.750000,0.500000,-0.750000,$1*%
G04 Aperture macros list end*
G04 #@! TA.AperFunction,ComponentPad*
%ADD10RoundRect,0.250000X-0.600000X-0.725000X0.600000X-0.725000X0.600000X0.725000X-0.600000X0.725000X0*%
G04 #@! TD*
G04 #@! TA.AperFunction,ComponentPad*
%ADD11O,1.700000X1.950000*%
G04 #@! TD*
G04 #@! TA.AperFunction,ComponentPad*
%ADD12R,3.000000X3.000000*%
G04 #@! TD*
G04 #@! TA.AperFunction,ComponentPad*
%ADD13C,3.000000*%
G04 #@! TD*
G04 #@! TA.AperFunction,ComponentPad*
%ADD14RoundRect,0.250000X0.750000X-0.600000X0.750000X0.600000X-0.750000X0.600000X-0.750000X-0.600000X0*%
G04 #@! TD*
G04 #@! TA.AperFunction,ComponentPad*
%ADD15O,2.000000X1.700000*%
G04 #@! TD*
G04 #@! TA.AperFunction,ComponentPad*
%ADD16C,1.600000*%
G04 #@! TD*
G04 #@! TA.AperFunction,ComponentPad*
%ADD17O,1.600000X1.600000*%
G04 #@! TD*
G04 #@! TA.AperFunction,ComponentPad*
%ADD18RoundRect,0.250000X0.725000X-0.600000X0.725000X0.600000X-0.725000X0.600000X-0.725000X-0.600000X0*%
G04 #@! TD*
G04 #@! TA.AperFunction,ComponentPad*
%ADD19O,1.950000X1.700000*%
G04 #@! TD*
G04 #@! TA.AperFunction,ComponentPad*
%ADD20RoundRect,0.250000X-0.725000X0.600000X-0.725000X-0.600000X0.725000X-0.600000X0.725000X0.600000X0*%
G04 #@! TD*
G04 #@! TA.AperFunction,ComponentPad*
%ADD21R,1.700000X1.700000*%
G04 #@! TD*
G04 #@! TA.AperFunction,ComponentPad*
%ADD22O,1.700000X1.700000*%
G04 #@! TD*
G04 #@! TA.AperFunction,SMDPad,CuDef*
%ADD23FreePoly0,180.000000*%
G04 #@! TD*
G04 #@! TA.AperFunction,SMDPad,CuDef*
%ADD24FreePoly1,180.000000*%
G04 #@! TD*
G04 #@! TA.AperFunction,SMDPad,CuDef*
%ADD25FreePoly0,90.000000*%
G04 #@! TD*
G04 #@! TA.AperFunction,SMDPad,CuDef*
%ADD26FreePoly1,90.000000*%
G04 #@! TD*
G04 #@! TA.AperFunction,SMDPad,CuDef*
%ADD27FreePoly0,0.000000*%
G04 #@! TD*
G04 #@! TA.AperFunction,SMDPad,CuDef*
%ADD28FreePoly1,0.000000*%
G04 #@! TD*
G04 #@! TA.AperFunction,ViaPad*
%ADD29C,0.900000*%
G04 #@! TD*
G04 #@! TA.AperFunction,ViaPad*
%ADD30C,1.000000*%
G04 #@! TD*
G04 #@! TA.AperFunction,Conductor*
%ADD31C,0.200000*%
G04 #@! TD*
G04 #@! TA.AperFunction,Conductor*
%ADD32C,0.500000*%
G04 #@! TD*
G04 APERTURE END LIST*
D10*
X146500000Y-94250000D03*
D11*
X149000000Y-94250000D03*
X151500000Y-94250000D03*
X154000000Y-94250000D03*
D12*
X104000000Y-54920000D03*
D13*
X104000000Y-60000000D03*
D14*
X108475000Y-77250000D03*
D15*
X108475000Y-74750000D03*
D16*
X148690000Y-73000000D03*
D17*
X156310000Y-73000000D03*
D18*
X111475000Y-96500000D03*
D19*
X111475000Y-94000000D03*
X111475000Y-91500000D03*
D18*
X151500000Y-85500000D03*
D19*
X151500000Y-83000000D03*
X151500000Y-80500000D03*
X151500000Y-78000000D03*
D18*
X119500000Y-75500000D03*
D19*
X119500000Y-73000000D03*
X119500000Y-70500000D03*
X119500000Y-68000000D03*
X119500000Y-65500000D03*
D20*
X143500000Y-65500000D03*
D19*
X143500000Y-68000000D03*
X143500000Y-70500000D03*
X143500000Y-73000000D03*
X143500000Y-75500000D03*
X143500000Y-78000000D03*
X143500000Y-80500000D03*
X143500000Y-83000000D03*
X143500000Y-85500000D03*
D12*
X104000000Y-83960000D03*
D13*
X104000000Y-89040000D03*
D14*
X108450000Y-68500000D03*
D15*
X108450000Y-66000000D03*
D18*
X160000000Y-85500000D03*
D19*
X160000000Y-83000000D03*
X160000000Y-80500000D03*
X160000000Y-78000000D03*
D16*
X122380000Y-91000000D03*
D17*
X130000000Y-91000000D03*
D21*
X139220000Y-55500000D03*
D22*
X139220000Y-58040000D03*
X141760000Y-55500000D03*
X141760000Y-58040000D03*
X144300000Y-55500000D03*
X144300000Y-58040000D03*
X146840000Y-55500000D03*
X146840000Y-58040000D03*
X149380000Y-55500000D03*
X149380000Y-58040000D03*
X151920000Y-55500000D03*
X151920000Y-58040000D03*
X154460000Y-55500000D03*
X154460000Y-58040000D03*
X157000000Y-55500000D03*
X157000000Y-58040000D03*
X159540000Y-55500000D03*
X159540000Y-58040000D03*
X162080000Y-55500000D03*
X162080000Y-58040000D03*
D16*
X128000000Y-97000000D03*
X130500000Y-97000000D03*
X122380000Y-94250000D03*
D17*
X130000000Y-94250000D03*
D20*
X128500000Y-65500000D03*
D19*
X128500000Y-68000000D03*
X128500000Y-70500000D03*
X128500000Y-73000000D03*
X128500000Y-75500000D03*
X128500000Y-78000000D03*
X128500000Y-80500000D03*
X128500000Y-83000000D03*
X128500000Y-85500000D03*
D16*
X148690000Y-68500000D03*
D17*
X156310000Y-68500000D03*
D20*
X136000000Y-65500000D03*
D19*
X136000000Y-68000000D03*
X136000000Y-70500000D03*
X136000000Y-73000000D03*
X136000000Y-75500000D03*
X136000000Y-78000000D03*
D16*
X117500000Y-90190000D03*
D17*
X117500000Y-97810000D03*
D16*
X114500000Y-72190000D03*
D17*
X114500000Y-79810000D03*
D21*
X108370000Y-48770000D03*
D22*
X108370000Y-46230000D03*
X110910000Y-48770000D03*
X110910000Y-46230000D03*
X113450000Y-48770000D03*
X113450000Y-46230000D03*
X115990000Y-48770000D03*
X115990000Y-46230000D03*
X118530000Y-48770000D03*
X118530000Y-46230000D03*
X121070000Y-48770000D03*
X121070000Y-46230000D03*
X123610000Y-48770000D03*
X123610000Y-46230000D03*
X126150000Y-48770000D03*
X126150000Y-46230000D03*
X128690000Y-48770000D03*
X128690000Y-46230000D03*
X131230000Y-48770000D03*
X131230000Y-46230000D03*
X133770000Y-48770000D03*
X133770000Y-46230000D03*
X136310000Y-48770000D03*
X136310000Y-46230000D03*
X138850000Y-48770000D03*
X138850000Y-46230000D03*
X141390000Y-48770000D03*
X141390000Y-46230000D03*
X143930000Y-48770000D03*
X143930000Y-46230000D03*
X146470000Y-48770000D03*
X146470000Y-46230000D03*
X149010000Y-48770000D03*
X149010000Y-46230000D03*
X151550000Y-48770000D03*
X151550000Y-46230000D03*
X154090000Y-48770000D03*
X154090000Y-46230000D03*
X156630000Y-48770000D03*
X156630000Y-46230000D03*
D23*
X134000000Y-70500000D03*
D24*
X132550000Y-70500000D03*
D23*
X134000000Y-73000000D03*
D24*
X132550000Y-73000000D03*
D23*
X141500000Y-85500000D03*
D24*
X140050000Y-85500000D03*
D25*
X108000000Y-53950000D03*
D26*
X108000000Y-52500000D03*
D27*
X138050000Y-75500000D03*
D28*
X139500000Y-75500000D03*
D27*
X145500000Y-85500000D03*
D28*
X146950000Y-85500000D03*
D23*
X141500000Y-80500000D03*
D24*
X140050000Y-80500000D03*
D27*
X138050000Y-73000000D03*
D28*
X139500000Y-73000000D03*
D27*
X145550000Y-80500000D03*
D28*
X147000000Y-80500000D03*
D23*
X134000000Y-75500000D03*
D24*
X132550000Y-75500000D03*
D29*
X137000000Y-81750000D03*
X138000000Y-51500000D03*
X136000000Y-80500000D03*
X131000000Y-75000000D03*
X160750000Y-63000000D03*
X125500000Y-65750000D03*
X113500000Y-57000000D03*
D30*
X140750000Y-75500000D03*
D29*
X119250000Y-57000000D03*
X147000000Y-66000000D03*
X143000000Y-62000000D03*
X144750000Y-62000000D03*
X147000000Y-64250000D03*
D30*
X111000000Y-62500000D03*
D29*
X122000000Y-60250000D03*
X125500000Y-63500000D03*
X137500000Y-62000000D03*
X141750000Y-62000000D03*
D30*
X162550000Y-60500000D03*
D29*
X120000000Y-88500000D03*
X121750000Y-80500000D03*
D31*
X114780000Y-44900000D02*
X113450000Y-46230000D01*
X150160000Y-47380000D02*
X154326346Y-47380000D01*
X157000000Y-58040000D02*
X154460000Y-58040000D01*
X145080000Y-45080000D02*
X147860000Y-45080000D01*
X154326346Y-47380000D02*
X155240000Y-48293654D01*
X143930000Y-46230000D02*
X142540000Y-47620000D01*
X155240000Y-48293654D02*
X155240000Y-54720000D01*
X154460000Y-55500000D02*
X154460000Y-58040000D01*
X143930000Y-46230000D02*
X145080000Y-45080000D01*
X147860000Y-45080000D02*
X149010000Y-46230000D01*
X119750000Y-47550000D02*
X119750000Y-44900000D01*
X118530000Y-48770000D02*
X119750000Y-47550000D01*
X142540000Y-47620000D02*
X140000000Y-47620000D01*
X123610000Y-46230000D02*
X122280000Y-44900000D01*
X155240000Y-54720000D02*
X154460000Y-55500000D01*
X122280000Y-44900000D02*
X119750000Y-44900000D01*
X119750000Y-44900000D02*
X114780000Y-44900000D01*
X140000000Y-47620000D02*
X138850000Y-48770000D01*
X149010000Y-46230000D02*
X150160000Y-47380000D01*
X147805000Y-81376336D02*
X147431336Y-81750000D01*
X139250000Y-81750000D02*
X137000000Y-81750000D01*
X147400000Y-68234365D02*
X147400000Y-78100000D01*
X147400000Y-78100000D02*
X147805000Y-78505000D01*
X147805000Y-78505000D02*
X147805000Y-81376336D01*
X153240000Y-49620000D02*
X153240000Y-62394365D01*
X154090000Y-48770000D02*
X153240000Y-49620000D01*
X153240000Y-62394365D02*
X147400000Y-68234365D01*
X147431336Y-81750000D02*
X139250000Y-81750000D01*
X126500000Y-63000000D02*
X126500000Y-71000000D01*
X126500000Y-63000000D02*
X122460000Y-58960000D01*
X122460000Y-47620000D02*
X122460000Y-58960000D01*
X121070000Y-46230000D02*
X122460000Y-47620000D01*
X126500000Y-71000000D02*
X128500000Y-73000000D01*
X138000000Y-51500000D02*
X137750000Y-51500000D01*
X151920000Y-55500000D02*
X147920000Y-51500000D01*
X147920000Y-51500000D02*
X138000000Y-51500000D01*
X160000000Y-80500000D02*
X151500000Y-80500000D01*
X141700000Y-63252945D02*
X141700000Y-66200000D01*
X141760000Y-58040000D02*
X139123528Y-60676472D01*
X139123528Y-60676472D02*
X141700000Y-63252945D01*
X141700000Y-66200000D02*
X143500000Y-68000000D01*
X136310000Y-46230000D02*
X135160000Y-45080000D01*
X136000000Y-80500000D02*
X140050000Y-80500000D01*
X130175000Y-63675000D02*
X130000000Y-63500000D01*
X128170000Y-45080000D02*
X127500000Y-45750000D01*
X127500000Y-45750000D02*
X127500000Y-61000000D01*
X130175000Y-74250000D02*
X130175000Y-63675000D01*
X135160000Y-45080000D02*
X128170000Y-45080000D01*
X127500000Y-61000000D02*
X130000000Y-63500000D01*
X130250000Y-74250000D02*
X130175000Y-74250000D01*
X131000000Y-75000000D02*
X131000000Y-74550000D01*
X131000000Y-75000000D02*
X130250000Y-74250000D01*
X131000000Y-74550000D02*
X132550000Y-73000000D01*
X117250000Y-47510000D02*
X117250000Y-61000000D01*
X121500000Y-65250000D02*
X121500000Y-68500000D01*
X117250000Y-61000000D02*
X121500000Y-65250000D01*
X118530000Y-46230000D02*
X117250000Y-47510000D01*
X121500000Y-68500000D02*
X119500000Y-70500000D01*
X115990000Y-46230000D02*
X114750000Y-47470000D01*
X114750000Y-47470000D02*
X114750000Y-63250000D01*
X114750000Y-63250000D02*
X119500000Y-68000000D01*
X141300000Y-71000000D02*
X142150000Y-71850000D01*
X147000000Y-74748654D02*
X147000000Y-80500000D01*
X138850000Y-46230000D02*
X137460000Y-47620000D01*
X142500000Y-79250000D02*
X146500000Y-79250000D01*
X142225000Y-78975000D02*
X142500000Y-79250000D01*
X144101346Y-71850000D02*
X147000000Y-74748654D01*
X147000000Y-79750000D02*
X147000000Y-80500000D01*
X138850000Y-46150000D02*
X138850000Y-46230000D01*
X135000000Y-57118630D02*
X141300000Y-63418630D01*
X146500000Y-79250000D02*
X147000000Y-79750000D01*
X137460000Y-47620000D02*
X135833654Y-47620000D01*
X139500000Y-73000000D02*
X142225000Y-75725000D01*
X135833654Y-47620000D02*
X135000000Y-48453654D01*
X135000000Y-48453654D02*
X135000000Y-57118630D01*
X142150000Y-71850000D02*
X144101346Y-71850000D01*
X142225000Y-75725000D02*
X142225000Y-78975000D01*
X141300000Y-63418630D02*
X141300000Y-71000000D01*
D32*
X125500000Y-65750000D02*
X119250000Y-59500000D01*
X151500000Y-67500000D02*
X151500000Y-74250000D01*
X151500000Y-74250000D02*
X153000000Y-75750000D01*
X163000000Y-77250000D02*
X163000000Y-89000000D01*
X112750000Y-57000000D02*
X109500000Y-53750000D01*
X134500000Y-82250000D02*
X134500000Y-80500000D01*
X142750000Y-97500000D02*
X140050000Y-94800000D01*
X107000000Y-51500000D02*
X108000000Y-52500000D01*
X154500000Y-97500000D02*
X142750000Y-97500000D01*
X108000000Y-52500000D02*
X108755000Y-52500000D01*
X109500000Y-53245000D02*
X109500000Y-53750000D01*
X125250000Y-65500000D02*
X125500000Y-65750000D01*
X108370000Y-46230000D02*
X110910000Y-46230000D01*
X160750000Y-63000000D02*
X157750000Y-66000000D01*
X153000000Y-75750000D02*
X161500000Y-75750000D01*
X140050000Y-94800000D02*
X140050000Y-85500000D01*
X107000000Y-47600000D02*
X107000000Y-51500000D01*
X161500000Y-75750000D02*
X163000000Y-77250000D01*
X108755000Y-52500000D02*
X109500000Y-53245000D01*
X109500000Y-61000000D02*
X109500000Y-64950000D01*
X140050000Y-85500000D02*
X137750000Y-85500000D01*
X113500000Y-57000000D02*
X112750000Y-57000000D01*
X113500000Y-57000000D02*
X109500000Y-61000000D01*
X140750000Y-75500000D02*
X139500000Y-75500000D01*
X109500000Y-64950000D02*
X108450000Y-66000000D01*
X153000000Y-66000000D02*
X151500000Y-67500000D01*
X108370000Y-46230000D02*
X107000000Y-47600000D01*
X134500000Y-80500000D02*
X135500000Y-79500000D01*
X139500000Y-77000000D02*
X139500000Y-75500000D01*
X163000000Y-89000000D02*
X154500000Y-97500000D01*
X135500000Y-79500000D02*
X137000000Y-79500000D01*
X119250000Y-59500000D02*
X119250000Y-57000000D01*
X137750000Y-85500000D02*
X134500000Y-82250000D01*
X157750000Y-66000000D02*
X153000000Y-66000000D01*
X137000000Y-79500000D02*
X139500000Y-77000000D01*
D31*
X143000000Y-62000000D02*
X147000000Y-66000000D01*
X129775000Y-74225000D02*
X129775000Y-70023654D01*
X127898654Y-69350000D02*
X127000000Y-68451346D01*
X128500000Y-75500000D02*
X129775000Y-74225000D01*
X127000000Y-68451346D02*
X127000000Y-62500000D01*
X125000000Y-47380000D02*
X126150000Y-46230000D01*
X129775000Y-70023654D02*
X129101346Y-69350000D01*
X125000000Y-60500000D02*
X125000000Y-47380000D01*
X129101346Y-69350000D02*
X127898654Y-69350000D01*
X127000000Y-62500000D02*
X125000000Y-60500000D01*
X129840000Y-58340000D02*
X132250000Y-60750000D01*
X132250000Y-60750000D02*
X137500000Y-60750000D01*
X129840000Y-47380000D02*
X129840000Y-58340000D01*
X140500000Y-72500000D02*
X143500000Y-75500000D01*
X128690000Y-46230000D02*
X129840000Y-47380000D01*
X137500000Y-60750000D02*
X140500000Y-63750000D01*
X140500000Y-63750000D02*
X140500000Y-72500000D01*
X161750000Y-59770000D02*
X161750000Y-63060000D01*
X161750000Y-63060000D02*
X156310000Y-68500000D01*
X162556346Y-59190000D02*
X162330000Y-59190000D01*
X109225000Y-76500000D02*
X108475000Y-77250000D01*
X163230000Y-58516346D02*
X162556346Y-59190000D01*
X160000000Y-78000000D02*
X151500000Y-78000000D01*
X112250000Y-45750000D02*
X113500000Y-44500000D01*
X157750000Y-44500000D02*
X158500000Y-45250000D01*
X162330000Y-59190000D02*
X161750000Y-59770000D01*
X113500000Y-44500000D02*
X157750000Y-44500000D01*
X112250000Y-47570000D02*
X112250000Y-45750000D01*
X113450000Y-48770000D02*
X112250000Y-47570000D01*
X158500000Y-45250000D02*
X158500000Y-49750000D01*
X163230000Y-54480000D02*
X163230000Y-58516346D01*
X158500000Y-49750000D02*
X163230000Y-54480000D01*
X140900000Y-72250000D02*
X143000000Y-74350000D01*
X134500000Y-60350000D02*
X137665686Y-60350000D01*
X144101346Y-74350000D02*
X145000000Y-75248654D01*
X143000000Y-74350000D02*
X144101346Y-74350000D01*
X132620000Y-47380000D02*
X132620000Y-58470000D01*
X133770000Y-46230000D02*
X132620000Y-47380000D01*
X137665686Y-60350000D02*
X140900000Y-63584315D01*
X145000000Y-76500000D02*
X143500000Y-78000000D01*
X132620000Y-58470000D02*
X134500000Y-60350000D01*
X140900000Y-63584315D02*
X140900000Y-72250000D01*
X145000000Y-75248654D02*
X145000000Y-76500000D01*
X144750000Y-62000000D02*
X147000000Y-64250000D01*
D32*
X107000000Y-57920000D02*
X107000000Y-61500000D01*
X107000000Y-61500000D02*
X105800000Y-62700000D01*
X104000000Y-54920000D02*
X107000000Y-57920000D01*
X108000000Y-53950000D02*
X104970000Y-53950000D01*
X104970000Y-53950000D02*
X104000000Y-54920000D01*
X105800000Y-62700000D02*
X105800000Y-65850000D01*
X105800000Y-65850000D02*
X108450000Y-68500000D01*
X126000000Y-88250000D02*
X130750000Y-88250000D01*
X148690000Y-73000000D02*
X148690000Y-80190000D01*
X111000000Y-66500000D02*
X119500000Y-75000000D01*
X125250000Y-63500000D02*
X122000000Y-60250000D01*
X146950000Y-92200000D02*
X149000000Y-94250000D01*
X132545097Y-86454903D02*
X132545097Y-75500000D01*
X149450000Y-83000000D02*
X146950000Y-85500000D01*
X151500000Y-83000000D02*
X149450000Y-83000000D01*
X119500000Y-81750000D02*
X126000000Y-88250000D01*
X146950000Y-85500000D02*
X146950000Y-92200000D01*
X125500000Y-63500000D02*
X125250000Y-63500000D01*
X130750000Y-88250000D02*
X132545097Y-86454903D01*
X151500000Y-83000000D02*
X160000000Y-83000000D01*
X119500000Y-75500000D02*
X119500000Y-81750000D01*
X148690000Y-73000000D02*
X148690000Y-68500000D01*
X111000000Y-62500000D02*
X111000000Y-66500000D01*
X119500000Y-75000000D02*
X119500000Y-75500000D01*
X148690000Y-80190000D02*
X151500000Y-83000000D01*
D31*
X142236346Y-59190000D02*
X143000000Y-58426346D01*
X143000000Y-58426346D02*
X143000000Y-57250000D01*
X141012742Y-62000000D02*
X139881371Y-60868629D01*
X137500000Y-62000000D02*
X136250000Y-62000000D01*
X136250000Y-62000000D02*
X132500000Y-65750000D01*
X132550000Y-65800000D02*
X132550000Y-70500000D01*
X141560000Y-59190000D02*
X142236346Y-59190000D01*
X132500000Y-65750000D02*
X132550000Y-65800000D01*
X139881371Y-60868629D02*
X141560000Y-59190000D01*
X143000000Y-57250000D02*
X144300000Y-55950000D01*
X144300000Y-55950000D02*
X144300000Y-55500000D01*
X141750000Y-62000000D02*
X141012742Y-62000000D01*
X145500000Y-85500000D02*
X143500000Y-85500000D01*
X141500000Y-85500000D02*
X143500000Y-85500000D01*
X145550000Y-80500000D02*
X143500000Y-80500000D01*
X141500000Y-80500000D02*
X143500000Y-80500000D01*
D32*
X110500000Y-87000000D02*
X107460000Y-83960000D01*
X120000000Y-96000000D02*
X120000000Y-88500000D01*
X163750000Y-66250000D02*
X164500000Y-67000000D01*
X118500000Y-87000000D02*
X110500000Y-87000000D01*
X120000000Y-88500000D02*
X118500000Y-87000000D01*
X164500000Y-89500000D02*
X155250000Y-98750000D01*
X163750000Y-61700000D02*
X163750000Y-66250000D01*
X121750000Y-80500000D02*
X128500000Y-80500000D01*
X107460000Y-83960000D02*
X104000000Y-83960000D01*
X164500000Y-67000000D02*
X164500000Y-89500000D01*
X155250000Y-98750000D02*
X122750000Y-98750000D01*
X162550000Y-60500000D02*
X163750000Y-61700000D01*
X122750000Y-98750000D02*
X120000000Y-96000000D01*
D31*
X136000000Y-72500000D02*
X136000000Y-73000000D01*
X134000000Y-73000000D02*
X136000000Y-73000000D01*
X134000000Y-70500000D02*
X134000000Y-73000000D01*
X138050000Y-73000000D02*
X136000000Y-73000000D01*
X134000000Y-75500000D02*
X136000000Y-75500000D01*
X138050000Y-75500000D02*
X136000000Y-75500000D01*
X111775000Y-75050000D02*
X114500000Y-72325000D01*
X111475000Y-74750000D02*
X111775000Y-75050000D01*
X114500000Y-72325000D02*
X114500000Y-72190000D01*
X108475000Y-74750000D02*
X111475000Y-74750000D01*
G04 #@! TA.AperFunction,Conductor*
G36*
X113292206Y-44070185D02*
G01*
X113337961Y-44122989D01*
X113347905Y-44192147D01*
X113318880Y-44255703D01*
X113312848Y-44262181D01*
X112009541Y-45565487D01*
X112009539Y-45565489D01*
X111981044Y-45614845D01*
X111930476Y-45663060D01*
X111861869Y-45676282D01*
X111797005Y-45650314D01*
X111777804Y-45631509D01*
X111656410Y-45483590D01*
X111552638Y-45398427D01*
X111496450Y-45352315D01*
X111313954Y-45254768D01*
X111115934Y-45194700D01*
X111115932Y-45194699D01*
X111115934Y-45194699D01*
X110910000Y-45174417D01*
X110704067Y-45194699D01*
X110506043Y-45254769D01*
X110395898Y-45313643D01*
X110323550Y-45352315D01*
X110323548Y-45352316D01*
X110323547Y-45352317D01*
X110163589Y-45483589D01*
X110032315Y-45643549D01*
X110032311Y-45643555D01*
X109994683Y-45713953D01*
X109945721Y-45763797D01*
X109885325Y-45779500D01*
X109394675Y-45779500D01*
X109327636Y-45759815D01*
X109285317Y-45713953D01*
X109247688Y-45643555D01*
X109247684Y-45643549D01*
X109247682Y-45643547D01*
X109198129Y-45583165D01*
X109116410Y-45483589D01*
X108983447Y-45374471D01*
X108956450Y-45352315D01*
X108773954Y-45254768D01*
X108575934Y-45194700D01*
X108575932Y-45194699D01*
X108575934Y-45194699D01*
X108370000Y-45174417D01*
X108164067Y-45194699D01*
X107966043Y-45254769D01*
X107855898Y-45313643D01*
X107783550Y-45352315D01*
X107783548Y-45352316D01*
X107783547Y-45352317D01*
X107623589Y-45483589D01*
X107500143Y-45634011D01*
X107492315Y-45643550D01*
X107478063Y-45670213D01*
X107394769Y-45826043D01*
X107334699Y-46024067D01*
X107314417Y-46229999D01*
X107334699Y-46435932D01*
X107357873Y-46512327D01*
X107358496Y-46582194D01*
X107326893Y-46636002D01*
X106639513Y-47323383D01*
X106639509Y-47323389D01*
X106580201Y-47426112D01*
X106580200Y-47426117D01*
X106579836Y-47427476D01*
X106549500Y-47540691D01*
X106549500Y-51559309D01*
X106571780Y-51642457D01*
X106571779Y-51642457D01*
X106571780Y-51642459D01*
X106580200Y-51673885D01*
X106580199Y-51673885D01*
X106623616Y-51749083D01*
X106639511Y-51776614D01*
X106639513Y-51776616D01*
X107008181Y-52145284D01*
X107041666Y-52206607D01*
X107044500Y-52232965D01*
X107044500Y-53150000D01*
X107057276Y-53219500D01*
X107057935Y-53223085D01*
X107057936Y-53223087D01*
X107061230Y-53228028D01*
X107082038Y-53294727D01*
X107069776Y-53350608D01*
X107064851Y-53360834D01*
X107055206Y-53403093D01*
X107021097Y-53464072D01*
X106959435Y-53496929D01*
X106934315Y-53499500D01*
X105822006Y-53499500D01*
X105754967Y-53479815D01*
X105709212Y-53427011D01*
X105700389Y-53399691D01*
X105688868Y-53341770D01*
X105688867Y-53341769D01*
X105644552Y-53275447D01*
X105578230Y-53231132D01*
X105578229Y-53231131D01*
X105519752Y-53219500D01*
X105519748Y-53219500D01*
X102480252Y-53219500D01*
X102480247Y-53219500D01*
X102421770Y-53231131D01*
X102421769Y-53231132D01*
X102355447Y-53275447D01*
X102311132Y-53341769D01*
X102311131Y-53341770D01*
X102299500Y-53400247D01*
X102299500Y-56439752D01*
X102311131Y-56498229D01*
X102311132Y-56498230D01*
X102355447Y-56564552D01*
X102421769Y-56608867D01*
X102421770Y-56608868D01*
X102480247Y-56620499D01*
X102480250Y-56620500D01*
X102480252Y-56620500D01*
X105012035Y-56620500D01*
X105079074Y-56640185D01*
X105099716Y-56656819D01*
X106513181Y-58070284D01*
X106546666Y-58131607D01*
X106549500Y-58157965D01*
X106549500Y-61262035D01*
X106529815Y-61329074D01*
X106513181Y-61349716D01*
X105439513Y-62423383D01*
X105439509Y-62423389D01*
X105380201Y-62526112D01*
X105380197Y-62526120D01*
X105376469Y-62540040D01*
X105376468Y-62540047D01*
X105354637Y-62621522D01*
X105349500Y-62640692D01*
X105349500Y-65909308D01*
X105373712Y-65999672D01*
X105380200Y-66023885D01*
X105380200Y-66023886D01*
X105397889Y-66054523D01*
X105439511Y-66126614D01*
X105439513Y-66126616D01*
X107213181Y-67900284D01*
X107246666Y-67961607D01*
X107249500Y-67987965D01*
X107249500Y-69154269D01*
X107252353Y-69184699D01*
X107252353Y-69184701D01*
X107277990Y-69257964D01*
X107297207Y-69312882D01*
X107377850Y-69422150D01*
X107487118Y-69502793D01*
X107512330Y-69511615D01*
X107615299Y-69547646D01*
X107645730Y-69550500D01*
X107645734Y-69550500D01*
X109254270Y-69550500D01*
X109284699Y-69547646D01*
X109284701Y-69547646D01*
X109349946Y-69524815D01*
X109412882Y-69502793D01*
X109522150Y-69422150D01*
X109602793Y-69312882D01*
X109638484Y-69210883D01*
X109647646Y-69184701D01*
X109647646Y-69184699D01*
X109650500Y-69154269D01*
X109650500Y-67845730D01*
X109647646Y-67815300D01*
X109647646Y-67815298D01*
X109610220Y-67708343D01*
X109602793Y-67687118D01*
X109522150Y-67577850D01*
X109412882Y-67497207D01*
X109412880Y-67497206D01*
X109284700Y-67452353D01*
X109254270Y-67449500D01*
X109254266Y-67449500D01*
X108087965Y-67449500D01*
X108020926Y-67429815D01*
X108000284Y-67413181D01*
X107757775Y-67170672D01*
X107724290Y-67109349D01*
X107729274Y-67039657D01*
X107771146Y-66983724D01*
X107836610Y-66959307D01*
X107892907Y-66968429D01*
X107993580Y-67010130D01*
X108196530Y-67050499D01*
X108196534Y-67050500D01*
X108196535Y-67050500D01*
X108703466Y-67050500D01*
X108703467Y-67050499D01*
X108906420Y-67010130D01*
X109097598Y-66930941D01*
X109269655Y-66815977D01*
X109415977Y-66669655D01*
X109530941Y-66497598D01*
X109610130Y-66306420D01*
X109650500Y-66103465D01*
X109650500Y-65896535D01*
X109610130Y-65693580D01*
X109578392Y-65616959D01*
X109570924Y-65547493D01*
X109602199Y-65485014D01*
X109605213Y-65481888D01*
X109860489Y-65226614D01*
X109919799Y-65123887D01*
X109934490Y-65069059D01*
X109950500Y-65009309D01*
X109950500Y-61237965D01*
X109970185Y-61170926D01*
X109986819Y-61150284D01*
X113450284Y-57686819D01*
X113511607Y-57653334D01*
X113537965Y-57650500D01*
X113578985Y-57650500D01*
X113732365Y-57612696D01*
X113815246Y-57569196D01*
X113872240Y-57539283D01*
X113990483Y-57434530D01*
X114080220Y-57304523D01*
X114136237Y-57156818D01*
X114155278Y-57000000D01*
X114140267Y-56876368D01*
X114136237Y-56843181D01*
X114099949Y-56747499D01*
X114080220Y-56695477D01*
X113990483Y-56565470D01*
X113872240Y-56460717D01*
X113872238Y-56460716D01*
X113872237Y-56460715D01*
X113732365Y-56387303D01*
X113578986Y-56349500D01*
X113578985Y-56349500D01*
X113421015Y-56349500D01*
X113421014Y-56349500D01*
X113267634Y-56387303D01*
X113127761Y-56460715D01*
X113127759Y-56460717D01*
X113066692Y-56514817D01*
X113003459Y-56544538D01*
X112934195Y-56535354D01*
X112896785Y-56509682D01*
X109986819Y-53599716D01*
X109953334Y-53538393D01*
X109950500Y-53512035D01*
X109950500Y-53185693D01*
X109950500Y-53185691D01*
X109919799Y-53071114D01*
X109919799Y-53071113D01*
X109860489Y-52968386D01*
X109031614Y-52139511D01*
X109030689Y-52138977D01*
X109017499Y-52131361D01*
X108969284Y-52080794D01*
X108955500Y-52023975D01*
X108955500Y-51999997D01*
X108955499Y-51999995D01*
X108950348Y-51954271D01*
X108910666Y-51871873D01*
X108839163Y-51814851D01*
X108750004Y-51794500D01*
X108750000Y-51794500D01*
X107982965Y-51794500D01*
X107915926Y-51774815D01*
X107895284Y-51758181D01*
X107486819Y-51349716D01*
X107453334Y-51288393D01*
X107450500Y-51262035D01*
X107450500Y-49944500D01*
X107470185Y-49877461D01*
X107522989Y-49831706D01*
X107574500Y-49820500D01*
X109239750Y-49820500D01*
X109239751Y-49820499D01*
X109254568Y-49817552D01*
X109298229Y-49808868D01*
X109298229Y-49808867D01*
X109298231Y-49808867D01*
X109364552Y-49764552D01*
X109408867Y-49698231D01*
X109408867Y-49698229D01*
X109408868Y-49698229D01*
X109418922Y-49647682D01*
X109420500Y-49639748D01*
X109420500Y-48770000D01*
X109854417Y-48770000D01*
X109874699Y-48975932D01*
X109903362Y-49070420D01*
X109934768Y-49173954D01*
X110032315Y-49356450D01*
X110060499Y-49390793D01*
X110163589Y-49516410D01*
X110241609Y-49580438D01*
X110323550Y-49647685D01*
X110506046Y-49745232D01*
X110704066Y-49805300D01*
X110704065Y-49805300D01*
X110722529Y-49807118D01*
X110910000Y-49825583D01*
X111115934Y-49805300D01*
X111313954Y-49745232D01*
X111496450Y-49647685D01*
X111656410Y-49516410D01*
X111787685Y-49356450D01*
X111885232Y-49173954D01*
X111945300Y-48975934D01*
X111965583Y-48770000D01*
X111945300Y-48564066D01*
X111885232Y-48366046D01*
X111787685Y-48183550D01*
X111686336Y-48060055D01*
X111656410Y-48023589D01*
X111530794Y-47920500D01*
X111496450Y-47892315D01*
X111326554Y-47801502D01*
X111313956Y-47794769D01*
X111313955Y-47794768D01*
X111313954Y-47794768D01*
X111115934Y-47734700D01*
X111115932Y-47734699D01*
X111115934Y-47734699D01*
X110910000Y-47714417D01*
X110704067Y-47734699D01*
X110569736Y-47775448D01*
X110506050Y-47794767D01*
X110506043Y-47794769D01*
X110410167Y-47846017D01*
X110323550Y-47892315D01*
X110323548Y-47892316D01*
X110323547Y-47892317D01*
X110163589Y-48023589D01*
X110044184Y-48169087D01*
X110032315Y-48183550D01*
X110019308Y-48207884D01*
X109934769Y-48366043D01*
X109874699Y-48564067D01*
X109854417Y-48770000D01*
X109420500Y-48770000D01*
X109420500Y-47900252D01*
X109420500Y-47900249D01*
X109420499Y-47900247D01*
X109408868Y-47841770D01*
X109408867Y-47841769D01*
X109364552Y-47775447D01*
X109298230Y-47731132D01*
X109298229Y-47731131D01*
X109239752Y-47719500D01*
X109239748Y-47719500D01*
X107816965Y-47719500D01*
X107749926Y-47699815D01*
X107704171Y-47647011D01*
X107694227Y-47577853D01*
X107723252Y-47514297D01*
X107729284Y-47507819D01*
X107843099Y-47394004D01*
X107963998Y-47273104D01*
X108025319Y-47239621D01*
X108087671Y-47242125D01*
X108164066Y-47265300D01*
X108164065Y-47265300D01*
X108182529Y-47267118D01*
X108370000Y-47285583D01*
X108575934Y-47265300D01*
X108773954Y-47205232D01*
X108956450Y-47107685D01*
X109116410Y-46976410D01*
X109247685Y-46816450D01*
X109259511Y-46794326D01*
X109285317Y-46746047D01*
X109334279Y-46696203D01*
X109394675Y-46680500D01*
X109885325Y-46680500D01*
X109952364Y-46700185D01*
X109994683Y-46746047D01*
X110032311Y-46816444D01*
X110032315Y-46816450D01*
X110163589Y-46976410D01*
X110223165Y-47025302D01*
X110323550Y-47107685D01*
X110506046Y-47205232D01*
X110704066Y-47265300D01*
X110704065Y-47265300D01*
X110722529Y-47267118D01*
X110910000Y-47285583D01*
X111115934Y-47265300D01*
X111313954Y-47205232D01*
X111496450Y-47107685D01*
X111656410Y-46976410D01*
X111729646Y-46887170D01*
X111787392Y-46847836D01*
X111857236Y-46845965D01*
X111917005Y-46882152D01*
X111947721Y-46944908D01*
X111949500Y-46965835D01*
X111949500Y-47609562D01*
X111956415Y-47635369D01*
X111969979Y-47685991D01*
X111969981Y-47685994D01*
X112006944Y-47750014D01*
X112006946Y-47750023D01*
X112006949Y-47750022D01*
X112009540Y-47754511D01*
X112460701Y-48205672D01*
X112494186Y-48266995D01*
X112489202Y-48336687D01*
X112482381Y-48351800D01*
X112474770Y-48366039D01*
X112414699Y-48564067D01*
X112394417Y-48770000D01*
X112414699Y-48975932D01*
X112443362Y-49070420D01*
X112474768Y-49173954D01*
X112572315Y-49356450D01*
X112600499Y-49390793D01*
X112703589Y-49516410D01*
X112781609Y-49580438D01*
X112863550Y-49647685D01*
X113046046Y-49745232D01*
X113244066Y-49805300D01*
X113244065Y-49805300D01*
X113262529Y-49807118D01*
X113450000Y-49825583D01*
X113655934Y-49805300D01*
X113853954Y-49745232D01*
X114036450Y-49647685D01*
X114196410Y-49516410D01*
X114196413Y-49516407D01*
X114229646Y-49475912D01*
X114287391Y-49436576D01*
X114357235Y-49434705D01*
X114417004Y-49470891D01*
X114447721Y-49533647D01*
X114449500Y-49554575D01*
X114449500Y-63289562D01*
X114459741Y-63327780D01*
X114469979Y-63365990D01*
X114469980Y-63365991D01*
X114489502Y-63399804D01*
X114489503Y-63399805D01*
X114509539Y-63434510D01*
X118425522Y-67350493D01*
X118459007Y-67411816D01*
X118454023Y-67481508D01*
X118446264Y-67496676D01*
X118446929Y-67497032D01*
X118444059Y-67502400D01*
X118364870Y-67693579D01*
X118364868Y-67693587D01*
X118324500Y-67896530D01*
X118324500Y-68103469D01*
X118364868Y-68306412D01*
X118364870Y-68306420D01*
X118444058Y-68497596D01*
X118559024Y-68669657D01*
X118705342Y-68815975D01*
X118705345Y-68815977D01*
X118877402Y-68930941D01*
X119068580Y-69010130D01*
X119266508Y-69049500D01*
X119271530Y-69050499D01*
X119271534Y-69050500D01*
X119271535Y-69050500D01*
X119728466Y-69050500D01*
X119728467Y-69050499D01*
X119931420Y-69010130D01*
X120122598Y-68930941D01*
X120294655Y-68815977D01*
X120440977Y-68669655D01*
X120555941Y-68497598D01*
X120635130Y-68306420D01*
X120675500Y-68103465D01*
X120675500Y-67896535D01*
X120635130Y-67693580D01*
X120555941Y-67502402D01*
X120440977Y-67330345D01*
X120440975Y-67330342D01*
X120294657Y-67184024D01*
X120122596Y-67069057D01*
X120012009Y-67023251D01*
X119957606Y-66979410D01*
X119935541Y-66913116D01*
X119952820Y-66845416D01*
X120003958Y-66797806D01*
X120021144Y-66790759D01*
X120143217Y-66751095D01*
X120332557Y-66654620D01*
X120504459Y-66529727D01*
X120504464Y-66529723D01*
X120654723Y-66379464D01*
X120654727Y-66379459D01*
X120779620Y-66207557D01*
X120876095Y-66018217D01*
X120941757Y-65816130D01*
X120941757Y-65816127D01*
X120953027Y-65744977D01*
X120982956Y-65681842D01*
X121042268Y-65644911D01*
X121112130Y-65645909D01*
X121170363Y-65684519D01*
X121198477Y-65748482D01*
X121199500Y-65764375D01*
X121199500Y-68324166D01*
X121179815Y-68391205D01*
X121163181Y-68411847D01*
X120098715Y-69476312D01*
X120037392Y-69509797D01*
X119967700Y-69504813D01*
X119963600Y-69503199D01*
X119931420Y-69489870D01*
X119931412Y-69489868D01*
X119728469Y-69449500D01*
X119728465Y-69449500D01*
X119271535Y-69449500D01*
X119271530Y-69449500D01*
X119068587Y-69489868D01*
X119068579Y-69489870D01*
X118877403Y-69569058D01*
X118705342Y-69684024D01*
X118559024Y-69830342D01*
X118444058Y-70002403D01*
X118364870Y-70193579D01*
X118364868Y-70193587D01*
X118324500Y-70396530D01*
X118324500Y-70603469D01*
X118364868Y-70806412D01*
X118364870Y-70806420D01*
X118444058Y-70997596D01*
X118559024Y-71169657D01*
X118705342Y-71315975D01*
X118705345Y-71315977D01*
X118877402Y-71430941D01*
X119068580Y-71510130D01*
X119174105Y-71531120D01*
X119271530Y-71550499D01*
X119271534Y-71550500D01*
X119271535Y-71550500D01*
X119728466Y-71550500D01*
X119728467Y-71550499D01*
X119931420Y-71510130D01*
X120122598Y-71430941D01*
X120294655Y-71315977D01*
X120440977Y-71169655D01*
X120555941Y-70997598D01*
X120635130Y-70806420D01*
X120675500Y-70603465D01*
X120675500Y-70396535D01*
X120635130Y-70193580D01*
X120555943Y-70002407D01*
X120555941Y-70002401D01*
X120553072Y-69997035D01*
X120555497Y-69995738D01*
X120538177Y-69940328D01*
X120556693Y-69872956D01*
X120574472Y-69850497D01*
X121740460Y-68684511D01*
X121754127Y-68660839D01*
X121768550Y-68635858D01*
X121773204Y-68627795D01*
X121780021Y-68615989D01*
X121800500Y-68539562D01*
X121800500Y-65210438D01*
X121795318Y-65191100D01*
X121793422Y-65184022D01*
X121780022Y-65134013D01*
X121780022Y-65134012D01*
X121740460Y-65065489D01*
X117586819Y-60911848D01*
X117553334Y-60850525D01*
X117550500Y-60824167D01*
X117550500Y-49970393D01*
X117570185Y-49903354D01*
X117622989Y-49857599D01*
X117692147Y-49847655D01*
X117745624Y-49868819D01*
X117852414Y-49943596D01*
X117852420Y-49943599D01*
X118066507Y-50043429D01*
X118066516Y-50043433D01*
X118280000Y-50100634D01*
X118280000Y-49203012D01*
X118337007Y-49235925D01*
X118464174Y-49270000D01*
X118595826Y-49270000D01*
X118722993Y-49235925D01*
X118780000Y-49203012D01*
X118780000Y-50100634D01*
X118993483Y-50043433D01*
X118993492Y-50043429D01*
X119207578Y-49943600D01*
X119401082Y-49808105D01*
X119568105Y-49641082D01*
X119703600Y-49447578D01*
X119803429Y-49233492D01*
X119803433Y-49233483D01*
X119836158Y-49111350D01*
X119872522Y-49051690D01*
X119935369Y-49021160D01*
X120004745Y-49029454D01*
X120058623Y-49073939D01*
X120074593Y-49107447D01*
X120094768Y-49173954D01*
X120192315Y-49356450D01*
X120220499Y-49390793D01*
X120323589Y-49516410D01*
X120401609Y-49580438D01*
X120483550Y-49647685D01*
X120666046Y-49745232D01*
X120864066Y-49805300D01*
X120864065Y-49805300D01*
X120882529Y-49807118D01*
X121070000Y-49825583D01*
X121275934Y-49805300D01*
X121473954Y-49745232D01*
X121656450Y-49647685D01*
X121816410Y-49516410D01*
X121939647Y-49366244D01*
X121997392Y-49326910D01*
X122067236Y-49325039D01*
X122127005Y-49361226D01*
X122157721Y-49423982D01*
X122159500Y-49444909D01*
X122159500Y-58999562D01*
X122163699Y-59015232D01*
X122179978Y-59075986D01*
X122179980Y-59075992D01*
X122182412Y-59080203D01*
X122182413Y-59080206D01*
X122219535Y-59144504D01*
X122219541Y-59144512D01*
X125723028Y-62647999D01*
X125756513Y-62709322D01*
X125751529Y-62779014D01*
X125709657Y-62834947D01*
X125644193Y-62859364D01*
X125605675Y-62856077D01*
X125578990Y-62849500D01*
X125578985Y-62849500D01*
X125421015Y-62849500D01*
X125421012Y-62849500D01*
X125340969Y-62869228D01*
X125271167Y-62866158D01*
X125223615Y-62836512D01*
X122688047Y-60300944D01*
X122654562Y-60239621D01*
X122652632Y-60228209D01*
X122651840Y-60221684D01*
X122636237Y-60093182D01*
X122580220Y-59945477D01*
X122490483Y-59815470D01*
X122372240Y-59710717D01*
X122372238Y-59710716D01*
X122372237Y-59710715D01*
X122232365Y-59637303D01*
X122078986Y-59599500D01*
X122078985Y-59599500D01*
X121921015Y-59599500D01*
X121921014Y-59599500D01*
X121767634Y-59637303D01*
X121627762Y-59710715D01*
X121509516Y-59815471D01*
X121419781Y-59945475D01*
X121419780Y-59945476D01*
X121363762Y-60093181D01*
X121344722Y-60249999D01*
X121344722Y-60250000D01*
X121363762Y-60406818D01*
X121401947Y-60507502D01*
X121419780Y-60554523D01*
X121509517Y-60684530D01*
X121627760Y-60789283D01*
X121627762Y-60789284D01*
X121767634Y-60862696D01*
X121921014Y-60900500D01*
X121921015Y-60900500D01*
X121962035Y-60900500D01*
X122029074Y-60920185D01*
X122049716Y-60936819D01*
X124917069Y-63804172D01*
X124931437Y-63821412D01*
X125009517Y-63934530D01*
X125127760Y-64039283D01*
X125127762Y-64039284D01*
X125267634Y-64112696D01*
X125421014Y-64150500D01*
X125421015Y-64150500D01*
X125578985Y-64150500D01*
X125732365Y-64112696D01*
X125826558Y-64063259D01*
X125872240Y-64039283D01*
X125990483Y-63934530D01*
X125990483Y-63934529D01*
X125993273Y-63932058D01*
X126056506Y-63902336D01*
X126125770Y-63911520D01*
X126179073Y-63956692D01*
X126199493Y-64023511D01*
X126199500Y-64024873D01*
X126199500Y-65225126D01*
X126179815Y-65292165D01*
X126127011Y-65337920D01*
X126057853Y-65347864D01*
X125994297Y-65318839D01*
X125993273Y-65317942D01*
X125990483Y-65315470D01*
X125872240Y-65210717D01*
X125872238Y-65210716D01*
X125872237Y-65210715D01*
X125732365Y-65137303D01*
X125578986Y-65099500D01*
X125578985Y-65099500D01*
X125537966Y-65099500D01*
X125470927Y-65079815D01*
X125450285Y-65063181D01*
X119736819Y-59349715D01*
X119703334Y-59288392D01*
X119700500Y-59262034D01*
X119700500Y-57525759D01*
X119720185Y-57458720D01*
X119735846Y-57440444D01*
X119735509Y-57440145D01*
X119740481Y-57434532D01*
X119740481Y-57434531D01*
X119740483Y-57434530D01*
X119830220Y-57304523D01*
X119886237Y-57156818D01*
X119905278Y-57000000D01*
X119890267Y-56876368D01*
X119886237Y-56843181D01*
X119849949Y-56747499D01*
X119830220Y-56695477D01*
X119740483Y-56565470D01*
X119622240Y-56460717D01*
X119622238Y-56460716D01*
X119622237Y-56460715D01*
X119482365Y-56387303D01*
X119328986Y-56349500D01*
X119328985Y-56349500D01*
X119171015Y-56349500D01*
X119171014Y-56349500D01*
X119017634Y-56387303D01*
X118877762Y-56460715D01*
X118877760Y-56460717D01*
X118782469Y-56545137D01*
X118759516Y-56565471D01*
X118669781Y-56695475D01*
X118669780Y-56695476D01*
X118613762Y-56843181D01*
X118594722Y-56999999D01*
X118594722Y-57000000D01*
X118613762Y-57156818D01*
X118657966Y-57273373D01*
X118669780Y-57304523D01*
X118700233Y-57348642D01*
X118759518Y-57434532D01*
X118764491Y-57440145D01*
X118763044Y-57441426D01*
X118794850Y-57492120D01*
X118799500Y-57525759D01*
X118799500Y-59559309D01*
X118806515Y-59585489D01*
X118820399Y-59637305D01*
X118830199Y-59673885D01*
X118851464Y-59710715D01*
X118889511Y-59776614D01*
X118889513Y-59776616D01*
X124811952Y-65699056D01*
X124845437Y-65760379D01*
X124847367Y-65771790D01*
X124863763Y-65906819D01*
X124913663Y-66038393D01*
X124919780Y-66054523D01*
X125009517Y-66184530D01*
X125127760Y-66289283D01*
X125127762Y-66289284D01*
X125267634Y-66362696D01*
X125421014Y-66400500D01*
X125421015Y-66400500D01*
X125578985Y-66400500D01*
X125732365Y-66362696D01*
X125872238Y-66289284D01*
X125872237Y-66289284D01*
X125872240Y-66289283D01*
X125990483Y-66184530D01*
X125990483Y-66184529D01*
X125993273Y-66182058D01*
X126056506Y-66152336D01*
X126125770Y-66161520D01*
X126179073Y-66206692D01*
X126199493Y-66273511D01*
X126199500Y-66274873D01*
X126199500Y-71039562D01*
X126209448Y-71076689D01*
X126219978Y-71115987D01*
X126239351Y-71149542D01*
X126259539Y-71184509D01*
X126259541Y-71184512D01*
X127425522Y-72350493D01*
X127459007Y-72411816D01*
X127454023Y-72481508D01*
X127446264Y-72496676D01*
X127446929Y-72497032D01*
X127444059Y-72502400D01*
X127364870Y-72693579D01*
X127364868Y-72693587D01*
X127324500Y-72896530D01*
X127324500Y-73103469D01*
X127364868Y-73306412D01*
X127364870Y-73306420D01*
X127444058Y-73497596D01*
X127559024Y-73669657D01*
X127705342Y-73815975D01*
X127705345Y-73815977D01*
X127877402Y-73930941D01*
X128068580Y-74010130D01*
X128266508Y-74049500D01*
X128271530Y-74050499D01*
X128271534Y-74050500D01*
X128271535Y-74050500D01*
X128728466Y-74050500D01*
X128728467Y-74050499D01*
X128931420Y-74010130D01*
X129122598Y-73930941D01*
X129122599Y-73930940D01*
X129122600Y-73930940D01*
X129281610Y-73824694D01*
X129348287Y-73803816D01*
X129415667Y-73822301D01*
X129462357Y-73874280D01*
X129474500Y-73927796D01*
X129474500Y-74049166D01*
X129454815Y-74116205D01*
X129438181Y-74136847D01*
X129098715Y-74476312D01*
X129037392Y-74509797D01*
X128967700Y-74504813D01*
X128963600Y-74503199D01*
X128931420Y-74489870D01*
X128931412Y-74489868D01*
X128728469Y-74449500D01*
X128728465Y-74449500D01*
X128271535Y-74449500D01*
X128271530Y-74449500D01*
X128068587Y-74489868D01*
X128068579Y-74489870D01*
X127877403Y-74569058D01*
X127705342Y-74684024D01*
X127559024Y-74830342D01*
X127444058Y-75002403D01*
X127364870Y-75193579D01*
X127364868Y-75193587D01*
X127324500Y-75396530D01*
X127324500Y-75603469D01*
X127364868Y-75806412D01*
X127364870Y-75806420D01*
X127444058Y-75997596D01*
X127559024Y-76169657D01*
X127705342Y-76315975D01*
X127705345Y-76315977D01*
X127877402Y-76430941D01*
X128068580Y-76510130D01*
X128216536Y-76539560D01*
X128271530Y-76550499D01*
X128271534Y-76550500D01*
X128271535Y-76550500D01*
X128728466Y-76550500D01*
X128728467Y-76550499D01*
X128931420Y-76510130D01*
X129122598Y-76430941D01*
X129294655Y-76315977D01*
X129440977Y-76169655D01*
X129555941Y-75997598D01*
X129635130Y-75806420D01*
X129675500Y-75603465D01*
X129675500Y-75396535D01*
X129635130Y-75193580D01*
X129575450Y-75049500D01*
X129555941Y-75002401D01*
X129553072Y-74997035D01*
X129555497Y-74995738D01*
X129538177Y-74940328D01*
X129556693Y-74872956D01*
X129574472Y-74850497D01*
X129887721Y-74537248D01*
X129949043Y-74503765D01*
X130018735Y-74508749D01*
X130037401Y-74517544D01*
X130059011Y-74530021D01*
X130089807Y-74538272D01*
X130145395Y-74570366D01*
X130326965Y-74751936D01*
X130360450Y-74813259D01*
X130362380Y-74854563D01*
X130344722Y-74999999D01*
X130344722Y-75000000D01*
X130363762Y-75156818D01*
X130412118Y-75284319D01*
X130419780Y-75304523D01*
X130509517Y-75434530D01*
X130627760Y-75539283D01*
X130627762Y-75539284D01*
X130767634Y-75612696D01*
X130921014Y-75650500D01*
X130921015Y-75650500D01*
X131078985Y-75650500D01*
X131232365Y-75612696D01*
X131249953Y-75603465D01*
X131372240Y-75539283D01*
X131490483Y-75434530D01*
X131580220Y-75304523D01*
X131604558Y-75240347D01*
X131646736Y-75184645D01*
X131712333Y-75160588D01*
X131780524Y-75175815D01*
X131829657Y-75225491D01*
X131844500Y-75284319D01*
X131844500Y-76250004D01*
X131849651Y-76295728D01*
X131889333Y-76378126D01*
X131889334Y-76378127D01*
X131960837Y-76435149D01*
X131998190Y-76443674D01*
X132059167Y-76477782D01*
X132092026Y-76539443D01*
X132094597Y-76564565D01*
X132094597Y-86216938D01*
X132074912Y-86283977D01*
X132058278Y-86304619D01*
X130599716Y-87763181D01*
X130538393Y-87796666D01*
X130512035Y-87799500D01*
X126237965Y-87799500D01*
X126170926Y-87779815D01*
X126150284Y-87763181D01*
X123990572Y-85603469D01*
X127324500Y-85603469D01*
X127364868Y-85806412D01*
X127364870Y-85806420D01*
X127444058Y-85997596D01*
X127559024Y-86169657D01*
X127705342Y-86315975D01*
X127705345Y-86315977D01*
X127877402Y-86430941D01*
X128068580Y-86510130D01*
X128221573Y-86540562D01*
X128271530Y-86550499D01*
X128271534Y-86550500D01*
X128271535Y-86550500D01*
X128728466Y-86550500D01*
X128728467Y-86550499D01*
X128931420Y-86510130D01*
X129122598Y-86430941D01*
X129294655Y-86315977D01*
X129440977Y-86169655D01*
X129555941Y-85997598D01*
X129635130Y-85806420D01*
X129675500Y-85603465D01*
X129675500Y-85396535D01*
X129635130Y-85193580D01*
X129555941Y-85002402D01*
X129440977Y-84830345D01*
X129440975Y-84830342D01*
X129294657Y-84684024D01*
X129152940Y-84589333D01*
X129122598Y-84569059D01*
X129122593Y-84569057D01*
X128931420Y-84489870D01*
X128931412Y-84489868D01*
X128728469Y-84449500D01*
X128728465Y-84449500D01*
X128271535Y-84449500D01*
X128271530Y-84449500D01*
X128068587Y-84489868D01*
X128068579Y-84489870D01*
X127877403Y-84569058D01*
X127705342Y-84684024D01*
X127559024Y-84830342D01*
X127444058Y-85002403D01*
X127364870Y-85193579D01*
X127364868Y-85193587D01*
X127324500Y-85396530D01*
X127324500Y-85603469D01*
X123990572Y-85603469D01*
X121490572Y-83103469D01*
X127324500Y-83103469D01*
X127364868Y-83306412D01*
X127364870Y-83306420D01*
X127434698Y-83475000D01*
X127444059Y-83497598D01*
X127468190Y-83533713D01*
X127559024Y-83669657D01*
X127705342Y-83815975D01*
X127705345Y-83815977D01*
X127877402Y-83930941D01*
X128068580Y-84010130D01*
X128271530Y-84050499D01*
X128271534Y-84050500D01*
X128271535Y-84050500D01*
X128728466Y-84050500D01*
X128728467Y-84050499D01*
X128931420Y-84010130D01*
X129122598Y-83930941D01*
X129294655Y-83815977D01*
X129440977Y-83669655D01*
X129555941Y-83497598D01*
X129635130Y-83306420D01*
X129675500Y-83103465D01*
X129675500Y-82896535D01*
X129635130Y-82693580D01*
X129555941Y-82502402D01*
X129440977Y-82330345D01*
X129440976Y-82330344D01*
X129440975Y-82330342D01*
X129294657Y-82184024D01*
X129208626Y-82126541D01*
X129122598Y-82069059D01*
X129112388Y-82064830D01*
X128931420Y-81989870D01*
X128931412Y-81989868D01*
X128728469Y-81949500D01*
X128728465Y-81949500D01*
X128271535Y-81949500D01*
X128271530Y-81949500D01*
X128068587Y-81989868D01*
X128068579Y-81989870D01*
X127877403Y-82069058D01*
X127705342Y-82184024D01*
X127559024Y-82330342D01*
X127444058Y-82502403D01*
X127364870Y-82693579D01*
X127364868Y-82693587D01*
X127324500Y-82896530D01*
X127324500Y-83103469D01*
X121490572Y-83103469D01*
X119986819Y-81599716D01*
X119953334Y-81538393D01*
X119950500Y-81512035D01*
X119950500Y-80500000D01*
X121094722Y-80500000D01*
X121113762Y-80656818D01*
X121158764Y-80775477D01*
X121169780Y-80804523D01*
X121259517Y-80934530D01*
X121377760Y-81039283D01*
X121377762Y-81039284D01*
X121517634Y-81112696D01*
X121671014Y-81150500D01*
X121671015Y-81150500D01*
X121828985Y-81150500D01*
X121982365Y-81112696D01*
X122122240Y-81039283D01*
X122187256Y-80981683D01*
X122250490Y-80951963D01*
X122269483Y-80950500D01*
X127346309Y-80950500D01*
X127413348Y-80970185D01*
X127449411Y-81005609D01*
X127559022Y-81169655D01*
X127705342Y-81315975D01*
X127705345Y-81315977D01*
X127877402Y-81430941D01*
X128068580Y-81510130D01*
X128210669Y-81538393D01*
X128271530Y-81550499D01*
X128271534Y-81550500D01*
X128271535Y-81550500D01*
X128728466Y-81550500D01*
X128728467Y-81550499D01*
X128931420Y-81510130D01*
X129122598Y-81430941D01*
X129294655Y-81315977D01*
X129440977Y-81169655D01*
X129555941Y-80997598D01*
X129635130Y-80806420D01*
X129675500Y-80603465D01*
X129675500Y-80396535D01*
X129635130Y-80193580D01*
X129555941Y-80002402D01*
X129440977Y-79830345D01*
X129440976Y-79830344D01*
X129440975Y-79830342D01*
X129294657Y-79684024D01*
X129208626Y-79626541D01*
X129122598Y-79569059D01*
X129102666Y-79560803D01*
X128931420Y-79489870D01*
X128931412Y-79489868D01*
X128728469Y-79449500D01*
X128728465Y-79449500D01*
X128271535Y-79449500D01*
X128271530Y-79449500D01*
X128068587Y-79489868D01*
X128068579Y-79489870D01*
X127877403Y-79569058D01*
X127705342Y-79684024D01*
X127559022Y-79830344D01*
X127449411Y-79994391D01*
X127395799Y-80039196D01*
X127346309Y-80049500D01*
X122269483Y-80049500D01*
X122202444Y-80029815D01*
X122187256Y-80018316D01*
X122175359Y-80007776D01*
X122122240Y-79960717D01*
X122122238Y-79960716D01*
X122122237Y-79960715D01*
X121982365Y-79887303D01*
X121828986Y-79849500D01*
X121828985Y-79849500D01*
X121671015Y-79849500D01*
X121671014Y-79849500D01*
X121517634Y-79887303D01*
X121377762Y-79960715D01*
X121377760Y-79960717D01*
X121263404Y-80062027D01*
X121259516Y-80065471D01*
X121169781Y-80195475D01*
X121169780Y-80195476D01*
X121113762Y-80343181D01*
X121094722Y-80499999D01*
X121094722Y-80500000D01*
X119950500Y-80500000D01*
X119950500Y-78103469D01*
X127324500Y-78103469D01*
X127364868Y-78306412D01*
X127364870Y-78306420D01*
X127444058Y-78497596D01*
X127559024Y-78669657D01*
X127705342Y-78815975D01*
X127705345Y-78815977D01*
X127877402Y-78930941D01*
X128068580Y-79010130D01*
X128266508Y-79049500D01*
X128271530Y-79050499D01*
X128271534Y-79050500D01*
X128271535Y-79050500D01*
X128728466Y-79050500D01*
X128728467Y-79050499D01*
X128931420Y-79010130D01*
X129122598Y-78930941D01*
X129294655Y-78815977D01*
X129440977Y-78669655D01*
X129555941Y-78497598D01*
X129635130Y-78306420D01*
X129675500Y-78103465D01*
X129675500Y-77896535D01*
X129635130Y-77693580D01*
X129555941Y-77502402D01*
X129440977Y-77330345D01*
X129440975Y-77330342D01*
X129294657Y-77184024D01*
X129199638Y-77120535D01*
X129122598Y-77069059D01*
X128931420Y-76989870D01*
X128931412Y-76989868D01*
X128728469Y-76949500D01*
X128728465Y-76949500D01*
X128271535Y-76949500D01*
X128271530Y-76949500D01*
X128068587Y-76989868D01*
X128068579Y-76989870D01*
X127877403Y-77069058D01*
X127705342Y-77184024D01*
X127559024Y-77330342D01*
X127444058Y-77502403D01*
X127364870Y-77693579D01*
X127364868Y-77693587D01*
X127324500Y-77896530D01*
X127324500Y-78103469D01*
X119950500Y-78103469D01*
X119950500Y-76674500D01*
X119970185Y-76607461D01*
X120022989Y-76561706D01*
X120074500Y-76550500D01*
X120279270Y-76550500D01*
X120309699Y-76547646D01*
X120309701Y-76547646D01*
X120373790Y-76525219D01*
X120437882Y-76502793D01*
X120547150Y-76422150D01*
X120627793Y-76312882D01*
X120650774Y-76247206D01*
X120672646Y-76184701D01*
X120672646Y-76184699D01*
X120675500Y-76154269D01*
X120675500Y-74845730D01*
X120672646Y-74815300D01*
X120672646Y-74815298D01*
X120627793Y-74687119D01*
X120627792Y-74687117D01*
X120547150Y-74577850D01*
X120437882Y-74497207D01*
X120437880Y-74497206D01*
X120309700Y-74452353D01*
X120279270Y-74449500D01*
X120279266Y-74449500D01*
X119637965Y-74449500D01*
X119570926Y-74429815D01*
X119550284Y-74413181D01*
X119399284Y-74262181D01*
X119365799Y-74200858D01*
X119370783Y-74131166D01*
X119412655Y-74075233D01*
X119478119Y-74050816D01*
X119486965Y-74050500D01*
X119728466Y-74050500D01*
X119728467Y-74050499D01*
X119931420Y-74010130D01*
X120122598Y-73930941D01*
X120294655Y-73815977D01*
X120440977Y-73669655D01*
X120555941Y-73497598D01*
X120635130Y-73306420D01*
X120675500Y-73103465D01*
X120675500Y-72896535D01*
X120635130Y-72693580D01*
X120555941Y-72502402D01*
X120440977Y-72330345D01*
X120440975Y-72330342D01*
X120294657Y-72184024D01*
X120178396Y-72106342D01*
X120122598Y-72069059D01*
X120095742Y-72057935D01*
X119931420Y-71989870D01*
X119931412Y-71989868D01*
X119728469Y-71949500D01*
X119728465Y-71949500D01*
X119271535Y-71949500D01*
X119271530Y-71949500D01*
X119068587Y-71989868D01*
X119068579Y-71989870D01*
X118877403Y-72069058D01*
X118705342Y-72184024D01*
X118559024Y-72330342D01*
X118444058Y-72502403D01*
X118364870Y-72693579D01*
X118364868Y-72693587D01*
X118324499Y-72896535D01*
X118324117Y-72900415D01*
X118323349Y-72902313D01*
X118323311Y-72902510D01*
X118323273Y-72902502D01*
X118297950Y-72965200D01*
X118240912Y-73005554D01*
X118171112Y-73008665D01*
X118113034Y-72975931D01*
X111486819Y-66349716D01*
X111453334Y-66288393D01*
X111450500Y-66262035D01*
X111450500Y-63092557D01*
X111470185Y-63025518D01*
X111492270Y-62999744D01*
X111528183Y-62967929D01*
X111624818Y-62827930D01*
X111685140Y-62668872D01*
X111705645Y-62500000D01*
X111685140Y-62331128D01*
X111673524Y-62300500D01*
X111634005Y-62196294D01*
X111624818Y-62172070D01*
X111528183Y-62032071D01*
X111421959Y-61937965D01*
X111400849Y-61919263D01*
X111250226Y-61840210D01*
X111085056Y-61799500D01*
X110914944Y-61799500D01*
X110749773Y-61840210D01*
X110599150Y-61919263D01*
X110471816Y-62032072D01*
X110375182Y-62172068D01*
X110314860Y-62331125D01*
X110314859Y-62331130D01*
X110294355Y-62500000D01*
X110314859Y-62668869D01*
X110314860Y-62668874D01*
X110375182Y-62827931D01*
X110471815Y-62967927D01*
X110471816Y-62967928D01*
X110471817Y-62967929D01*
X110507727Y-62999742D01*
X110544853Y-63058929D01*
X110549500Y-63092557D01*
X110549500Y-66559309D01*
X110563214Y-66610489D01*
X110580201Y-66673887D01*
X110639511Y-66776614D01*
X110639513Y-66776616D01*
X114878263Y-71015366D01*
X114911748Y-71076689D01*
X114906764Y-71146381D01*
X114864892Y-71202314D01*
X114799428Y-71226731D01*
X114754587Y-71221708D01*
X114696130Y-71203975D01*
X114500000Y-71184659D01*
X114303870Y-71203975D01*
X114115266Y-71261188D01*
X113941467Y-71354086D01*
X113941460Y-71354090D01*
X113789116Y-71479116D01*
X113664090Y-71631460D01*
X113664086Y-71631467D01*
X113571188Y-71805266D01*
X113513975Y-71993870D01*
X113494659Y-72190000D01*
X113513975Y-72386129D01*
X113513976Y-72386132D01*
X113567198Y-72561582D01*
X113571187Y-72574730D01*
X113592858Y-72615273D01*
X113616349Y-72659221D01*
X113630591Y-72727623D01*
X113605591Y-72792867D01*
X113594672Y-72805355D01*
X111862680Y-74537347D01*
X111801357Y-74570832D01*
X111731665Y-74565848D01*
X111687318Y-74537347D01*
X111659512Y-74509541D01*
X111659507Y-74509537D01*
X111642124Y-74499502D01*
X111642120Y-74499498D01*
X111642120Y-74499499D01*
X111616555Y-74484739D01*
X111590990Y-74469979D01*
X111562969Y-74462471D01*
X111514562Y-74449500D01*
X111514560Y-74449500D01*
X109720436Y-74449500D01*
X109653397Y-74429815D01*
X109607642Y-74377011D01*
X109605875Y-74372953D01*
X109555941Y-74252402D01*
X109440977Y-74080345D01*
X109440975Y-74080342D01*
X109294657Y-73934024D01*
X109191954Y-73865401D01*
X109122598Y-73819059D01*
X109115157Y-73815977D01*
X108931420Y-73739870D01*
X108931412Y-73739868D01*
X108728469Y-73699500D01*
X108728465Y-73699500D01*
X108221535Y-73699500D01*
X108221530Y-73699500D01*
X108018587Y-73739868D01*
X108018579Y-73739870D01*
X107827403Y-73819058D01*
X107655342Y-73934024D01*
X107509024Y-74080342D01*
X107394058Y-74252403D01*
X107314870Y-74443579D01*
X107314868Y-74443587D01*
X107274500Y-74646530D01*
X107274500Y-74853469D01*
X107313692Y-75050500D01*
X107314870Y-75056420D01*
X107394059Y-75247598D01*
X107444916Y-75323712D01*
X107509024Y-75419657D01*
X107655342Y-75565975D01*
X107655345Y-75565977D01*
X107827402Y-75680941D01*
X108018580Y-75760130D01*
X108221530Y-75800499D01*
X108221534Y-75800500D01*
X108221535Y-75800500D01*
X108728466Y-75800500D01*
X108728467Y-75800499D01*
X108931420Y-75760130D01*
X109122598Y-75680941D01*
X109294655Y-75565977D01*
X109440977Y-75419655D01*
X109555941Y-75247598D01*
X109605875Y-75127046D01*
X109649716Y-75072644D01*
X109716010Y-75050579D01*
X109720436Y-75050500D01*
X111299167Y-75050500D01*
X111366206Y-75070185D01*
X111386848Y-75086819D01*
X111590489Y-75290460D01*
X111659012Y-75330021D01*
X111735438Y-75350500D01*
X111735440Y-75350500D01*
X111814560Y-75350500D01*
X111814562Y-75350500D01*
X111890988Y-75330021D01*
X111959511Y-75290460D01*
X112015460Y-75234511D01*
X114074907Y-73175062D01*
X114136228Y-73141579D01*
X114198581Y-73144084D01*
X114303868Y-73176024D01*
X114303867Y-73176024D01*
X114323184Y-73177926D01*
X114500000Y-73195341D01*
X114696132Y-73176024D01*
X114884727Y-73118814D01*
X114913436Y-73103469D01*
X114971632Y-73072362D01*
X115058538Y-73025910D01*
X115210883Y-72900883D01*
X115335910Y-72748538D01*
X115407142Y-72615273D01*
X115428811Y-72574733D01*
X115428812Y-72574730D01*
X115428814Y-72574727D01*
X115486024Y-72386132D01*
X115505341Y-72190000D01*
X115486024Y-71993868D01*
X115468292Y-71935413D01*
X115467668Y-71865546D01*
X115504916Y-71806433D01*
X115568210Y-71776842D01*
X115637454Y-71786167D01*
X115674633Y-71811736D01*
X118372254Y-74509357D01*
X118405739Y-74570680D01*
X118400755Y-74640372D01*
X118384347Y-74670667D01*
X118372207Y-74687116D01*
X118327353Y-74815303D01*
X118324500Y-74845730D01*
X118324500Y-76154269D01*
X118327353Y-76184699D01*
X118327353Y-76184701D01*
X118369469Y-76305058D01*
X118372207Y-76312882D01*
X118452850Y-76422150D01*
X118562118Y-76502793D01*
X118583089Y-76510131D01*
X118690299Y-76547646D01*
X118720730Y-76550500D01*
X118720734Y-76550500D01*
X118925500Y-76550500D01*
X118992539Y-76570185D01*
X119038294Y-76622989D01*
X119049500Y-76674500D01*
X119049500Y-81809308D01*
X119070990Y-81889510D01*
X119080201Y-81923888D01*
X119094989Y-81949500D01*
X119139511Y-82026614D01*
X125723386Y-88610489D01*
X125826113Y-88669799D01*
X125850321Y-88676284D01*
X125850324Y-88676286D01*
X125850325Y-88676286D01*
X125864205Y-88680005D01*
X125940691Y-88700500D01*
X125940693Y-88700500D01*
X130809308Y-88700500D01*
X130809309Y-88700500D01*
X130899673Y-88676286D01*
X130923887Y-88669799D01*
X131026614Y-88610489D01*
X132905587Y-86731516D01*
X132964896Y-86628789D01*
X132977915Y-86580201D01*
X132995597Y-86514212D01*
X132995597Y-76579500D01*
X133015282Y-76512461D01*
X133068086Y-76466706D01*
X133119597Y-76455500D01*
X133199996Y-76455500D01*
X133200000Y-76455500D01*
X133273085Y-76442065D01*
X133278025Y-76438771D01*
X133344722Y-76417962D01*
X133400612Y-76430225D01*
X133410835Y-76435148D01*
X133410836Y-76435148D01*
X133410837Y-76435149D01*
X133477428Y-76450348D01*
X133499995Y-76455499D01*
X133500000Y-76455500D01*
X134500003Y-76455500D01*
X134500003Y-76455499D01*
X134545728Y-76450348D01*
X134628127Y-76410666D01*
X134685149Y-76339163D01*
X134705500Y-76250000D01*
X134705500Y-76045056D01*
X134725185Y-75978017D01*
X134777989Y-75932262D01*
X134847147Y-75922318D01*
X134910703Y-75951343D01*
X134940461Y-75992611D01*
X134941186Y-75992224D01*
X134944055Y-75997592D01*
X135059024Y-76169657D01*
X135205342Y-76315975D01*
X135205345Y-76315977D01*
X135377402Y-76430941D01*
X135487990Y-76476748D01*
X135542393Y-76520589D01*
X135564458Y-76586883D01*
X135547179Y-76654582D01*
X135496042Y-76702193D01*
X135478856Y-76709240D01*
X135356781Y-76748905D01*
X135167442Y-76845379D01*
X134995540Y-76970272D01*
X134995535Y-76970276D01*
X134845276Y-77120535D01*
X134845272Y-77120540D01*
X134720379Y-77292442D01*
X134623904Y-77481782D01*
X134558242Y-77683870D01*
X134558242Y-77683873D01*
X134547769Y-77750000D01*
X135595854Y-77750000D01*
X135557370Y-77816657D01*
X135525000Y-77937465D01*
X135525000Y-78062535D01*
X135557370Y-78183343D01*
X135595854Y-78250000D01*
X134547769Y-78250000D01*
X134558242Y-78316126D01*
X134558242Y-78316129D01*
X134623904Y-78518217D01*
X134720379Y-78707557D01*
X134845272Y-78879459D01*
X134845276Y-78879464D01*
X134995535Y-79029723D01*
X134995540Y-79029727D01*
X135073634Y-79086466D01*
X135116300Y-79141796D01*
X135122279Y-79211409D01*
X135089673Y-79273204D01*
X135088430Y-79274465D01*
X134139513Y-80223383D01*
X134139509Y-80223389D01*
X134080201Y-80326112D01*
X134080200Y-80326117D01*
X134049500Y-80440691D01*
X134049500Y-82309310D01*
X134063804Y-82362696D01*
X134063805Y-82362696D01*
X134080201Y-82423888D01*
X134089649Y-82440252D01*
X134139511Y-82526614D01*
X137473386Y-85860489D01*
X137576113Y-85919799D01*
X137600321Y-85926284D01*
X137600324Y-85926286D01*
X137600325Y-85926286D01*
X137622628Y-85932262D01*
X137690691Y-85950500D01*
X139220500Y-85950500D01*
X139287539Y-85970185D01*
X139333294Y-86022989D01*
X139344500Y-86074500D01*
X139344500Y-86250004D01*
X139349651Y-86295728D01*
X139389333Y-86378126D01*
X139389334Y-86378127D01*
X139460837Y-86435149D01*
X139503091Y-86444793D01*
X139564070Y-86478901D01*
X139596929Y-86540562D01*
X139599500Y-86565684D01*
X139599500Y-94859310D01*
X139610279Y-94899540D01*
X139610280Y-94899540D01*
X139630201Y-94973887D01*
X139689511Y-95076614D01*
X142473386Y-97860490D01*
X142576114Y-97919799D01*
X142690691Y-97950500D01*
X142690694Y-97950500D01*
X154559308Y-97950500D01*
X154559309Y-97950500D01*
X154649673Y-97926286D01*
X154673887Y-97919799D01*
X154776614Y-97860489D01*
X163360489Y-89276614D01*
X163419798Y-89173887D01*
X163419799Y-89173886D01*
X163450500Y-89059309D01*
X163450500Y-77190691D01*
X163419799Y-77076114D01*
X163370006Y-76989870D01*
X163360489Y-76973386D01*
X161776614Y-75389511D01*
X161686275Y-75337353D01*
X161673888Y-75330201D01*
X161661780Y-75326957D01*
X161649673Y-75323713D01*
X161649670Y-75323712D01*
X161611478Y-75313478D01*
X161559309Y-75299500D01*
X161559308Y-75299500D01*
X153237965Y-75299500D01*
X153170926Y-75279815D01*
X153150284Y-75263181D01*
X151986819Y-74099716D01*
X151953334Y-74038393D01*
X151950500Y-74012035D01*
X151950500Y-73000000D01*
X155304659Y-73000000D01*
X155323975Y-73196129D01*
X155381188Y-73384733D01*
X155474086Y-73558532D01*
X155474090Y-73558539D01*
X155599116Y-73710883D01*
X155751460Y-73835909D01*
X155751467Y-73835913D01*
X155925266Y-73928811D01*
X155925269Y-73928811D01*
X155925273Y-73928814D01*
X156113868Y-73986024D01*
X156310000Y-74005341D01*
X156506132Y-73986024D01*
X156694727Y-73928814D01*
X156702200Y-73924820D01*
X156813364Y-73865401D01*
X156868538Y-73835910D01*
X157020883Y-73710883D01*
X157145910Y-73558538D01*
X157238814Y-73384727D01*
X157296024Y-73196132D01*
X157315341Y-73000000D01*
X157296024Y-72803868D01*
X157238814Y-72615273D01*
X157238811Y-72615269D01*
X157238811Y-72615266D01*
X157145913Y-72441467D01*
X157145909Y-72441460D01*
X157020883Y-72289116D01*
X156868539Y-72164090D01*
X156868532Y-72164086D01*
X156694733Y-72071188D01*
X156694727Y-72071186D01*
X156506132Y-72013976D01*
X156506129Y-72013975D01*
X156310000Y-71994659D01*
X156113870Y-72013975D01*
X155925266Y-72071188D01*
X155751467Y-72164086D01*
X155751460Y-72164090D01*
X155599116Y-72289116D01*
X155474090Y-72441460D01*
X155474086Y-72441467D01*
X155381188Y-72615266D01*
X155323975Y-72803870D01*
X155304659Y-73000000D01*
X151950500Y-73000000D01*
X151950500Y-67737965D01*
X151970185Y-67670926D01*
X151986819Y-67650284D01*
X153150284Y-66486819D01*
X153211607Y-66453334D01*
X153237965Y-66450500D01*
X157635166Y-66450500D01*
X157702205Y-66470185D01*
X157747960Y-66522989D01*
X157757904Y-66592147D01*
X157728879Y-66655703D01*
X157722847Y-66662181D01*
X156837380Y-67547647D01*
X156776057Y-67581132D01*
X156706365Y-67576148D01*
X156700386Y-67573451D01*
X156700359Y-67573518D01*
X156694739Y-67571190D01*
X156694728Y-67571186D01*
X156694727Y-67571186D01*
X156506132Y-67513976D01*
X156506129Y-67513975D01*
X156310000Y-67494659D01*
X156113870Y-67513975D01*
X155925266Y-67571188D01*
X155751467Y-67664086D01*
X155751460Y-67664090D01*
X155599116Y-67789116D01*
X155474090Y-67941460D01*
X155474086Y-67941467D01*
X155381188Y-68115266D01*
X155323975Y-68303870D01*
X155304659Y-68500000D01*
X155323975Y-68696129D01*
X155323976Y-68696132D01*
X155379590Y-68879467D01*
X155381188Y-68884733D01*
X155474086Y-69058532D01*
X155474090Y-69058539D01*
X155599116Y-69210883D01*
X155751460Y-69335909D01*
X155751467Y-69335913D01*
X155925266Y-69428811D01*
X155925269Y-69428811D01*
X155925273Y-69428814D01*
X156113868Y-69486024D01*
X156310000Y-69505341D01*
X156506132Y-69486024D01*
X156694727Y-69428814D01*
X156707195Y-69422150D01*
X156781632Y-69382362D01*
X156868538Y-69335910D01*
X157020883Y-69210883D01*
X157145910Y-69058538D01*
X157225765Y-68909140D01*
X157238811Y-68884733D01*
X157238811Y-68884732D01*
X157238814Y-68884727D01*
X157296024Y-68696132D01*
X157315341Y-68500000D01*
X157296024Y-68303868D01*
X157238814Y-68115273D01*
X157238811Y-68115268D01*
X157238809Y-68115260D01*
X157236482Y-68109641D01*
X157238596Y-68108765D01*
X157226431Y-68050358D01*
X157251427Y-67985112D01*
X157262343Y-67972626D01*
X161990460Y-63244511D01*
X162030022Y-63175988D01*
X162050500Y-63099562D01*
X162050500Y-63020438D01*
X162050500Y-61234081D01*
X162070185Y-61167042D01*
X162122989Y-61121287D01*
X162192147Y-61111343D01*
X162232126Y-61124285D01*
X162281663Y-61150284D01*
X162299775Y-61159790D01*
X162464944Y-61200500D01*
X162562035Y-61200500D01*
X162629074Y-61220185D01*
X162649716Y-61236819D01*
X163263181Y-61850284D01*
X163296666Y-61911607D01*
X163299500Y-61937965D01*
X163299500Y-66309309D01*
X163305987Y-66333521D01*
X163323712Y-66399672D01*
X163330200Y-66423885D01*
X163330200Y-66423886D01*
X163340974Y-66442546D01*
X163389511Y-66526614D01*
X163389513Y-66526616D01*
X164013181Y-67150284D01*
X164046666Y-67211607D01*
X164049500Y-67237965D01*
X164049500Y-89262035D01*
X164029815Y-89329074D01*
X164013181Y-89349716D01*
X155099716Y-98263181D01*
X155038393Y-98296666D01*
X155012035Y-98299500D01*
X131303878Y-98299500D01*
X131236839Y-98279815D01*
X131191084Y-98227011D01*
X131181140Y-98157853D01*
X131210165Y-98094297D01*
X131225332Y-98080618D01*
X131225472Y-98079025D01*
X130546447Y-97400000D01*
X130552661Y-97400000D01*
X130654394Y-97372741D01*
X130745606Y-97320080D01*
X130820080Y-97245606D01*
X130872741Y-97154394D01*
X130900000Y-97052661D01*
X130900000Y-97046447D01*
X131579024Y-97725471D01*
X131630136Y-97652478D01*
X131726264Y-97446331D01*
X131726269Y-97446317D01*
X131785139Y-97226610D01*
X131785141Y-97226599D01*
X131804966Y-97000002D01*
X131804966Y-96999997D01*
X131785141Y-96773400D01*
X131785139Y-96773389D01*
X131726269Y-96553682D01*
X131726264Y-96553668D01*
X131630136Y-96347521D01*
X131630132Y-96347513D01*
X131579025Y-96274526D01*
X130900000Y-96953551D01*
X130900000Y-96947339D01*
X130872741Y-96845606D01*
X130820080Y-96754394D01*
X130745606Y-96679920D01*
X130654394Y-96627259D01*
X130552661Y-96600000D01*
X130546448Y-96600000D01*
X131225472Y-95920974D01*
X131152478Y-95869863D01*
X130946331Y-95773735D01*
X130946317Y-95773730D01*
X130726610Y-95714860D01*
X130726599Y-95714858D01*
X130500002Y-95695034D01*
X130499998Y-95695034D01*
X130273400Y-95714858D01*
X130273389Y-95714860D01*
X130053682Y-95773730D01*
X130053673Y-95773734D01*
X129847516Y-95869866D01*
X129847512Y-95869868D01*
X129774526Y-95920973D01*
X129774526Y-95920974D01*
X130453553Y-96600000D01*
X130447339Y-96600000D01*
X130345606Y-96627259D01*
X130254394Y-96679920D01*
X130179920Y-96754394D01*
X130127259Y-96845606D01*
X130100000Y-96947339D01*
X130100000Y-96953552D01*
X129420974Y-96274526D01*
X129420973Y-96274526D01*
X129369868Y-96347512D01*
X129369866Y-96347516D01*
X129273734Y-96553673D01*
X129273731Y-96553680D01*
X129215581Y-96770699D01*
X129179216Y-96830359D01*
X129116369Y-96860888D01*
X129046993Y-96852593D01*
X128993115Y-96808108D01*
X128977146Y-96774603D01*
X128928814Y-96615273D01*
X128928812Y-96615270D01*
X128928812Y-96615268D01*
X128835913Y-96441467D01*
X128835909Y-96441460D01*
X128710883Y-96289116D01*
X128558539Y-96164090D01*
X128558532Y-96164086D01*
X128384733Y-96071188D01*
X128384727Y-96071186D01*
X128196132Y-96013976D01*
X128196129Y-96013975D01*
X128000000Y-95994659D01*
X127803870Y-96013975D01*
X127615266Y-96071188D01*
X127441467Y-96164086D01*
X127441460Y-96164090D01*
X127289116Y-96289116D01*
X127164090Y-96441460D01*
X127164086Y-96441467D01*
X127071188Y-96615266D01*
X127013975Y-96803870D01*
X126994659Y-97000000D01*
X127013975Y-97196129D01*
X127013976Y-97196132D01*
X127061729Y-97353553D01*
X127071188Y-97384733D01*
X127164086Y-97558532D01*
X127164090Y-97558539D01*
X127289116Y-97710883D01*
X127441460Y-97835909D01*
X127441467Y-97835913D01*
X127615266Y-97928811D01*
X127615269Y-97928811D01*
X127615273Y-97928814D01*
X127803868Y-97986024D01*
X128000000Y-98005341D01*
X128196132Y-97986024D01*
X128384727Y-97928814D01*
X128389459Y-97926285D01*
X128512556Y-97860488D01*
X128558538Y-97835910D01*
X128710883Y-97710883D01*
X128835910Y-97558538D01*
X128908812Y-97422149D01*
X128928812Y-97384731D01*
X128928812Y-97384730D01*
X128928814Y-97384727D01*
X128977146Y-97225396D01*
X129015443Y-97166960D01*
X129079255Y-97138504D01*
X129148322Y-97149064D01*
X129200716Y-97195288D01*
X129215581Y-97229300D01*
X129273731Y-97446320D01*
X129273735Y-97446331D01*
X129369863Y-97652478D01*
X129420974Y-97725472D01*
X130100000Y-97046446D01*
X130100000Y-97052661D01*
X130127259Y-97154394D01*
X130179920Y-97245606D01*
X130254394Y-97320080D01*
X130345606Y-97372741D01*
X130447339Y-97400000D01*
X130453553Y-97400000D01*
X129774526Y-98079025D01*
X129774920Y-98083529D01*
X129810869Y-98128503D01*
X129818061Y-98198001D01*
X129786539Y-98260356D01*
X129726309Y-98295769D01*
X129696120Y-98299500D01*
X122987965Y-98299500D01*
X122920926Y-98279815D01*
X122900284Y-98263181D01*
X120486819Y-95849716D01*
X120453334Y-95788393D01*
X120450500Y-95762035D01*
X120450500Y-94250000D01*
X121374659Y-94250000D01*
X121393975Y-94446129D01*
X121451188Y-94634733D01*
X121544086Y-94808532D01*
X121544090Y-94808539D01*
X121669116Y-94960883D01*
X121821460Y-95085909D01*
X121821467Y-95085913D01*
X121995266Y-95178811D01*
X121995269Y-95178811D01*
X121995273Y-95178814D01*
X122183868Y-95236024D01*
X122380000Y-95255341D01*
X122576132Y-95236024D01*
X122764727Y-95178814D01*
X122938538Y-95085910D01*
X123090883Y-94960883D01*
X123215910Y-94808538D01*
X123308814Y-94634727D01*
X123366024Y-94446132D01*
X123385341Y-94250000D01*
X128994659Y-94250000D01*
X129013975Y-94446129D01*
X129071188Y-94634733D01*
X129164086Y-94808532D01*
X129164090Y-94808539D01*
X129289116Y-94960883D01*
X129441460Y-95085909D01*
X129441467Y-95085913D01*
X129615266Y-95178811D01*
X129615269Y-95178811D01*
X129615273Y-95178814D01*
X129803868Y-95236024D01*
X130000000Y-95255341D01*
X130196132Y-95236024D01*
X130384727Y-95178814D01*
X130558538Y-95085910D01*
X130710883Y-94960883D01*
X130835910Y-94808538D01*
X130928814Y-94634727D01*
X130986024Y-94446132D01*
X131005341Y-94250000D01*
X130986024Y-94053868D01*
X130928814Y-93865273D01*
X130928811Y-93865269D01*
X130928811Y-93865266D01*
X130835913Y-93691467D01*
X130835909Y-93691460D01*
X130710883Y-93539116D01*
X130558539Y-93414090D01*
X130558532Y-93414086D01*
X130384733Y-93321188D01*
X130384727Y-93321186D01*
X130196132Y-93263976D01*
X130196129Y-93263975D01*
X130000000Y-93244659D01*
X129803870Y-93263975D01*
X129615266Y-93321188D01*
X129441467Y-93414086D01*
X129441460Y-93414090D01*
X129289116Y-93539116D01*
X129164090Y-93691460D01*
X129164086Y-93691467D01*
X129071188Y-93865266D01*
X129013975Y-94053870D01*
X128994659Y-94250000D01*
X123385341Y-94250000D01*
X123366024Y-94053868D01*
X123308814Y-93865273D01*
X123308811Y-93865269D01*
X123308811Y-93865266D01*
X123215913Y-93691467D01*
X123215909Y-93691460D01*
X123090883Y-93539116D01*
X122938539Y-93414090D01*
X122938532Y-93414086D01*
X122764733Y-93321188D01*
X122764727Y-93321186D01*
X122576132Y-93263976D01*
X122576129Y-93263975D01*
X122380000Y-93244659D01*
X122183870Y-93263975D01*
X121995266Y-93321188D01*
X121821467Y-93414086D01*
X121821460Y-93414090D01*
X121669116Y-93539116D01*
X121544090Y-93691460D01*
X121544086Y-93691467D01*
X121451188Y-93865266D01*
X121393975Y-94053870D01*
X121374659Y-94250000D01*
X120450500Y-94250000D01*
X120450500Y-91000000D01*
X121374659Y-91000000D01*
X121393975Y-91196129D01*
X121451188Y-91384733D01*
X121544086Y-91558532D01*
X121544090Y-91558539D01*
X121669116Y-91710883D01*
X121821460Y-91835909D01*
X121821467Y-91835913D01*
X121995266Y-91928811D01*
X121995269Y-91928811D01*
X121995273Y-91928814D01*
X122183868Y-91986024D01*
X122380000Y-92005341D01*
X122576132Y-91986024D01*
X122764727Y-91928814D01*
X122938538Y-91835910D01*
X123090883Y-91710883D01*
X123215910Y-91558538D01*
X123308814Y-91384727D01*
X123366024Y-91196132D01*
X123385341Y-91000000D01*
X128994659Y-91000000D01*
X129013975Y-91196129D01*
X129071188Y-91384733D01*
X129164086Y-91558532D01*
X129164090Y-91558539D01*
X129289116Y-91710883D01*
X129441460Y-91835909D01*
X129441467Y-91835913D01*
X129615266Y-91928811D01*
X129615269Y-91928811D01*
X129615273Y-91928814D01*
X129803868Y-91986024D01*
X130000000Y-92005341D01*
X130196132Y-91986024D01*
X130384727Y-91928814D01*
X130558538Y-91835910D01*
X130710883Y-91710883D01*
X130835910Y-91558538D01*
X130928814Y-91384727D01*
X130986024Y-91196132D01*
X131005341Y-91000000D01*
X130986024Y-90803868D01*
X130928814Y-90615273D01*
X130928811Y-90615269D01*
X130928811Y-90615266D01*
X130835913Y-90441467D01*
X130835909Y-90441460D01*
X130710883Y-90289116D01*
X130558539Y-90164090D01*
X130558532Y-90164086D01*
X130384733Y-90071188D01*
X130384727Y-90071186D01*
X130196132Y-90013976D01*
X130196129Y-90013975D01*
X130000000Y-89994659D01*
X129803870Y-90013975D01*
X129615266Y-90071188D01*
X129441467Y-90164086D01*
X129441460Y-90164090D01*
X129289116Y-90289116D01*
X129164090Y-90441460D01*
X129164086Y-90441467D01*
X129071188Y-90615266D01*
X129013975Y-90803870D01*
X128994659Y-91000000D01*
X123385341Y-91000000D01*
X123366024Y-90803868D01*
X123308814Y-90615273D01*
X123308811Y-90615269D01*
X123308811Y-90615266D01*
X123215913Y-90441467D01*
X123215909Y-90441460D01*
X123090883Y-90289116D01*
X122938539Y-90164090D01*
X122938532Y-90164086D01*
X122764733Y-90071188D01*
X122764727Y-90071186D01*
X122576132Y-90013976D01*
X122576129Y-90013975D01*
X122380000Y-89994659D01*
X122183870Y-90013975D01*
X121995266Y-90071188D01*
X121821467Y-90164086D01*
X121821460Y-90164090D01*
X121669116Y-90289116D01*
X121544090Y-90441460D01*
X121544086Y-90441467D01*
X121451188Y-90615266D01*
X121393975Y-90803870D01*
X121374659Y-91000000D01*
X120450500Y-91000000D01*
X120450500Y-89025759D01*
X120470185Y-88958720D01*
X120485846Y-88940444D01*
X120485509Y-88940145D01*
X120490481Y-88934532D01*
X120490481Y-88934531D01*
X120490483Y-88934530D01*
X120580220Y-88804523D01*
X120636237Y-88656818D01*
X120655278Y-88500000D01*
X120636237Y-88343182D01*
X120580220Y-88195477D01*
X120490483Y-88065470D01*
X120372240Y-87960717D01*
X120372238Y-87960716D01*
X120372237Y-87960715D01*
X120232365Y-87887303D01*
X120078986Y-87849500D01*
X120078985Y-87849500D01*
X120037965Y-87849500D01*
X119970926Y-87829815D01*
X119950284Y-87813181D01*
X118776616Y-86639513D01*
X118776614Y-86639511D01*
X118725250Y-86609856D01*
X118673888Y-86580201D01*
X118661780Y-86576957D01*
X118649673Y-86573713D01*
X118649670Y-86573712D01*
X118611478Y-86563478D01*
X118559309Y-86549500D01*
X118559308Y-86549500D01*
X110737965Y-86549500D01*
X110670926Y-86529815D01*
X110650284Y-86513181D01*
X107736616Y-83599513D01*
X107736614Y-83599511D01*
X107685250Y-83569856D01*
X107633888Y-83540201D01*
X107621780Y-83536957D01*
X107609673Y-83533713D01*
X107609670Y-83533712D01*
X107551841Y-83518217D01*
X107519309Y-83509500D01*
X107519308Y-83509500D01*
X105824500Y-83509500D01*
X105757461Y-83489815D01*
X105711706Y-83437011D01*
X105700500Y-83385500D01*
X105700500Y-82440249D01*
X105700499Y-82440247D01*
X105688868Y-82381770D01*
X105688867Y-82381769D01*
X105644552Y-82315447D01*
X105578230Y-82271132D01*
X105578229Y-82271131D01*
X105519752Y-82259500D01*
X105519748Y-82259500D01*
X102480252Y-82259500D01*
X102480247Y-82259500D01*
X102421770Y-82271131D01*
X102421769Y-82271132D01*
X102355447Y-82315447D01*
X102311132Y-82381769D01*
X102311131Y-82381770D01*
X102299500Y-82440247D01*
X102299500Y-85479752D01*
X102311131Y-85538229D01*
X102311132Y-85538230D01*
X102355447Y-85604552D01*
X102421769Y-85648867D01*
X102421770Y-85648868D01*
X102480247Y-85660499D01*
X102480250Y-85660500D01*
X102480252Y-85660500D01*
X105519750Y-85660500D01*
X105519751Y-85660499D01*
X105534568Y-85657552D01*
X105578229Y-85648868D01*
X105578229Y-85648867D01*
X105578231Y-85648867D01*
X105644552Y-85604552D01*
X105688867Y-85538231D01*
X105688867Y-85538229D01*
X105688868Y-85538229D01*
X105700499Y-85479752D01*
X105700500Y-85479750D01*
X105700500Y-84534500D01*
X105720185Y-84467461D01*
X105772989Y-84421706D01*
X105824500Y-84410500D01*
X107222035Y-84410500D01*
X107289074Y-84430185D01*
X107309716Y-84446819D01*
X110223386Y-87360489D01*
X110326113Y-87419799D01*
X110350321Y-87426284D01*
X110350324Y-87426286D01*
X110350325Y-87426286D01*
X110380447Y-87434357D01*
X110440691Y-87450500D01*
X118262035Y-87450500D01*
X118329074Y-87470185D01*
X118349716Y-87486819D01*
X119311952Y-88449055D01*
X119345437Y-88510378D01*
X119347367Y-88521789D01*
X119363763Y-88656819D01*
X119374999Y-88686446D01*
X119419780Y-88804523D01*
X119429301Y-88818316D01*
X119509518Y-88934532D01*
X119514491Y-88940145D01*
X119513044Y-88941426D01*
X119544850Y-88992120D01*
X119549500Y-89025759D01*
X119549500Y-96059309D01*
X119552683Y-96071188D01*
X119573712Y-96149672D01*
X119580200Y-96173885D01*
X119580200Y-96173886D01*
X119580201Y-96173887D01*
X119639511Y-96276614D01*
X122473386Y-99110489D01*
X122473387Y-99110490D01*
X122473389Y-99110491D01*
X122532693Y-99144729D01*
X122532696Y-99144732D01*
X122559123Y-99159989D01*
X122576114Y-99169799D01*
X122690691Y-99200500D01*
X122690694Y-99200500D01*
X155309308Y-99200500D01*
X155309309Y-99200500D01*
X155399673Y-99176286D01*
X155423887Y-99169799D01*
X155526614Y-99110489D01*
X164737819Y-89899284D01*
X164799142Y-89865799D01*
X164868834Y-89870783D01*
X164924767Y-89912655D01*
X164949184Y-89978119D01*
X164949500Y-89986965D01*
X164949500Y-96996519D01*
X164949305Y-97003472D01*
X164931344Y-97323287D01*
X164929787Y-97337105D01*
X164876716Y-97649457D01*
X164873622Y-97663014D01*
X164785910Y-97967469D01*
X164781317Y-97980593D01*
X164660073Y-98273304D01*
X164654040Y-98285833D01*
X164500778Y-98563139D01*
X164493380Y-98574913D01*
X164310043Y-98833302D01*
X164301372Y-98844174D01*
X164090250Y-99080418D01*
X164080418Y-99090250D01*
X163844174Y-99301372D01*
X163833302Y-99310043D01*
X163574913Y-99493380D01*
X163563139Y-99500778D01*
X163285833Y-99654040D01*
X163273304Y-99660073D01*
X162980593Y-99781317D01*
X162967469Y-99785910D01*
X162663014Y-99873622D01*
X162649457Y-99876716D01*
X162337105Y-99929787D01*
X162323287Y-99931344D01*
X162003472Y-99949305D01*
X161996519Y-99949500D01*
X103003481Y-99949500D01*
X102996528Y-99949305D01*
X102676712Y-99931344D01*
X102662894Y-99929787D01*
X102350542Y-99876716D01*
X102336985Y-99873622D01*
X102032530Y-99785910D01*
X102019406Y-99781317D01*
X101726695Y-99660073D01*
X101714166Y-99654040D01*
X101436860Y-99500778D01*
X101425094Y-99493385D01*
X101166687Y-99310035D01*
X101155825Y-99301372D01*
X100919581Y-99090250D01*
X100909749Y-99080418D01*
X100698627Y-98844174D01*
X100689966Y-98833314D01*
X100506611Y-98574900D01*
X100499221Y-98563139D01*
X100391669Y-98368538D01*
X100345955Y-98285826D01*
X100339926Y-98273304D01*
X100218682Y-97980593D01*
X100214089Y-97967469D01*
X100168723Y-97810000D01*
X116494659Y-97810000D01*
X116513975Y-98006129D01*
X116571188Y-98194733D01*
X116664086Y-98368532D01*
X116664090Y-98368539D01*
X116789116Y-98520883D01*
X116941460Y-98645909D01*
X116941467Y-98645913D01*
X117115266Y-98738811D01*
X117115269Y-98738811D01*
X117115273Y-98738814D01*
X117303868Y-98796024D01*
X117500000Y-98815341D01*
X117696132Y-98796024D01*
X117884727Y-98738814D01*
X118058538Y-98645910D01*
X118210883Y-98520883D01*
X118335910Y-98368538D01*
X118428814Y-98194727D01*
X118486024Y-98006132D01*
X118505341Y-97810000D01*
X118486024Y-97613868D01*
X118428814Y-97425273D01*
X118428811Y-97425269D01*
X118428811Y-97425266D01*
X118335913Y-97251467D01*
X118335909Y-97251460D01*
X118210883Y-97099116D01*
X118058539Y-96974090D01*
X118058532Y-96974086D01*
X117884733Y-96881188D01*
X117884727Y-96881186D01*
X117696132Y-96823976D01*
X117696129Y-96823975D01*
X117500000Y-96804659D01*
X117303870Y-96823975D01*
X117115266Y-96881188D01*
X116941467Y-96974086D01*
X116941460Y-96974090D01*
X116789116Y-97099116D01*
X116664090Y-97251460D01*
X116664086Y-97251467D01*
X116571188Y-97425266D01*
X116513975Y-97613870D01*
X116494659Y-97810000D01*
X100168723Y-97810000D01*
X100126377Y-97663014D01*
X100123283Y-97649457D01*
X100070210Y-97337094D01*
X100068656Y-97323297D01*
X100059164Y-97154269D01*
X110299500Y-97154269D01*
X110302353Y-97184699D01*
X110302353Y-97184701D01*
X110347206Y-97312880D01*
X110347207Y-97312882D01*
X110427850Y-97422150D01*
X110537118Y-97502793D01*
X110579845Y-97517744D01*
X110665299Y-97547646D01*
X110695730Y-97550500D01*
X110695734Y-97550500D01*
X112254270Y-97550500D01*
X112284699Y-97547646D01*
X112284701Y-97547646D01*
X112348790Y-97525219D01*
X112412882Y-97502793D01*
X112522150Y-97422150D01*
X112602793Y-97312882D01*
X112626334Y-97245606D01*
X112647646Y-97184701D01*
X112647646Y-97184699D01*
X112650500Y-97154269D01*
X112650500Y-95845730D01*
X112647646Y-95815300D01*
X112647646Y-95815298D01*
X112602793Y-95687119D01*
X112602792Y-95687117D01*
X112582305Y-95659358D01*
X112522150Y-95577850D01*
X112412882Y-95497207D01*
X112412880Y-95497206D01*
X112284700Y-95452353D01*
X112254270Y-95449500D01*
X112254266Y-95449500D01*
X110695734Y-95449500D01*
X110695730Y-95449500D01*
X110665300Y-95452353D01*
X110665298Y-95452353D01*
X110537119Y-95497206D01*
X110537117Y-95497207D01*
X110427850Y-95577850D01*
X110347207Y-95687117D01*
X110347206Y-95687119D01*
X110302353Y-95815298D01*
X110302353Y-95815300D01*
X110299500Y-95845730D01*
X110299500Y-97154269D01*
X100059164Y-97154269D01*
X100050695Y-97003472D01*
X100050500Y-96996519D01*
X100050500Y-91750000D01*
X110022769Y-91750000D01*
X110033242Y-91816126D01*
X110033242Y-91816129D01*
X110098904Y-92018217D01*
X110195379Y-92207557D01*
X110320272Y-92379459D01*
X110320276Y-92379464D01*
X110470535Y-92529723D01*
X110470540Y-92529727D01*
X110642442Y-92654620D01*
X110831782Y-92751095D01*
X110953855Y-92790759D01*
X111011530Y-92830196D01*
X111038729Y-92894555D01*
X111026815Y-92963401D01*
X110979570Y-93014877D01*
X110962990Y-93023251D01*
X110852404Y-93069057D01*
X110680342Y-93184024D01*
X110534024Y-93330342D01*
X110419058Y-93502403D01*
X110339870Y-93693579D01*
X110339868Y-93693587D01*
X110299500Y-93896530D01*
X110299500Y-94103469D01*
X110339868Y-94306412D01*
X110339870Y-94306420D01*
X110392443Y-94433343D01*
X110419059Y-94497598D01*
X110476541Y-94583626D01*
X110534024Y-94669657D01*
X110680342Y-94815975D01*
X110680345Y-94815977D01*
X110852402Y-94930941D01*
X111043580Y-95010130D01*
X111217150Y-95044655D01*
X111246530Y-95050499D01*
X111246534Y-95050500D01*
X111246535Y-95050500D01*
X111703466Y-95050500D01*
X111703467Y-95050499D01*
X111906420Y-95010130D01*
X112097598Y-94930941D01*
X112269655Y-94815977D01*
X112415977Y-94669655D01*
X112530941Y-94497598D01*
X112610130Y-94306420D01*
X112650500Y-94103465D01*
X112650500Y-93896535D01*
X112610130Y-93693580D01*
X112530941Y-93502402D01*
X112415977Y-93330345D01*
X112415975Y-93330342D01*
X112269657Y-93184024D01*
X112097596Y-93069057D01*
X111987009Y-93023251D01*
X111932606Y-92979410D01*
X111910541Y-92913116D01*
X111927820Y-92845416D01*
X111978958Y-92797806D01*
X111996144Y-92790759D01*
X112118217Y-92751095D01*
X112307557Y-92654620D01*
X112479459Y-92529727D01*
X112479464Y-92529723D01*
X112629723Y-92379464D01*
X112629727Y-92379459D01*
X112754620Y-92207557D01*
X112851095Y-92018217D01*
X112916757Y-91816129D01*
X112916757Y-91816126D01*
X112927231Y-91750000D01*
X111879146Y-91750000D01*
X111917630Y-91683343D01*
X111950000Y-91562535D01*
X111950000Y-91437465D01*
X111917630Y-91316657D01*
X111879146Y-91250000D01*
X112927231Y-91250000D01*
X112916757Y-91183873D01*
X112916757Y-91183870D01*
X112851095Y-90981782D01*
X112754620Y-90792442D01*
X112629727Y-90620540D01*
X112629723Y-90620535D01*
X112479464Y-90470276D01*
X112479459Y-90470272D01*
X112307557Y-90345379D01*
X112118217Y-90248904D01*
X111936927Y-90190000D01*
X116494659Y-90190000D01*
X116513975Y-90386129D01*
X116571188Y-90574733D01*
X116664086Y-90748532D01*
X116664090Y-90748539D01*
X116789116Y-90900883D01*
X116941460Y-91025909D01*
X116941467Y-91025913D01*
X117115266Y-91118811D01*
X117115269Y-91118811D01*
X117115273Y-91118814D01*
X117303868Y-91176024D01*
X117500000Y-91195341D01*
X117696132Y-91176024D01*
X117884727Y-91118814D01*
X118058538Y-91025910D01*
X118210883Y-90900883D01*
X118335910Y-90748538D01*
X118382362Y-90661632D01*
X118428811Y-90574733D01*
X118428811Y-90574732D01*
X118428814Y-90574727D01*
X118486024Y-90386132D01*
X118505341Y-90190000D01*
X118486024Y-89993868D01*
X118428814Y-89805273D01*
X118428811Y-89805269D01*
X118428811Y-89805266D01*
X118335913Y-89631467D01*
X118335909Y-89631460D01*
X118210883Y-89479116D01*
X118058539Y-89354090D01*
X118058532Y-89354086D01*
X117884733Y-89261188D01*
X117884727Y-89261186D01*
X117696132Y-89203976D01*
X117696129Y-89203975D01*
X117500000Y-89184659D01*
X117303870Y-89203975D01*
X117115266Y-89261188D01*
X116941467Y-89354086D01*
X116941460Y-89354090D01*
X116789116Y-89479116D01*
X116664090Y-89631460D01*
X116664086Y-89631467D01*
X116571188Y-89805266D01*
X116513975Y-89993870D01*
X116494659Y-90190000D01*
X111936927Y-90190000D01*
X111916128Y-90183242D01*
X111725000Y-90152969D01*
X111725000Y-91095854D01*
X111658343Y-91057370D01*
X111537535Y-91025000D01*
X111412465Y-91025000D01*
X111291657Y-91057370D01*
X111225000Y-91095854D01*
X111225000Y-90152969D01*
X111033872Y-90183242D01*
X111033869Y-90183242D01*
X110831782Y-90248904D01*
X110642442Y-90345379D01*
X110470540Y-90470272D01*
X110470535Y-90470276D01*
X110320276Y-90620535D01*
X110320272Y-90620540D01*
X110195379Y-90792442D01*
X110098904Y-90981782D01*
X110033242Y-91183870D01*
X110033242Y-91183873D01*
X110022769Y-91250000D01*
X111070854Y-91250000D01*
X111032370Y-91316657D01*
X111000000Y-91437465D01*
X111000000Y-91562535D01*
X111032370Y-91683343D01*
X111070854Y-91750000D01*
X110022769Y-91750000D01*
X100050500Y-91750000D01*
X100050500Y-89040001D01*
X101994891Y-89040001D01*
X102015300Y-89325362D01*
X102076109Y-89604895D01*
X102176091Y-89872958D01*
X102313191Y-90124038D01*
X102313196Y-90124046D01*
X102419882Y-90266561D01*
X102419883Y-90266562D01*
X103314767Y-89371677D01*
X103326497Y-89399995D01*
X103409670Y-89524472D01*
X103515528Y-89630330D01*
X103640005Y-89713503D01*
X103668320Y-89725231D01*
X102773436Y-90620115D01*
X102915960Y-90726807D01*
X102915961Y-90726808D01*
X103167042Y-90863908D01*
X103167041Y-90863908D01*
X103435104Y-90963890D01*
X103714637Y-91024699D01*
X103999999Y-91045109D01*
X104000001Y-91045109D01*
X104285362Y-91024699D01*
X104564895Y-90963890D01*
X104832958Y-90863908D01*
X105084047Y-90726803D01*
X105226561Y-90620116D01*
X105226562Y-90620115D01*
X104331679Y-89725231D01*
X104359995Y-89713503D01*
X104484472Y-89630330D01*
X104590330Y-89524472D01*
X104673503Y-89399995D01*
X104685231Y-89371678D01*
X105580115Y-90266562D01*
X105580116Y-90266561D01*
X105686803Y-90124047D01*
X105823908Y-89872958D01*
X105923890Y-89604895D01*
X105984699Y-89325362D01*
X106005109Y-89040001D01*
X106005109Y-89039998D01*
X105984699Y-88754637D01*
X105923890Y-88475104D01*
X105823908Y-88207041D01*
X105686808Y-87955961D01*
X105686807Y-87955960D01*
X105580115Y-87813436D01*
X104685231Y-88708320D01*
X104673503Y-88680005D01*
X104590330Y-88555528D01*
X104484472Y-88449670D01*
X104359995Y-88366497D01*
X104331678Y-88354767D01*
X105226562Y-87459883D01*
X105226561Y-87459882D01*
X105084046Y-87353196D01*
X105084038Y-87353191D01*
X104832957Y-87216091D01*
X104832958Y-87216091D01*
X104564895Y-87116109D01*
X104285362Y-87055300D01*
X104000001Y-87034891D01*
X103999999Y-87034891D01*
X103714637Y-87055300D01*
X103435104Y-87116109D01*
X103167041Y-87216091D01*
X102915961Y-87353191D01*
X102915953Y-87353196D01*
X102773437Y-87459882D01*
X102773436Y-87459883D01*
X103668321Y-88354767D01*
X103640005Y-88366497D01*
X103515528Y-88449670D01*
X103409670Y-88555528D01*
X103326497Y-88680005D01*
X103314768Y-88708321D01*
X102419883Y-87813436D01*
X102419882Y-87813437D01*
X102313196Y-87955953D01*
X102313191Y-87955961D01*
X102176091Y-88207041D01*
X102076109Y-88475104D01*
X102015300Y-88754637D01*
X101994891Y-89039998D01*
X101994891Y-89040001D01*
X100050500Y-89040001D01*
X100050500Y-81008115D01*
X100051557Y-80991961D01*
X100063657Y-80899945D01*
X100072013Y-80868726D01*
X100104360Y-80790538D01*
X100120506Y-80762535D01*
X100171963Y-80695373D01*
X100194803Y-80672494D01*
X100196844Y-80670925D01*
X100261872Y-80620922D01*
X100289850Y-80604724D01*
X100367979Y-80572242D01*
X100399189Y-80563832D01*
X100457896Y-80556007D01*
X100491069Y-80551587D01*
X100507449Y-80550500D01*
X104562026Y-80550500D01*
X104682969Y-80522895D01*
X104794737Y-80469071D01*
X104891725Y-80391725D01*
X104969071Y-80294737D01*
X105022895Y-80182969D01*
X105050500Y-80062026D01*
X105050500Y-80000000D01*
X105050500Y-79983592D01*
X105050500Y-79559999D01*
X113221127Y-79559999D01*
X113221128Y-79560000D01*
X114184314Y-79560000D01*
X114179920Y-79564394D01*
X114127259Y-79655606D01*
X114100000Y-79757339D01*
X114100000Y-79862661D01*
X114127259Y-79964394D01*
X114179920Y-80055606D01*
X114184314Y-80060000D01*
X113221128Y-80060000D01*
X113273730Y-80256317D01*
X113273734Y-80256326D01*
X113369865Y-80462482D01*
X113500342Y-80648820D01*
X113661179Y-80809657D01*
X113847517Y-80940134D01*
X114053673Y-81036265D01*
X114053682Y-81036269D01*
X114249999Y-81088872D01*
X114250000Y-81088871D01*
X114250000Y-80125686D01*
X114254394Y-80130080D01*
X114345606Y-80182741D01*
X114447339Y-80210000D01*
X114552661Y-80210000D01*
X114654394Y-80182741D01*
X114745606Y-80130080D01*
X114750000Y-80125686D01*
X114750000Y-81088872D01*
X114946317Y-81036269D01*
X114946326Y-81036265D01*
X115152482Y-80940134D01*
X115338820Y-80809657D01*
X115499657Y-80648820D01*
X115630134Y-80462482D01*
X115726265Y-80256326D01*
X115726269Y-80256317D01*
X115778872Y-80060000D01*
X114815686Y-80060000D01*
X114820080Y-80055606D01*
X114872741Y-79964394D01*
X114900000Y-79862661D01*
X114900000Y-79757339D01*
X114872741Y-79655606D01*
X114820080Y-79564394D01*
X114815686Y-79560000D01*
X115778872Y-79560000D01*
X115778872Y-79559999D01*
X115726269Y-79363682D01*
X115726265Y-79363673D01*
X115630134Y-79157517D01*
X115499657Y-78971179D01*
X115338820Y-78810342D01*
X115152482Y-78679865D01*
X114946328Y-78583734D01*
X114750000Y-78531127D01*
X114750000Y-79494314D01*
X114745606Y-79489920D01*
X114654394Y-79437259D01*
X114552661Y-79410000D01*
X114447339Y-79410000D01*
X114345606Y-79437259D01*
X114254394Y-79489920D01*
X114250000Y-79494314D01*
X114250000Y-78531127D01*
X114053671Y-78583734D01*
X113847517Y-78679865D01*
X113661179Y-78810342D01*
X113500342Y-78971179D01*
X113369865Y-79157517D01*
X113273734Y-79363673D01*
X113273730Y-79363682D01*
X113221127Y-79559999D01*
X105050500Y-79559999D01*
X105050500Y-77904269D01*
X107274500Y-77904269D01*
X107277353Y-77934699D01*
X107277353Y-77934701D01*
X107322206Y-78062880D01*
X107322207Y-78062882D01*
X107402850Y-78172150D01*
X107512118Y-78252793D01*
X107545689Y-78264540D01*
X107640299Y-78297646D01*
X107670730Y-78300500D01*
X107670734Y-78300500D01*
X109279270Y-78300500D01*
X109309699Y-78297646D01*
X109309701Y-78297646D01*
X109387844Y-78270302D01*
X109437882Y-78252793D01*
X109547150Y-78172150D01*
X109627793Y-78062882D01*
X109658359Y-77975529D01*
X109672646Y-77934701D01*
X109672646Y-77934699D01*
X109675500Y-77904269D01*
X109675500Y-76595730D01*
X109672646Y-76565300D01*
X109672646Y-76565298D01*
X109629524Y-76442065D01*
X109627793Y-76437118D01*
X109547150Y-76327850D01*
X109437882Y-76247207D01*
X109437880Y-76247206D01*
X109309700Y-76202353D01*
X109279270Y-76199500D01*
X109279266Y-76199500D01*
X107670734Y-76199500D01*
X107670730Y-76199500D01*
X107640300Y-76202353D01*
X107640298Y-76202353D01*
X107512119Y-76247206D01*
X107512117Y-76247207D01*
X107402850Y-76327850D01*
X107322207Y-76437117D01*
X107322206Y-76437119D01*
X107277353Y-76565298D01*
X107277353Y-76565300D01*
X107274500Y-76595730D01*
X107274500Y-77904269D01*
X105050500Y-77904269D01*
X105050500Y-63979082D01*
X105050500Y-63937974D01*
X105022895Y-63817031D01*
X105022143Y-63815470D01*
X104971697Y-63710717D01*
X104969071Y-63705263D01*
X104891725Y-63608275D01*
X104794737Y-63530929D01*
X104778054Y-63522895D01*
X104682973Y-63477106D01*
X104682974Y-63477106D01*
X104562027Y-63449500D01*
X104562026Y-63449500D01*
X104520918Y-63449500D01*
X100508126Y-63449500D01*
X100491941Y-63448439D01*
X100481410Y-63447052D01*
X100399846Y-63436314D01*
X100368579Y-63427936D01*
X100290334Y-63395526D01*
X100262300Y-63379340D01*
X100195107Y-63327780D01*
X100172219Y-63304892D01*
X100120659Y-63237699D01*
X100104473Y-63209665D01*
X100098596Y-63195477D01*
X100072063Y-63131420D01*
X100063685Y-63100152D01*
X100051561Y-63008059D01*
X100050500Y-62991874D01*
X100050500Y-60000001D01*
X101994891Y-60000001D01*
X102015300Y-60285362D01*
X102076109Y-60564895D01*
X102176091Y-60832958D01*
X102313191Y-61084038D01*
X102313196Y-61084046D01*
X102419882Y-61226561D01*
X102419883Y-61226562D01*
X103314767Y-60331677D01*
X103326497Y-60359995D01*
X103409670Y-60484472D01*
X103515528Y-60590330D01*
X103640005Y-60673503D01*
X103668320Y-60685231D01*
X102773436Y-61580115D01*
X102915960Y-61686807D01*
X102915961Y-61686808D01*
X103167042Y-61823908D01*
X103167041Y-61823908D01*
X103435104Y-61923890D01*
X103714637Y-61984699D01*
X103999999Y-62005109D01*
X104000001Y-62005109D01*
X104285362Y-61984699D01*
X104564895Y-61923890D01*
X104832958Y-61823908D01*
X105084047Y-61686803D01*
X105226561Y-61580116D01*
X105226562Y-61580115D01*
X104331679Y-60685231D01*
X104359995Y-60673503D01*
X104484472Y-60590330D01*
X104590330Y-60484472D01*
X104673503Y-60359995D01*
X104685231Y-60331678D01*
X105580115Y-61226562D01*
X105580116Y-61226561D01*
X105686803Y-61084047D01*
X105823908Y-60832958D01*
X105923890Y-60564895D01*
X105984699Y-60285362D01*
X106005109Y-60000001D01*
X106005109Y-59999998D01*
X105984699Y-59714637D01*
X105923890Y-59435104D01*
X105823908Y-59167041D01*
X105686808Y-58915961D01*
X105686807Y-58915960D01*
X105580115Y-58773436D01*
X104685231Y-59668320D01*
X104673503Y-59640005D01*
X104590330Y-59515528D01*
X104484472Y-59409670D01*
X104359995Y-59326497D01*
X104331678Y-59314767D01*
X105226562Y-58419883D01*
X105226561Y-58419882D01*
X105084046Y-58313196D01*
X105084038Y-58313191D01*
X104832957Y-58176091D01*
X104832958Y-58176091D01*
X104564895Y-58076109D01*
X104285362Y-58015300D01*
X104000001Y-57994891D01*
X103999999Y-57994891D01*
X103714637Y-58015300D01*
X103435104Y-58076109D01*
X103167041Y-58176091D01*
X102915961Y-58313191D01*
X102915953Y-58313196D01*
X102773437Y-58419882D01*
X102773436Y-58419883D01*
X103668321Y-59314767D01*
X103640005Y-59326497D01*
X103515528Y-59409670D01*
X103409670Y-59515528D01*
X103326497Y-59640005D01*
X103314768Y-59668321D01*
X102419883Y-58773436D01*
X102419882Y-58773437D01*
X102313196Y-58915953D01*
X102313191Y-58915961D01*
X102176091Y-59167041D01*
X102076109Y-59435104D01*
X102015300Y-59714637D01*
X101994891Y-59999998D01*
X101994891Y-60000001D01*
X100050500Y-60000001D01*
X100050500Y-47003480D01*
X100050695Y-46996527D01*
X100057118Y-46882152D01*
X100068656Y-46676700D01*
X100070210Y-46662907D01*
X100123283Y-46350537D01*
X100126377Y-46336985D01*
X100204243Y-46066708D01*
X100214090Y-46032526D01*
X100218682Y-46019406D01*
X100323433Y-45766514D01*
X100339929Y-45726686D01*
X100345951Y-45714180D01*
X100499227Y-45436850D01*
X100506605Y-45425107D01*
X100689972Y-45166676D01*
X100698619Y-45155834D01*
X100909750Y-44919579D01*
X100919581Y-44909749D01*
X100960715Y-44872989D01*
X101155834Y-44698619D01*
X101166676Y-44689972D01*
X101425107Y-44506605D01*
X101436850Y-44499227D01*
X101714180Y-44345951D01*
X101726686Y-44339929D01*
X101964070Y-44241602D01*
X102019406Y-44218682D01*
X102032526Y-44214090D01*
X102336990Y-44126375D01*
X102350537Y-44123283D01*
X102662907Y-44070210D01*
X102676700Y-44068656D01*
X102996528Y-44050695D01*
X103003481Y-44050500D01*
X103016408Y-44050500D01*
X113225167Y-44050500D01*
X113292206Y-44070185D01*
G37*
G04 #@! TD.AperFunction*
G04 #@! TA.AperFunction,Conductor*
G36*
X158124312Y-48956432D02*
G01*
X158178190Y-49000917D01*
X158199465Y-49067469D01*
X158199500Y-49070420D01*
X158199500Y-49789562D01*
X158219979Y-49865989D01*
X158251450Y-49920498D01*
X158251451Y-49920502D01*
X158259536Y-49934505D01*
X158259542Y-49934513D01*
X162678789Y-54353760D01*
X162712274Y-54415083D01*
X162707290Y-54484775D01*
X162665418Y-54540708D01*
X162599954Y-54565125D01*
X162532654Y-54550799D01*
X162483956Y-54524769D01*
X162483955Y-54524768D01*
X162483954Y-54524768D01*
X162285934Y-54464700D01*
X162285932Y-54464699D01*
X162285934Y-54464699D01*
X162080000Y-54444417D01*
X161874067Y-54464699D01*
X161739736Y-54505448D01*
X161676930Y-54524500D01*
X161676043Y-54524769D01*
X161576221Y-54578126D01*
X161493550Y-54622315D01*
X161493548Y-54622316D01*
X161493547Y-54622317D01*
X161333589Y-54753589D01*
X161202317Y-54913547D01*
X161202315Y-54913550D01*
X161163643Y-54985898D01*
X161104769Y-55096043D01*
X161044699Y-55294067D01*
X161024417Y-55500000D01*
X161044699Y-55705932D01*
X161044700Y-55705934D01*
X161104768Y-55903954D01*
X161202315Y-56086450D01*
X161230499Y-56120793D01*
X161333589Y-56246410D01*
X161414252Y-56312607D01*
X161493550Y-56377685D01*
X161676046Y-56475232D01*
X161874066Y-56535300D01*
X161874065Y-56535300D01*
X161892529Y-56537118D01*
X162080000Y-56555583D01*
X162285934Y-56535300D01*
X162483954Y-56475232D01*
X162666450Y-56377685D01*
X162726835Y-56328129D01*
X162791145Y-56300816D01*
X162860013Y-56312607D01*
X162911573Y-56359760D01*
X162929500Y-56423982D01*
X162929500Y-57116017D01*
X162909815Y-57183056D01*
X162857011Y-57228811D01*
X162787853Y-57238755D01*
X162726836Y-57211871D01*
X162666453Y-57162317D01*
X162666451Y-57162316D01*
X162666450Y-57162315D01*
X162483954Y-57064768D01*
X162285934Y-57004700D01*
X162285932Y-57004699D01*
X162285934Y-57004699D01*
X162080000Y-56984417D01*
X161874067Y-57004699D01*
X161676043Y-57064769D01*
X161580167Y-57116017D01*
X161493550Y-57162315D01*
X161493548Y-57162316D01*
X161493547Y-57162317D01*
X161333589Y-57293589D01*
X161202317Y-57453547D01*
X161202315Y-57453550D01*
X161181699Y-57492120D01*
X161104769Y-57636043D01*
X161104769Y-57636044D01*
X161104768Y-57636046D01*
X161099524Y-57653334D01*
X161044699Y-57834067D01*
X161024417Y-58040000D01*
X161044699Y-58245932D01*
X161044700Y-58245934D01*
X161104768Y-58443954D01*
X161202315Y-58626450D01*
X161202317Y-58626452D01*
X161333589Y-58786410D01*
X161362974Y-58810525D01*
X161493550Y-58917685D01*
X161676046Y-59015232D01*
X161787853Y-59049148D01*
X161846291Y-59087445D01*
X161874747Y-59151257D01*
X161864187Y-59220324D01*
X161839539Y-59255489D01*
X161768532Y-59326497D01*
X161565489Y-59529540D01*
X161509541Y-59585487D01*
X161509535Y-59585495D01*
X161469982Y-59654004D01*
X161469979Y-59654009D01*
X161449500Y-59730439D01*
X161449500Y-62475126D01*
X161429815Y-62542165D01*
X161377011Y-62587920D01*
X161307853Y-62597864D01*
X161244297Y-62568839D01*
X161243273Y-62567942D01*
X161240483Y-62565470D01*
X161122240Y-62460717D01*
X161122238Y-62460716D01*
X161122237Y-62460715D01*
X160982365Y-62387303D01*
X160828986Y-62349500D01*
X160828985Y-62349500D01*
X160671015Y-62349500D01*
X160671014Y-62349500D01*
X160517634Y-62387303D01*
X160377762Y-62460715D01*
X160259516Y-62565471D01*
X160169781Y-62695475D01*
X160169780Y-62695476D01*
X160113763Y-62843180D01*
X160097367Y-62978208D01*
X160069745Y-63042386D01*
X160061952Y-63050942D01*
X157599716Y-65513181D01*
X157538393Y-65546666D01*
X157512035Y-65549500D01*
X152940691Y-65549500D01*
X152881091Y-65565470D01*
X152826112Y-65580201D01*
X152826107Y-65580204D01*
X152782695Y-65605267D01*
X152782696Y-65605268D01*
X152723389Y-65639508D01*
X152723383Y-65639513D01*
X151139513Y-67223383D01*
X151139509Y-67223389D01*
X151080201Y-67326112D01*
X151080200Y-67326117D01*
X151049500Y-67440691D01*
X151049500Y-74309308D01*
X151070399Y-74387305D01*
X151080199Y-74423885D01*
X151106017Y-74468601D01*
X151139511Y-74526614D01*
X152723386Y-76110489D01*
X152780432Y-76143424D01*
X152782693Y-76144729D01*
X152782696Y-76144732D01*
X152808778Y-76159790D01*
X152826114Y-76169799D01*
X152940691Y-76200500D01*
X161262035Y-76200500D01*
X161329074Y-76220185D01*
X161349716Y-76236819D01*
X162513181Y-77400284D01*
X162546666Y-77461607D01*
X162549500Y-77487965D01*
X162549500Y-88762035D01*
X162529815Y-88829074D01*
X162513181Y-88849716D01*
X154349716Y-97013181D01*
X154288393Y-97046666D01*
X154262035Y-97049500D01*
X142987966Y-97049500D01*
X142920927Y-97029815D01*
X142900285Y-97013181D01*
X140536819Y-94649715D01*
X140503334Y-94588392D01*
X140500500Y-94562034D01*
X140500500Y-86579500D01*
X140520185Y-86512461D01*
X140572989Y-86466706D01*
X140624500Y-86455500D01*
X140699996Y-86455500D01*
X140700000Y-86455500D01*
X140773085Y-86442065D01*
X140778025Y-86438771D01*
X140844722Y-86417962D01*
X140900612Y-86430225D01*
X140910835Y-86435148D01*
X140910836Y-86435148D01*
X140910837Y-86435149D01*
X140977428Y-86450348D01*
X140999995Y-86455499D01*
X141000000Y-86455500D01*
X142000003Y-86455500D01*
X142000003Y-86455499D01*
X142045728Y-86450348D01*
X142128127Y-86410666D01*
X142185149Y-86339163D01*
X142205500Y-86250000D01*
X142205500Y-86045056D01*
X142225185Y-85978017D01*
X142277989Y-85932262D01*
X142347147Y-85922318D01*
X142410703Y-85951343D01*
X142440461Y-85992611D01*
X142441186Y-85992224D01*
X142444055Y-85997592D01*
X142559024Y-86169657D01*
X142705342Y-86315975D01*
X142705345Y-86315977D01*
X142877402Y-86430941D01*
X143068580Y-86510130D01*
X143221573Y-86540562D01*
X143271530Y-86550499D01*
X143271534Y-86550500D01*
X143271535Y-86550500D01*
X143728466Y-86550500D01*
X143728467Y-86550499D01*
X143931420Y-86510130D01*
X144122598Y-86430941D01*
X144294655Y-86315977D01*
X144440977Y-86169655D01*
X144555941Y-85997598D01*
X144555942Y-85997594D01*
X144555944Y-85997592D01*
X144558814Y-85992224D01*
X144559834Y-85992769D01*
X144599778Y-85943201D01*
X144666072Y-85921135D01*
X144733771Y-85938413D01*
X144781383Y-85989549D01*
X144794500Y-86045056D01*
X144794500Y-86250004D01*
X144799651Y-86295728D01*
X144839333Y-86378126D01*
X144839334Y-86378127D01*
X144910837Y-86435149D01*
X144977428Y-86450348D01*
X144999995Y-86455499D01*
X145000000Y-86455500D01*
X145999993Y-86455500D01*
X146000000Y-86455500D01*
X146017487Y-86454755D01*
X146104595Y-86426890D01*
X146104596Y-86426888D01*
X146111063Y-86424820D01*
X146180912Y-86423142D01*
X146202647Y-86431205D01*
X146210835Y-86435147D01*
X146210837Y-86435149D01*
X146277428Y-86450348D01*
X146299995Y-86455499D01*
X146300000Y-86455500D01*
X146375500Y-86455500D01*
X146442539Y-86475185D01*
X146488294Y-86527989D01*
X146499500Y-86579500D01*
X146499500Y-92259308D01*
X146523712Y-92349672D01*
X146530200Y-92373885D01*
X146530200Y-92373886D01*
X146530201Y-92373887D01*
X146589511Y-92476614D01*
X146589513Y-92476616D01*
X146731267Y-92618370D01*
X146764752Y-92679693D01*
X146759768Y-92749385D01*
X146750000Y-92764584D01*
X146750000Y-93845854D01*
X146683343Y-93807370D01*
X146562535Y-93775000D01*
X146437465Y-93775000D01*
X146316657Y-93807370D01*
X146250000Y-93845854D01*
X146250000Y-92775000D01*
X145850028Y-92775000D01*
X145850012Y-92775001D01*
X145747302Y-92785494D01*
X145580880Y-92840641D01*
X145580875Y-92840643D01*
X145431654Y-92932684D01*
X145307684Y-93056654D01*
X145215643Y-93205875D01*
X145215641Y-93205880D01*
X145160494Y-93372302D01*
X145160493Y-93372309D01*
X145150000Y-93475013D01*
X145150000Y-94000000D01*
X146095854Y-94000000D01*
X146057370Y-94066657D01*
X146025000Y-94187465D01*
X146025000Y-94312535D01*
X146057370Y-94433343D01*
X146095854Y-94500000D01*
X145150001Y-94500000D01*
X145150001Y-95024986D01*
X145160494Y-95127697D01*
X145215641Y-95294119D01*
X145215643Y-95294124D01*
X145307684Y-95443345D01*
X145431654Y-95567315D01*
X145580875Y-95659356D01*
X145580880Y-95659358D01*
X145747302Y-95714505D01*
X145747309Y-95714506D01*
X145850019Y-95724999D01*
X146249999Y-95724999D01*
X146250000Y-95724998D01*
X146250000Y-94654145D01*
X146316657Y-94692630D01*
X146437465Y-94725000D01*
X146562535Y-94725000D01*
X146683343Y-94692630D01*
X146750000Y-94654145D01*
X146750000Y-95724999D01*
X147149972Y-95724999D01*
X147149986Y-95724998D01*
X147252697Y-95714505D01*
X147419119Y-95659358D01*
X147419124Y-95659356D01*
X147568345Y-95567315D01*
X147692315Y-95443345D01*
X147784356Y-95294124D01*
X147784358Y-95294119D01*
X147839505Y-95127697D01*
X147839506Y-95127690D01*
X147849999Y-95024986D01*
X147849999Y-94953528D01*
X147869683Y-94886488D01*
X147922486Y-94840732D01*
X147991644Y-94830788D01*
X148055200Y-94859812D01*
X148077101Y-94884635D01*
X148184022Y-95044655D01*
X148330342Y-95190975D01*
X148330345Y-95190977D01*
X148502402Y-95305941D01*
X148693580Y-95385130D01*
X148896530Y-95425499D01*
X148896534Y-95425500D01*
X148896535Y-95425500D01*
X149103466Y-95425500D01*
X149103467Y-95425499D01*
X149306420Y-95385130D01*
X149497598Y-95305941D01*
X149669655Y-95190977D01*
X149815977Y-95044655D01*
X149930941Y-94872598D01*
X150010130Y-94681420D01*
X150050499Y-94478469D01*
X150449500Y-94478469D01*
X150489868Y-94681412D01*
X150489870Y-94681420D01*
X150569058Y-94872596D01*
X150684024Y-95044657D01*
X150830342Y-95190975D01*
X150830345Y-95190977D01*
X151002402Y-95305941D01*
X151193580Y-95385130D01*
X151396530Y-95425499D01*
X151396534Y-95425500D01*
X151396535Y-95425500D01*
X151603466Y-95425500D01*
X151603467Y-95425499D01*
X151806420Y-95385130D01*
X151997598Y-95305941D01*
X152169655Y-95190977D01*
X152315977Y-95044655D01*
X152430941Y-94872598D01*
X152510130Y-94681420D01*
X152550499Y-94478469D01*
X152949500Y-94478469D01*
X152989868Y-94681412D01*
X152989870Y-94681420D01*
X153069058Y-94872596D01*
X153184024Y-95044657D01*
X153330342Y-95190975D01*
X153330345Y-95190977D01*
X153502402Y-95305941D01*
X153693580Y-95385130D01*
X153896530Y-95425499D01*
X153896534Y-95425500D01*
X153896535Y-95425500D01*
X154103466Y-95425500D01*
X154103467Y-95425499D01*
X154306420Y-95385130D01*
X154497598Y-95305941D01*
X154669655Y-95190977D01*
X154815977Y-95044655D01*
X154930941Y-94872598D01*
X155010130Y-94681420D01*
X155050500Y-94478465D01*
X155050500Y-94021535D01*
X155010130Y-93818580D01*
X154930941Y-93627402D01*
X154815977Y-93455345D01*
X154815975Y-93455342D01*
X154669657Y-93309024D01*
X154573327Y-93244659D01*
X154497598Y-93194059D01*
X154383389Y-93146752D01*
X154306420Y-93114870D01*
X154306412Y-93114868D01*
X154103469Y-93074500D01*
X154103465Y-93074500D01*
X153896535Y-93074500D01*
X153896530Y-93074500D01*
X153693587Y-93114868D01*
X153693579Y-93114870D01*
X153502403Y-93194058D01*
X153330342Y-93309024D01*
X153184024Y-93455342D01*
X153069058Y-93627403D01*
X152989870Y-93818579D01*
X152989868Y-93818587D01*
X152949500Y-94021530D01*
X152949500Y-94478469D01*
X152550499Y-94478469D01*
X152550500Y-94478465D01*
X152550500Y-94021535D01*
X152510130Y-93818580D01*
X152430941Y-93627402D01*
X152315977Y-93455345D01*
X152315975Y-93455342D01*
X152169657Y-93309024D01*
X152073327Y-93244659D01*
X151997598Y-93194059D01*
X151883389Y-93146752D01*
X151806420Y-93114870D01*
X151806412Y-93114868D01*
X151603469Y-93074500D01*
X151603465Y-93074500D01*
X151396535Y-93074500D01*
X151396530Y-93074500D01*
X151193587Y-93114868D01*
X151193579Y-93114870D01*
X151002403Y-93194058D01*
X150830342Y-93309024D01*
X150684024Y-93455342D01*
X150569058Y-93627403D01*
X150489870Y-93818579D01*
X150489868Y-93818587D01*
X150449500Y-94021530D01*
X150449500Y-94478469D01*
X150050499Y-94478469D01*
X150050500Y-94478465D01*
X150050500Y-94021535D01*
X150010130Y-93818580D01*
X149930941Y-93627402D01*
X149815977Y-93455345D01*
X149815975Y-93455342D01*
X149669657Y-93309024D01*
X149573327Y-93244659D01*
X149497598Y-93194059D01*
X149383389Y-93146752D01*
X149306420Y-93114870D01*
X149306412Y-93114868D01*
X149103469Y-93074500D01*
X149103465Y-93074500D01*
X148896535Y-93074500D01*
X148896530Y-93074500D01*
X148693587Y-93114868D01*
X148693575Y-93114871D01*
X148634640Y-93139283D01*
X148565171Y-93146752D01*
X148502692Y-93115476D01*
X148499507Y-93112403D01*
X147436819Y-92049715D01*
X147403334Y-91988392D01*
X147400500Y-91962034D01*
X147400500Y-86571102D01*
X147420185Y-86504063D01*
X147472989Y-86458308D01*
X147490175Y-86451948D01*
X147495724Y-86450348D01*
X147495728Y-86450348D01*
X147578127Y-86410666D01*
X147635149Y-86339163D01*
X147655500Y-86250000D01*
X147655500Y-85482965D01*
X147675185Y-85415926D01*
X147691819Y-85395284D01*
X149600284Y-83486819D01*
X149661607Y-83453334D01*
X149687965Y-83450500D01*
X150346309Y-83450500D01*
X150413348Y-83470185D01*
X150449411Y-83505609D01*
X150559022Y-83669655D01*
X150705342Y-83815975D01*
X150705345Y-83815977D01*
X150865367Y-83922899D01*
X150910170Y-83976509D01*
X150918878Y-84045834D01*
X150888724Y-84108862D01*
X150829282Y-84145581D01*
X150796477Y-84150000D01*
X150725029Y-84150000D01*
X150725012Y-84150001D01*
X150622302Y-84160494D01*
X150455880Y-84215641D01*
X150455875Y-84215643D01*
X150306654Y-84307684D01*
X150182684Y-84431654D01*
X150090643Y-84580875D01*
X150090641Y-84580880D01*
X150035494Y-84747302D01*
X150035493Y-84747309D01*
X150025000Y-84850013D01*
X150025000Y-85250000D01*
X151095854Y-85250000D01*
X151057370Y-85316657D01*
X151025000Y-85437465D01*
X151025000Y-85562535D01*
X151057370Y-85683343D01*
X151095854Y-85750000D01*
X150025001Y-85750000D01*
X150025001Y-86149986D01*
X150035494Y-86252697D01*
X150090641Y-86419119D01*
X150090643Y-86419124D01*
X150182684Y-86568345D01*
X150306654Y-86692315D01*
X150455875Y-86784356D01*
X150455880Y-86784358D01*
X150622302Y-86839505D01*
X150622309Y-86839506D01*
X150725019Y-86849999D01*
X151249999Y-86849999D01*
X151250000Y-86849998D01*
X151250000Y-85904145D01*
X151316657Y-85942630D01*
X151437465Y-85975000D01*
X151562535Y-85975000D01*
X151683343Y-85942630D01*
X151750000Y-85904145D01*
X151750000Y-86849999D01*
X152274972Y-86849999D01*
X152274986Y-86849998D01*
X152377697Y-86839505D01*
X152544119Y-86784358D01*
X152544124Y-86784356D01*
X152693345Y-86692315D01*
X152817315Y-86568345D01*
X152909356Y-86419124D01*
X152909358Y-86419119D01*
X152964505Y-86252697D01*
X152964506Y-86252690D01*
X152974999Y-86149986D01*
X152975000Y-86149973D01*
X152975000Y-85750000D01*
X151904146Y-85750000D01*
X151942630Y-85683343D01*
X151975000Y-85562535D01*
X151975000Y-85437465D01*
X151942630Y-85316657D01*
X151904146Y-85250000D01*
X152974999Y-85250000D01*
X152974999Y-84850028D01*
X152974998Y-84850013D01*
X152964505Y-84747302D01*
X152909358Y-84580880D01*
X152909356Y-84580875D01*
X152817315Y-84431654D01*
X152693345Y-84307684D01*
X152544124Y-84215643D01*
X152544119Y-84215641D01*
X152377697Y-84160494D01*
X152377690Y-84160493D01*
X152274986Y-84150000D01*
X152203526Y-84150000D01*
X152136487Y-84130315D01*
X152090732Y-84077511D01*
X152080788Y-84008353D01*
X152109813Y-83944797D01*
X152134633Y-83922899D01*
X152294655Y-83815977D01*
X152440977Y-83669655D01*
X152487844Y-83599513D01*
X152550589Y-83505609D01*
X152604201Y-83460804D01*
X152653691Y-83450500D01*
X158846309Y-83450500D01*
X158913348Y-83470185D01*
X158949411Y-83505609D01*
X159059022Y-83669655D01*
X159205342Y-83815975D01*
X159205345Y-83815977D01*
X159365367Y-83922899D01*
X159410170Y-83976509D01*
X159418878Y-84045834D01*
X159388724Y-84108862D01*
X159329282Y-84145581D01*
X159296477Y-84150000D01*
X159225029Y-84150000D01*
X159225012Y-84150001D01*
X159122302Y-84160494D01*
X158955880Y-84215641D01*
X158955875Y-84215643D01*
X158806654Y-84307684D01*
X158682684Y-84431654D01*
X158590643Y-84580875D01*
X158590641Y-84580880D01*
X158535494Y-84747302D01*
X158535493Y-84747309D01*
X158525000Y-84850013D01*
X158525000Y-85250000D01*
X159595854Y-85250000D01*
X159557370Y-85316657D01*
X159525000Y-85437465D01*
X159525000Y-85562535D01*
X159557370Y-85683343D01*
X159595854Y-85750000D01*
X158525001Y-85750000D01*
X158525001Y-86149986D01*
X158535494Y-86252697D01*
X158590641Y-86419119D01*
X158590643Y-86419124D01*
X158682684Y-86568345D01*
X158806654Y-86692315D01*
X158955875Y-86784356D01*
X158955880Y-86784358D01*
X159122302Y-86839505D01*
X159122309Y-86839506D01*
X159225019Y-86849999D01*
X159749999Y-86849999D01*
X159750000Y-86849998D01*
X159750000Y-85904145D01*
X159816657Y-85942630D01*
X159937465Y-85975000D01*
X160062535Y-85975000D01*
X160183343Y-85942630D01*
X160250000Y-85904145D01*
X160250000Y-86849999D01*
X160774972Y-86849999D01*
X160774986Y-86849998D01*
X160877697Y-86839505D01*
X161044119Y-86784358D01*
X161044124Y-86784356D01*
X161193345Y-86692315D01*
X161317315Y-86568345D01*
X161409356Y-86419124D01*
X161409358Y-86419119D01*
X161464505Y-86252697D01*
X161464506Y-86252690D01*
X161474999Y-86149986D01*
X161475000Y-86149973D01*
X161475000Y-85750000D01*
X160404146Y-85750000D01*
X160442630Y-85683343D01*
X160475000Y-85562535D01*
X160475000Y-85437465D01*
X160442630Y-85316657D01*
X160404146Y-85250000D01*
X161474999Y-85250000D01*
X161474999Y-84850028D01*
X161474998Y-84850013D01*
X161464505Y-84747302D01*
X161409358Y-84580880D01*
X161409356Y-84580875D01*
X161317315Y-84431654D01*
X161193345Y-84307684D01*
X161044124Y-84215643D01*
X161044119Y-84215641D01*
X160877697Y-84160494D01*
X160877690Y-84160493D01*
X160774986Y-84150000D01*
X160703526Y-84150000D01*
X160636487Y-84130315D01*
X160590732Y-84077511D01*
X160580788Y-84008353D01*
X160609813Y-83944797D01*
X160634633Y-83922899D01*
X160794655Y-83815977D01*
X160940977Y-83669655D01*
X161055941Y-83497598D01*
X161135130Y-83306420D01*
X161175500Y-83103465D01*
X161175500Y-82896535D01*
X161135130Y-82693580D01*
X161055941Y-82502402D01*
X160940977Y-82330345D01*
X160940976Y-82330344D01*
X160940975Y-82330342D01*
X160794657Y-82184024D01*
X160708626Y-82126541D01*
X160622598Y-82069059D01*
X160612388Y-82064830D01*
X160431420Y-81989870D01*
X160431412Y-81989868D01*
X160228469Y-81949500D01*
X160228465Y-81949500D01*
X159771535Y-81949500D01*
X159771530Y-81949500D01*
X159568587Y-81989868D01*
X159568579Y-81989870D01*
X159377403Y-82069058D01*
X159205342Y-82184024D01*
X159059022Y-82330344D01*
X158949411Y-82494391D01*
X158895799Y-82539196D01*
X158846309Y-82549500D01*
X152653691Y-82549500D01*
X152586652Y-82529815D01*
X152550589Y-82494391D01*
X152440977Y-82330344D01*
X152294657Y-82184024D01*
X152208626Y-82126541D01*
X152122598Y-82069059D01*
X152112388Y-82064830D01*
X151931420Y-81989870D01*
X151931412Y-81989868D01*
X151728469Y-81949500D01*
X151728465Y-81949500D01*
X151271535Y-81949500D01*
X151271530Y-81949500D01*
X151182290Y-81967251D01*
X151112698Y-81961024D01*
X151070418Y-81933315D01*
X150790098Y-81652995D01*
X150756613Y-81591672D01*
X150761597Y-81521980D01*
X150803469Y-81466047D01*
X150868933Y-81441630D01*
X150925232Y-81450753D01*
X151068580Y-81510130D01*
X151210669Y-81538393D01*
X151271530Y-81550499D01*
X151271534Y-81550500D01*
X151271535Y-81550500D01*
X151728466Y-81550500D01*
X151728467Y-81550499D01*
X151931420Y-81510130D01*
X152122598Y-81430941D01*
X152294655Y-81315977D01*
X152440977Y-81169655D01*
X152555941Y-80997598D01*
X152605875Y-80877046D01*
X152649716Y-80822644D01*
X152716010Y-80800579D01*
X152720436Y-80800500D01*
X158779564Y-80800500D01*
X158846603Y-80820185D01*
X158892358Y-80872989D01*
X158894125Y-80877047D01*
X158944056Y-80997592D01*
X158944059Y-80997598D01*
X158975769Y-81045056D01*
X159059024Y-81169657D01*
X159205342Y-81315975D01*
X159205345Y-81315977D01*
X159377402Y-81430941D01*
X159568580Y-81510130D01*
X159710669Y-81538393D01*
X159771530Y-81550499D01*
X159771534Y-81550500D01*
X159771535Y-81550500D01*
X160228466Y-81550500D01*
X160228467Y-81550499D01*
X160431420Y-81510130D01*
X160622598Y-81430941D01*
X160794655Y-81315977D01*
X160940977Y-81169655D01*
X161055941Y-80997598D01*
X161135130Y-80806420D01*
X161175500Y-80603465D01*
X161175500Y-80396535D01*
X161135130Y-80193580D01*
X161055941Y-80002402D01*
X160940977Y-79830345D01*
X160940976Y-79830344D01*
X160940975Y-79830342D01*
X160794657Y-79684024D01*
X160708626Y-79626541D01*
X160622598Y-79569059D01*
X160602666Y-79560803D01*
X160431420Y-79489870D01*
X160431412Y-79489868D01*
X160228469Y-79449500D01*
X160228465Y-79449500D01*
X159771535Y-79449500D01*
X159771530Y-79449500D01*
X159568587Y-79489868D01*
X159568579Y-79489870D01*
X159377403Y-79569058D01*
X159205342Y-79684024D01*
X159059024Y-79830342D01*
X158944058Y-80002403D01*
X158919362Y-80062025D01*
X158896865Y-80116339D01*
X158894125Y-80122953D01*
X158850284Y-80177356D01*
X158783990Y-80199421D01*
X158779564Y-80199500D01*
X152720436Y-80199500D01*
X152653397Y-80179815D01*
X152607642Y-80127011D01*
X152605875Y-80122953D01*
X152555941Y-80002402D01*
X152440977Y-79830345D01*
X152440976Y-79830344D01*
X152440975Y-79830342D01*
X152294657Y-79684024D01*
X152208626Y-79626541D01*
X152122598Y-79569059D01*
X152102666Y-79560803D01*
X151931420Y-79489870D01*
X151931412Y-79489868D01*
X151728469Y-79449500D01*
X151728465Y-79449500D01*
X151271535Y-79449500D01*
X151271530Y-79449500D01*
X151068587Y-79489868D01*
X151068579Y-79489870D01*
X150877403Y-79569058D01*
X150705342Y-79684024D01*
X150559024Y-79830342D01*
X150444058Y-80002403D01*
X150364870Y-80193579D01*
X150364868Y-80193587D01*
X150324500Y-80396530D01*
X150324500Y-80603469D01*
X150364868Y-80806412D01*
X150364871Y-80806424D01*
X150424246Y-80949768D01*
X150431715Y-81019237D01*
X150400440Y-81081716D01*
X150340351Y-81117368D01*
X150270526Y-81114874D01*
X150222004Y-81084901D01*
X149176819Y-80039716D01*
X149143334Y-79978393D01*
X149140500Y-79952035D01*
X149140500Y-78103469D01*
X150324500Y-78103469D01*
X150364868Y-78306412D01*
X150364870Y-78306420D01*
X150444058Y-78497596D01*
X150559024Y-78669657D01*
X150705342Y-78815975D01*
X150705345Y-78815977D01*
X150877402Y-78930941D01*
X151068580Y-79010130D01*
X151266508Y-79049500D01*
X151271530Y-79050499D01*
X151271534Y-79050500D01*
X151271535Y-79050500D01*
X151728466Y-79050500D01*
X151728467Y-79050499D01*
X151931420Y-79010130D01*
X152122598Y-78930941D01*
X152294655Y-78815977D01*
X152440977Y-78669655D01*
X152555941Y-78497598D01*
X152605875Y-78377046D01*
X152649716Y-78322644D01*
X152716010Y-78300579D01*
X152720436Y-78300500D01*
X158779564Y-78300500D01*
X158846603Y-78320185D01*
X158892358Y-78372989D01*
X158894121Y-78377039D01*
X158899081Y-78389011D01*
X158944058Y-78497596D01*
X159059024Y-78669657D01*
X159205342Y-78815975D01*
X159205345Y-78815977D01*
X159377402Y-78930941D01*
X159568580Y-79010130D01*
X159766508Y-79049500D01*
X159771530Y-79050499D01*
X159771534Y-79050500D01*
X159771535Y-79050500D01*
X160228466Y-79050500D01*
X160228467Y-79050499D01*
X160431420Y-79010130D01*
X160622598Y-78930941D01*
X160794655Y-78815977D01*
X160940977Y-78669655D01*
X161055941Y-78497598D01*
X161135130Y-78306420D01*
X161175500Y-78103465D01*
X161175500Y-77896535D01*
X161135130Y-77693580D01*
X161055941Y-77502402D01*
X160940977Y-77330345D01*
X160940975Y-77330342D01*
X160794657Y-77184024D01*
X160699638Y-77120535D01*
X160622598Y-77069059D01*
X160431420Y-76989870D01*
X160431412Y-76989868D01*
X160228469Y-76949500D01*
X160228465Y-76949500D01*
X159771535Y-76949500D01*
X159771530Y-76949500D01*
X159568587Y-76989868D01*
X159568579Y-76989870D01*
X159377403Y-77069058D01*
X159205342Y-77184024D01*
X159059024Y-77330342D01*
X158944058Y-77502403D01*
X158921290Y-77557370D01*
X158895388Y-77619905D01*
X158894125Y-77622953D01*
X158850284Y-77677356D01*
X158783990Y-77699421D01*
X158779564Y-77699500D01*
X152720436Y-77699500D01*
X152653397Y-77679815D01*
X152607642Y-77627011D01*
X152605875Y-77622953D01*
X152555941Y-77502402D01*
X152440977Y-77330345D01*
X152440975Y-77330342D01*
X152294657Y-77184024D01*
X152199638Y-77120535D01*
X152122598Y-77069059D01*
X151931420Y-76989870D01*
X151931412Y-76989868D01*
X151728469Y-76949500D01*
X151728465Y-76949500D01*
X151271535Y-76949500D01*
X151271530Y-76949500D01*
X151068587Y-76989868D01*
X151068579Y-76989870D01*
X150877403Y-77069058D01*
X150705342Y-77184024D01*
X150559024Y-77330342D01*
X150444058Y-77502403D01*
X150364870Y-77693579D01*
X150364868Y-77693587D01*
X150324500Y-77896530D01*
X150324500Y-78103469D01*
X149140500Y-78103469D01*
X149140500Y-73967979D01*
X149160185Y-73900940D01*
X149206047Y-73858621D01*
X149248538Y-73835910D01*
X149400883Y-73710883D01*
X149525910Y-73558538D01*
X149618814Y-73384727D01*
X149676024Y-73196132D01*
X149695341Y-73000000D01*
X149676024Y-72803868D01*
X149618814Y-72615273D01*
X149618811Y-72615269D01*
X149618811Y-72615266D01*
X149525913Y-72441467D01*
X149525909Y-72441460D01*
X149400883Y-72289116D01*
X149248539Y-72164090D01*
X149206045Y-72141376D01*
X149156201Y-72092413D01*
X149140500Y-72032019D01*
X149140500Y-69467979D01*
X149160185Y-69400940D01*
X149206047Y-69358621D01*
X149248538Y-69335910D01*
X149400883Y-69210883D01*
X149525910Y-69058538D01*
X149605765Y-68909140D01*
X149618811Y-68884733D01*
X149618811Y-68884732D01*
X149618814Y-68884727D01*
X149676024Y-68696132D01*
X149695341Y-68500000D01*
X149676024Y-68303868D01*
X149618814Y-68115273D01*
X149618811Y-68115269D01*
X149618811Y-68115266D01*
X149525913Y-67941467D01*
X149525909Y-67941460D01*
X149400883Y-67789116D01*
X149248539Y-67664090D01*
X149248532Y-67664086D01*
X149074733Y-67571188D01*
X149074727Y-67571186D01*
X148886132Y-67513976D01*
X148886129Y-67513975D01*
X148836824Y-67509119D01*
X148772037Y-67482957D01*
X148731679Y-67425922D01*
X148728563Y-67356122D01*
X148761297Y-67298037D01*
X153480460Y-62578876D01*
X153488200Y-62565470D01*
X153520021Y-62510354D01*
X153540500Y-62433927D01*
X153540500Y-59282406D01*
X153560185Y-59215367D01*
X153612989Y-59169612D01*
X153682147Y-59159668D01*
X153735625Y-59180832D01*
X153782420Y-59213599D01*
X153996507Y-59313429D01*
X153996516Y-59313433D01*
X154210000Y-59370634D01*
X154210000Y-58473012D01*
X154267007Y-58505925D01*
X154394174Y-58540000D01*
X154525826Y-58540000D01*
X154652993Y-58505925D01*
X154710000Y-58473012D01*
X154710000Y-59370633D01*
X154923483Y-59313433D01*
X154923492Y-59313429D01*
X155137578Y-59213600D01*
X155331082Y-59078105D01*
X155498105Y-58911082D01*
X155628425Y-58724968D01*
X155683002Y-58681344D01*
X155752501Y-58674151D01*
X155814855Y-58705673D01*
X155831575Y-58724968D01*
X155961894Y-58911082D01*
X156128917Y-59078105D01*
X156322421Y-59213600D01*
X156536507Y-59313429D01*
X156536516Y-59313433D01*
X156750000Y-59370634D01*
X156750000Y-58473012D01*
X156807007Y-58505925D01*
X156934174Y-58540000D01*
X157065826Y-58540000D01*
X157192993Y-58505925D01*
X157250000Y-58473012D01*
X157250000Y-59370633D01*
X157463483Y-59313433D01*
X157463492Y-59313429D01*
X157677578Y-59213600D01*
X157871082Y-59078105D01*
X158038105Y-58911082D01*
X158173600Y-58717578D01*
X158273429Y-58503492D01*
X158273433Y-58503483D01*
X158306158Y-58381350D01*
X158342522Y-58321690D01*
X158405369Y-58291160D01*
X158474745Y-58299454D01*
X158528623Y-58343939D01*
X158544593Y-58377447D01*
X158564768Y-58443954D01*
X158662315Y-58626450D01*
X158662317Y-58626452D01*
X158793589Y-58786410D01*
X158822974Y-58810525D01*
X158953550Y-58917685D01*
X159136046Y-59015232D01*
X159334066Y-59075300D01*
X159334065Y-59075300D01*
X159352529Y-59077118D01*
X159540000Y-59095583D01*
X159745934Y-59075300D01*
X159943954Y-59015232D01*
X160126450Y-58917685D01*
X160286410Y-58786410D01*
X160417685Y-58626450D01*
X160515232Y-58443954D01*
X160575300Y-58245934D01*
X160595583Y-58040000D01*
X160575300Y-57834066D01*
X160515232Y-57636046D01*
X160417685Y-57453550D01*
X160352668Y-57374326D01*
X160286410Y-57293589D01*
X160151723Y-57183056D01*
X160126450Y-57162315D01*
X159943954Y-57064768D01*
X159745934Y-57004700D01*
X159745932Y-57004699D01*
X159745934Y-57004699D01*
X159540000Y-56984417D01*
X159334067Y-57004699D01*
X159136043Y-57064769D01*
X159040167Y-57116017D01*
X158953550Y-57162315D01*
X158953548Y-57162316D01*
X158953547Y-57162317D01*
X158793589Y-57293589D01*
X158662317Y-57453547D01*
X158662315Y-57453550D01*
X158641699Y-57492120D01*
X158564767Y-57636046D01*
X158544593Y-57702552D01*
X158506296Y-57760990D01*
X158442483Y-57789447D01*
X158373416Y-57778886D01*
X158321023Y-57732661D01*
X158306158Y-57698649D01*
X158273433Y-57576516D01*
X158273429Y-57576507D01*
X158173600Y-57362422D01*
X158173599Y-57362420D01*
X158038113Y-57168926D01*
X158038108Y-57168920D01*
X157871082Y-57001894D01*
X157677578Y-56866399D01*
X157463492Y-56766570D01*
X157463486Y-56766567D01*
X157341349Y-56733841D01*
X157281689Y-56697476D01*
X157251160Y-56634629D01*
X157259455Y-56565253D01*
X157303940Y-56511375D01*
X157337444Y-56495407D01*
X157403954Y-56475232D01*
X157586450Y-56377685D01*
X157746410Y-56246410D01*
X157877685Y-56086450D01*
X157975232Y-55903954D01*
X158035300Y-55705934D01*
X158055583Y-55500000D01*
X158484417Y-55500000D01*
X158504699Y-55705932D01*
X158504700Y-55705934D01*
X158564768Y-55903954D01*
X158662315Y-56086450D01*
X158690499Y-56120793D01*
X158793589Y-56246410D01*
X158874252Y-56312607D01*
X158953550Y-56377685D01*
X159136046Y-56475232D01*
X159334066Y-56535300D01*
X159334065Y-56535300D01*
X159352529Y-56537118D01*
X159540000Y-56555583D01*
X159745934Y-56535300D01*
X159943954Y-56475232D01*
X160126450Y-56377685D01*
X160286410Y-56246410D01*
X160417685Y-56086450D01*
X160515232Y-55903954D01*
X160575300Y-55705934D01*
X160595583Y-55500000D01*
X160575300Y-55294066D01*
X160515232Y-55096046D01*
X160417685Y-54913550D01*
X160342897Y-54822420D01*
X160286410Y-54753589D01*
X160166885Y-54655499D01*
X160126450Y-54622315D01*
X159943954Y-54524768D01*
X159745934Y-54464700D01*
X159745932Y-54464699D01*
X159745934Y-54464699D01*
X159540000Y-54444417D01*
X159334067Y-54464699D01*
X159199736Y-54505448D01*
X159136930Y-54524500D01*
X159136043Y-54524769D01*
X159036221Y-54578126D01*
X158953550Y-54622315D01*
X158953548Y-54622316D01*
X158953547Y-54622317D01*
X158793589Y-54753589D01*
X158662317Y-54913547D01*
X158662315Y-54913550D01*
X158623643Y-54985898D01*
X158564769Y-55096043D01*
X158504699Y-55294067D01*
X158484417Y-55500000D01*
X158055583Y-55500000D01*
X158035300Y-55294066D01*
X157975232Y-55096046D01*
X157877685Y-54913550D01*
X157802897Y-54822420D01*
X157746410Y-54753589D01*
X157626885Y-54655499D01*
X157586450Y-54622315D01*
X157403954Y-54524768D01*
X157205934Y-54464700D01*
X157205932Y-54464699D01*
X157205934Y-54464699D01*
X157000000Y-54444417D01*
X156794067Y-54464699D01*
X156659736Y-54505448D01*
X156596930Y-54524500D01*
X156596043Y-54524769D01*
X156496221Y-54578126D01*
X156413550Y-54622315D01*
X156413548Y-54622316D01*
X156413547Y-54622317D01*
X156253589Y-54753589D01*
X156122317Y-54913547D01*
X156122315Y-54913550D01*
X156094622Y-54965358D01*
X156024767Y-55096046D01*
X156004593Y-55162552D01*
X155966296Y-55220990D01*
X155902483Y-55249447D01*
X155833416Y-55238886D01*
X155781023Y-55192661D01*
X155766158Y-55158649D01*
X155733433Y-55036516D01*
X155733429Y-55036507D01*
X155633600Y-54822422D01*
X155633599Y-54822420D01*
X155498113Y-54628926D01*
X155498108Y-54628920D01*
X155331082Y-54461894D01*
X155137578Y-54326399D01*
X154923492Y-54226570D01*
X154923486Y-54226567D01*
X154710000Y-54169364D01*
X154710000Y-55066988D01*
X154652993Y-55034075D01*
X154525826Y-55000000D01*
X154394174Y-55000000D01*
X154267007Y-55034075D01*
X154210000Y-55066988D01*
X154210000Y-54169364D01*
X154209999Y-54169364D01*
X153996513Y-54226567D01*
X153996507Y-54226570D01*
X153782425Y-54326398D01*
X153735623Y-54359169D01*
X153669416Y-54381496D01*
X153601649Y-54364484D01*
X153553837Y-54313536D01*
X153540500Y-54257593D01*
X153540500Y-49868275D01*
X153560185Y-49801236D01*
X153612989Y-49755481D01*
X153682147Y-49745537D01*
X153700482Y-49749611D01*
X153884066Y-49805300D01*
X153884065Y-49805300D01*
X153902529Y-49807118D01*
X154090000Y-49825583D01*
X154295934Y-49805300D01*
X154493954Y-49745232D01*
X154676450Y-49647685D01*
X154836410Y-49516410D01*
X154967685Y-49356450D01*
X155065232Y-49173954D01*
X155085406Y-49107446D01*
X155123702Y-49049010D01*
X155187514Y-49020553D01*
X155256581Y-49031112D01*
X155308975Y-49077336D01*
X155323841Y-49111349D01*
X155356567Y-49233486D01*
X155356570Y-49233492D01*
X155456399Y-49447578D01*
X155591894Y-49641082D01*
X155758917Y-49808105D01*
X155952421Y-49943600D01*
X156166507Y-50043429D01*
X156166516Y-50043433D01*
X156380000Y-50100634D01*
X156380000Y-49203012D01*
X156437007Y-49235925D01*
X156564174Y-49270000D01*
X156695826Y-49270000D01*
X156822993Y-49235925D01*
X156880000Y-49203012D01*
X156880000Y-50100633D01*
X157093483Y-50043433D01*
X157093492Y-50043429D01*
X157307578Y-49943600D01*
X157501082Y-49808105D01*
X157668105Y-49641082D01*
X157803600Y-49447578D01*
X157903429Y-49233492D01*
X157903433Y-49233483D01*
X157955725Y-49038327D01*
X157992090Y-48978666D01*
X158054937Y-48948137D01*
X158124312Y-48956432D01*
G37*
G04 #@! TD.AperFunction*
G04 #@! TA.AperFunction,Conductor*
G36*
X135273177Y-80466439D02*
G01*
X135329110Y-80508311D01*
X135352939Y-80567674D01*
X135363763Y-80656819D01*
X135408764Y-80775477D01*
X135419780Y-80804523D01*
X135509517Y-80934530D01*
X135627760Y-81039283D01*
X135627762Y-81039284D01*
X135767634Y-81112696D01*
X135921014Y-81150500D01*
X135921015Y-81150500D01*
X136078985Y-81150500D01*
X136232365Y-81112696D01*
X136372240Y-81039283D01*
X136490483Y-80934530D01*
X136546027Y-80854059D01*
X136600310Y-80810070D01*
X136648077Y-80800500D01*
X139220500Y-80800500D01*
X139287539Y-80820185D01*
X139333294Y-80872989D01*
X139344500Y-80924500D01*
X139344500Y-81250004D01*
X139350823Y-81306121D01*
X139348262Y-81306409D01*
X139347983Y-81361043D01*
X139309908Y-81419627D01*
X139246205Y-81448326D01*
X139229186Y-81449500D01*
X137648077Y-81449500D01*
X137581038Y-81429815D01*
X137546027Y-81395940D01*
X137533732Y-81378127D01*
X137490483Y-81315470D01*
X137372240Y-81210717D01*
X137372238Y-81210716D01*
X137372237Y-81210715D01*
X137232365Y-81137303D01*
X137078986Y-81099500D01*
X137078985Y-81099500D01*
X136921015Y-81099500D01*
X136921014Y-81099500D01*
X136767634Y-81137303D01*
X136627762Y-81210715D01*
X136509516Y-81315471D01*
X136419781Y-81445475D01*
X136419780Y-81445476D01*
X136363762Y-81593181D01*
X136344722Y-81749999D01*
X136344722Y-81750000D01*
X136363762Y-81906818D01*
X136413663Y-82038393D01*
X136419780Y-82054523D01*
X136509517Y-82184530D01*
X136627760Y-82289283D01*
X136627762Y-82289284D01*
X136767634Y-82362696D01*
X136921014Y-82400500D01*
X136921015Y-82400500D01*
X137078985Y-82400500D01*
X137232365Y-82362696D01*
X137372240Y-82289283D01*
X137490483Y-82184530D01*
X137546027Y-82104059D01*
X137600310Y-82060070D01*
X137648077Y-82050500D01*
X142152797Y-82050500D01*
X142219836Y-82070185D01*
X142265591Y-82122989D01*
X142275535Y-82192147D01*
X142253115Y-82247385D01*
X142220379Y-82292442D01*
X142123904Y-82481782D01*
X142058242Y-82683870D01*
X142058242Y-82683873D01*
X142047769Y-82750000D01*
X143095854Y-82750000D01*
X143057370Y-82816657D01*
X143025000Y-82937465D01*
X143025000Y-83062535D01*
X143057370Y-83183343D01*
X143095854Y-83250000D01*
X142047769Y-83250000D01*
X142058242Y-83316126D01*
X142058242Y-83316129D01*
X142123904Y-83518217D01*
X142220379Y-83707557D01*
X142345272Y-83879459D01*
X142345276Y-83879464D01*
X142495535Y-84029723D01*
X142495540Y-84029727D01*
X142667442Y-84154620D01*
X142856782Y-84251095D01*
X142978855Y-84290759D01*
X143036530Y-84330196D01*
X143063729Y-84394555D01*
X143051815Y-84463401D01*
X143004570Y-84514877D01*
X142987990Y-84523251D01*
X142877404Y-84569057D01*
X142705342Y-84684024D01*
X142559024Y-84830342D01*
X142444055Y-85002407D01*
X142441186Y-85007776D01*
X142440166Y-85007230D01*
X142400216Y-85056802D01*
X142333920Y-85078864D01*
X142266222Y-85061582D01*
X142218614Y-85010443D01*
X142205500Y-84954943D01*
X142205500Y-84749997D01*
X142205499Y-84749995D01*
X142205196Y-84747309D01*
X142200348Y-84704272D01*
X142190596Y-84684023D01*
X142160666Y-84621873D01*
X142089163Y-84564851D01*
X142000004Y-84544500D01*
X142000000Y-84544500D01*
X141000000Y-84544500D01*
X140982513Y-84545245D01*
X140982511Y-84545245D01*
X140888932Y-84575179D01*
X140819083Y-84576855D01*
X140797355Y-84568796D01*
X140789162Y-84564850D01*
X140700004Y-84544500D01*
X140700000Y-84544500D01*
X139550000Y-84544500D01*
X139549995Y-84544500D01*
X139504271Y-84549651D01*
X139421873Y-84589333D01*
X139364851Y-84660836D01*
X139344500Y-84749995D01*
X139344500Y-84925500D01*
X139324815Y-84992539D01*
X139272011Y-85038294D01*
X139220500Y-85049500D01*
X137987965Y-85049500D01*
X137920926Y-85029815D01*
X137900284Y-85013181D01*
X134986819Y-82099716D01*
X134953334Y-82038393D01*
X134950500Y-82012035D01*
X134950500Y-80737964D01*
X134970185Y-80670925D01*
X134986815Y-80650287D01*
X135142163Y-80494939D01*
X135203485Y-80461455D01*
X135273177Y-80466439D01*
G37*
G04 #@! TD.AperFunction*
G04 #@! TA.AperFunction,Conductor*
G36*
X148310703Y-80446256D02*
G01*
X148327875Y-80464482D01*
X148329510Y-80466613D01*
X150200716Y-82337819D01*
X150234201Y-82399142D01*
X150229217Y-82468834D01*
X150187345Y-82524767D01*
X150121881Y-82549184D01*
X150113035Y-82549500D01*
X149390691Y-82549500D01*
X149300325Y-82573713D01*
X149300324Y-82573712D01*
X149276116Y-82580199D01*
X149276113Y-82580200D01*
X149173386Y-82639511D01*
X149173383Y-82639513D01*
X147304716Y-84508181D01*
X147243393Y-84541666D01*
X147217035Y-84544500D01*
X146300000Y-84544500D01*
X146241532Y-84555248D01*
X146226914Y-84557935D01*
X146226911Y-84557936D01*
X146221968Y-84561232D01*
X146155268Y-84582038D01*
X146099389Y-84569775D01*
X146089165Y-84564851D01*
X146000004Y-84544500D01*
X146000000Y-84544500D01*
X145000000Y-84544500D01*
X144999995Y-84544500D01*
X144954271Y-84549651D01*
X144871873Y-84589333D01*
X144814851Y-84660836D01*
X144794500Y-84749995D01*
X144794500Y-84954943D01*
X144774815Y-85021982D01*
X144722011Y-85067737D01*
X144652853Y-85077681D01*
X144589297Y-85048656D01*
X144559538Y-85007388D01*
X144558814Y-85007776D01*
X144555944Y-85002407D01*
X144549350Y-84992539D01*
X144440977Y-84830345D01*
X144440975Y-84830342D01*
X144294657Y-84684024D01*
X144122596Y-84569057D01*
X144012009Y-84523251D01*
X143957606Y-84479410D01*
X143935541Y-84413116D01*
X143952820Y-84345416D01*
X144003958Y-84297806D01*
X144021144Y-84290759D01*
X144143217Y-84251095D01*
X144332557Y-84154620D01*
X144504459Y-84029727D01*
X144504464Y-84029723D01*
X144654723Y-83879464D01*
X144654727Y-83879459D01*
X144779620Y-83707557D01*
X144876095Y-83518217D01*
X144941757Y-83316129D01*
X144941757Y-83316126D01*
X144952231Y-83250000D01*
X143904146Y-83250000D01*
X143942630Y-83183343D01*
X143975000Y-83062535D01*
X143975000Y-82937465D01*
X143942630Y-82816657D01*
X143904146Y-82750000D01*
X144952231Y-82750000D01*
X144941757Y-82683873D01*
X144941757Y-82683870D01*
X144876095Y-82481782D01*
X144779620Y-82292442D01*
X144746885Y-82247385D01*
X144723405Y-82181579D01*
X144739231Y-82113525D01*
X144789336Y-82064830D01*
X144847203Y-82050500D01*
X147470896Y-82050500D01*
X147470898Y-82050500D01*
X147547325Y-82030021D01*
X147615847Y-81990460D01*
X147671796Y-81934511D01*
X148045460Y-81560847D01*
X148085022Y-81492324D01*
X148105500Y-81415898D01*
X148105500Y-81336774D01*
X148105500Y-80539969D01*
X148125185Y-80472930D01*
X148177989Y-80427175D01*
X148247147Y-80417231D01*
X148310703Y-80446256D01*
G37*
G04 #@! TD.AperFunction*
G04 #@! TA.AperFunction,Conductor*
G36*
X137287539Y-75820185D02*
G01*
X137333294Y-75872989D01*
X137344500Y-75924500D01*
X137344500Y-76250004D01*
X137349651Y-76295728D01*
X137389333Y-76378126D01*
X137389334Y-76378127D01*
X137460837Y-76435149D01*
X137527428Y-76450348D01*
X137549995Y-76455499D01*
X137550000Y-76455500D01*
X138549993Y-76455500D01*
X138550000Y-76455500D01*
X138567487Y-76454755D01*
X138654595Y-76426890D01*
X138654596Y-76426888D01*
X138661063Y-76424820D01*
X138730912Y-76423142D01*
X138752647Y-76431205D01*
X138760835Y-76435147D01*
X138760837Y-76435149D01*
X138827428Y-76450348D01*
X138849995Y-76455499D01*
X138850000Y-76455500D01*
X138925500Y-76455500D01*
X138992539Y-76475185D01*
X139038294Y-76527989D01*
X139049500Y-76579500D01*
X139049500Y-76762034D01*
X139029815Y-76829073D01*
X139013181Y-76849715D01*
X137621094Y-78241801D01*
X137559771Y-78275286D01*
X137490079Y-78270302D01*
X137461061Y-78250000D01*
X136404146Y-78250000D01*
X136442630Y-78183343D01*
X136475000Y-78062535D01*
X136475000Y-77937465D01*
X136442630Y-77816657D01*
X136404146Y-77750000D01*
X137452231Y-77750000D01*
X137441757Y-77683873D01*
X137441757Y-77683870D01*
X137376095Y-77481782D01*
X137279620Y-77292442D01*
X137154727Y-77120540D01*
X137154723Y-77120535D01*
X137004464Y-76970276D01*
X137004459Y-76970272D01*
X136832557Y-76845379D01*
X136643216Y-76748904D01*
X136521144Y-76709240D01*
X136463468Y-76669802D01*
X136436270Y-76605444D01*
X136448185Y-76536597D01*
X136495429Y-76485122D01*
X136512006Y-76476749D01*
X136622598Y-76430941D01*
X136794655Y-76315977D01*
X136940977Y-76169655D01*
X137055941Y-75997598D01*
X137105875Y-75877046D01*
X137149716Y-75822644D01*
X137216010Y-75800579D01*
X137220436Y-75800500D01*
X137220500Y-75800500D01*
X137287539Y-75820185D01*
G37*
G04 #@! TD.AperFunction*
G04 #@! TA.AperFunction,Conductor*
G36*
X143308912Y-44820185D02*
G01*
X143354667Y-44872989D01*
X143364611Y-44942147D01*
X143335586Y-45005703D01*
X143294278Y-45036882D01*
X143252422Y-45056399D01*
X143252420Y-45056400D01*
X143058926Y-45191886D01*
X143058920Y-45191891D01*
X142891891Y-45358920D01*
X142891886Y-45358926D01*
X142756400Y-45552420D01*
X142756399Y-45552422D01*
X142656570Y-45766507D01*
X142656567Y-45766514D01*
X142623841Y-45888650D01*
X142587476Y-45948310D01*
X142524629Y-45978839D01*
X142455253Y-45970544D01*
X142401375Y-45926059D01*
X142385406Y-45892552D01*
X142365232Y-45826046D01*
X142267685Y-45643550D01*
X142168053Y-45522147D01*
X142136410Y-45483589D01*
X142003447Y-45374471D01*
X141976450Y-45352315D01*
X141793954Y-45254768D01*
X141595934Y-45194700D01*
X141595932Y-45194699D01*
X141595934Y-45194699D01*
X141390000Y-45174417D01*
X141184067Y-45194699D01*
X140986043Y-45254769D01*
X140875898Y-45313643D01*
X140803550Y-45352315D01*
X140803548Y-45352316D01*
X140803547Y-45352317D01*
X140643589Y-45483589D01*
X140520143Y-45634011D01*
X140512315Y-45643550D01*
X140498063Y-45670213D01*
X140414769Y-45826043D01*
X140354699Y-46024067D01*
X140334417Y-46230000D01*
X140354699Y-46435932D01*
X140354700Y-46435934D01*
X140414768Y-46633954D01*
X140512315Y-46816450D01*
X140512317Y-46816452D01*
X140643589Y-46976410D01*
X140703165Y-47025302D01*
X140803550Y-47107685D01*
X140986046Y-47205232D01*
X141184066Y-47265300D01*
X141184065Y-47265300D01*
X141202529Y-47267118D01*
X141390000Y-47285583D01*
X141595934Y-47265300D01*
X141793954Y-47205232D01*
X141976450Y-47107685D01*
X142136410Y-46976410D01*
X142267685Y-46816450D01*
X142365232Y-46633954D01*
X142385406Y-46567446D01*
X142423702Y-46509010D01*
X142487514Y-46480553D01*
X142556581Y-46491112D01*
X142608975Y-46537336D01*
X142623841Y-46571349D01*
X142656567Y-46693486D01*
X142656570Y-46693492D01*
X142756399Y-46907578D01*
X142891894Y-47101082D01*
X143058917Y-47268105D01*
X143252421Y-47403600D01*
X143466507Y-47503429D01*
X143466516Y-47503433D01*
X143588649Y-47536158D01*
X143648310Y-47572523D01*
X143678839Y-47635369D01*
X143670545Y-47704745D01*
X143626059Y-47758623D01*
X143592552Y-47774593D01*
X143526046Y-47794767D01*
X143403146Y-47860460D01*
X143343550Y-47892315D01*
X143343548Y-47892316D01*
X143343547Y-47892317D01*
X143183589Y-48023589D01*
X143064184Y-48169087D01*
X143052315Y-48183550D01*
X143039308Y-48207884D01*
X142954769Y-48366043D01*
X142894699Y-48564067D01*
X142874417Y-48770000D01*
X142894699Y-48975932D01*
X142923362Y-49070420D01*
X142954768Y-49173954D01*
X143052315Y-49356450D01*
X143080499Y-49390793D01*
X143183589Y-49516410D01*
X143261609Y-49580438D01*
X143343550Y-49647685D01*
X143526046Y-49745232D01*
X143724066Y-49805300D01*
X143724065Y-49805300D01*
X143742529Y-49807118D01*
X143930000Y-49825583D01*
X144135934Y-49805300D01*
X144333954Y-49745232D01*
X144516450Y-49647685D01*
X144676410Y-49516410D01*
X144807685Y-49356450D01*
X144905232Y-49173954D01*
X144965300Y-48975934D01*
X144985583Y-48770000D01*
X145414417Y-48770000D01*
X145434699Y-48975932D01*
X145463362Y-49070420D01*
X145494768Y-49173954D01*
X145592315Y-49356450D01*
X145620499Y-49390793D01*
X145723589Y-49516410D01*
X145801609Y-49580438D01*
X145883550Y-49647685D01*
X146066046Y-49745232D01*
X146264066Y-49805300D01*
X146264065Y-49805300D01*
X146282529Y-49807118D01*
X146470000Y-49825583D01*
X146675934Y-49805300D01*
X146873954Y-49745232D01*
X147056450Y-49647685D01*
X147216410Y-49516410D01*
X147347685Y-49356450D01*
X147445232Y-49173954D01*
X147505300Y-48975934D01*
X147525583Y-48770000D01*
X147505300Y-48564066D01*
X147445232Y-48366046D01*
X147347685Y-48183550D01*
X147246336Y-48060055D01*
X147216410Y-48023589D01*
X147090794Y-47920500D01*
X147056450Y-47892315D01*
X146886554Y-47801502D01*
X146873956Y-47794769D01*
X146873955Y-47794768D01*
X146873954Y-47794768D01*
X146675934Y-47734700D01*
X146675932Y-47734699D01*
X146675934Y-47734699D01*
X146470000Y-47714417D01*
X146264067Y-47734699D01*
X146129736Y-47775448D01*
X146066050Y-47794767D01*
X146066043Y-47794769D01*
X145970167Y-47846017D01*
X145883550Y-47892315D01*
X145883548Y-47892316D01*
X145883547Y-47892317D01*
X145723589Y-48023589D01*
X145604184Y-48169087D01*
X145592315Y-48183550D01*
X145579308Y-48207884D01*
X145494769Y-48366043D01*
X145434699Y-48564067D01*
X145414417Y-48770000D01*
X144985583Y-48770000D01*
X144965300Y-48564066D01*
X144905232Y-48366046D01*
X144807685Y-48183550D01*
X144706336Y-48060055D01*
X144676410Y-48023589D01*
X144550794Y-47920500D01*
X144516450Y-47892315D01*
X144346554Y-47801502D01*
X144333956Y-47794769D01*
X144333955Y-47794768D01*
X144333954Y-47794768D01*
X144267447Y-47774593D01*
X144209009Y-47736296D01*
X144180553Y-47672484D01*
X144191113Y-47603417D01*
X144237337Y-47551023D01*
X144271350Y-47536158D01*
X144393483Y-47503433D01*
X144393492Y-47503429D01*
X144607578Y-47403600D01*
X144801082Y-47268105D01*
X144968105Y-47101082D01*
X145103600Y-46907578D01*
X145203429Y-46693492D01*
X145203433Y-46693483D01*
X145236158Y-46571350D01*
X145272522Y-46511690D01*
X145335369Y-46481160D01*
X145404745Y-46489454D01*
X145458623Y-46533939D01*
X145474593Y-46567447D01*
X145494768Y-46633954D01*
X145592315Y-46816450D01*
X145592317Y-46816452D01*
X145723589Y-46976410D01*
X145783165Y-47025302D01*
X145883550Y-47107685D01*
X146066046Y-47205232D01*
X146264066Y-47265300D01*
X146264065Y-47265300D01*
X146282529Y-47267118D01*
X146470000Y-47285583D01*
X146675934Y-47265300D01*
X146873954Y-47205232D01*
X147056450Y-47107685D01*
X147216410Y-46976410D01*
X147347685Y-46816450D01*
X147445232Y-46633954D01*
X147465406Y-46567446D01*
X147503702Y-46509010D01*
X147567514Y-46480553D01*
X147636581Y-46491112D01*
X147688975Y-46537336D01*
X147703841Y-46571349D01*
X147736567Y-46693486D01*
X147736570Y-46693492D01*
X147836399Y-46907578D01*
X147971894Y-47101082D01*
X148138917Y-47268105D01*
X148332421Y-47403600D01*
X148546507Y-47503429D01*
X148546516Y-47503433D01*
X148668649Y-47536158D01*
X148728310Y-47572523D01*
X148758839Y-47635369D01*
X148750545Y-47704745D01*
X148706059Y-47758623D01*
X148672552Y-47774593D01*
X148606046Y-47794767D01*
X148483146Y-47860460D01*
X148423550Y-47892315D01*
X148423548Y-47892316D01*
X148423547Y-47892317D01*
X148263589Y-48023589D01*
X148144184Y-48169087D01*
X148132315Y-48183550D01*
X148119308Y-48207884D01*
X148034769Y-48366043D01*
X147974699Y-48564067D01*
X147954417Y-48770000D01*
X147974699Y-48975932D01*
X148003362Y-49070420D01*
X148034768Y-49173954D01*
X148132315Y-49356450D01*
X148160499Y-49390793D01*
X148263589Y-49516410D01*
X148341609Y-49580438D01*
X148423550Y-49647685D01*
X148606046Y-49745232D01*
X148804066Y-49805300D01*
X148804065Y-49805300D01*
X148822529Y-49807118D01*
X149010000Y-49825583D01*
X149215934Y-49805300D01*
X149413954Y-49745232D01*
X149596450Y-49647685D01*
X149756410Y-49516410D01*
X149887685Y-49356450D01*
X149985232Y-49173954D01*
X150045300Y-48975934D01*
X150065583Y-48770000D01*
X150494417Y-48770000D01*
X150514699Y-48975932D01*
X150543362Y-49070420D01*
X150574768Y-49173954D01*
X150672315Y-49356450D01*
X150700499Y-49390793D01*
X150803589Y-49516410D01*
X150881609Y-49580438D01*
X150963550Y-49647685D01*
X151146046Y-49745232D01*
X151344066Y-49805300D01*
X151344065Y-49805300D01*
X151362529Y-49807118D01*
X151550000Y-49825583D01*
X151755934Y-49805300D01*
X151953954Y-49745232D01*
X152136450Y-49647685D01*
X152296410Y-49516410D01*
X152427685Y-49356450D01*
X152525232Y-49173954D01*
X152585300Y-48975934D01*
X152605583Y-48770000D01*
X152585300Y-48564066D01*
X152525232Y-48366046D01*
X152427685Y-48183550D01*
X152326336Y-48060055D01*
X152296410Y-48023589D01*
X152170794Y-47920500D01*
X152136450Y-47892315D01*
X151966554Y-47801502D01*
X151953956Y-47794769D01*
X151953955Y-47794768D01*
X151953954Y-47794768D01*
X151755934Y-47734700D01*
X151755932Y-47734699D01*
X151755934Y-47734699D01*
X151550000Y-47714417D01*
X151344067Y-47734699D01*
X151209736Y-47775448D01*
X151146050Y-47794767D01*
X151146043Y-47794769D01*
X151050167Y-47846017D01*
X150963550Y-47892315D01*
X150963548Y-47892316D01*
X150963547Y-47892317D01*
X150803589Y-48023589D01*
X150684184Y-48169087D01*
X150672315Y-48183550D01*
X150659308Y-48207884D01*
X150574769Y-48366043D01*
X150514699Y-48564067D01*
X150494417Y-48770000D01*
X150065583Y-48770000D01*
X150045300Y-48564066D01*
X149985232Y-48366046D01*
X149887685Y-48183550D01*
X149786336Y-48060055D01*
X149756410Y-48023589D01*
X149630794Y-47920500D01*
X149596450Y-47892315D01*
X149426554Y-47801502D01*
X149413956Y-47794769D01*
X149413955Y-47794768D01*
X149413954Y-47794768D01*
X149347447Y-47774593D01*
X149289009Y-47736296D01*
X149260553Y-47672484D01*
X149271113Y-47603417D01*
X149317337Y-47551023D01*
X149351350Y-47536158D01*
X149473483Y-47503433D01*
X149473492Y-47503429D01*
X149687578Y-47403600D01*
X149881082Y-47268105D01*
X150048105Y-47101082D01*
X150183600Y-46907578D01*
X150283429Y-46693492D01*
X150283433Y-46693483D01*
X150316158Y-46571350D01*
X150352522Y-46511690D01*
X150415369Y-46481160D01*
X150484745Y-46489454D01*
X150538623Y-46533939D01*
X150554593Y-46567447D01*
X150574768Y-46633954D01*
X150672315Y-46816450D01*
X150672317Y-46816452D01*
X150803589Y-46976410D01*
X150863165Y-47025302D01*
X150963550Y-47107685D01*
X151146046Y-47205232D01*
X151344066Y-47265300D01*
X151344065Y-47265300D01*
X151362529Y-47267118D01*
X151550000Y-47285583D01*
X151755934Y-47265300D01*
X151953954Y-47205232D01*
X152136450Y-47107685D01*
X152296410Y-46976410D01*
X152427685Y-46816450D01*
X152525232Y-46633954D01*
X152585300Y-46435934D01*
X152605583Y-46230000D01*
X153034417Y-46230000D01*
X153054699Y-46435932D01*
X153054700Y-46435934D01*
X153114768Y-46633954D01*
X153212315Y-46816450D01*
X153212317Y-46816452D01*
X153343589Y-46976410D01*
X153403165Y-47025302D01*
X153503550Y-47107685D01*
X153686046Y-47205232D01*
X153884066Y-47265300D01*
X153884065Y-47265300D01*
X153902529Y-47267118D01*
X154090000Y-47285583D01*
X154295934Y-47265300D01*
X154493954Y-47205232D01*
X154676450Y-47107685D01*
X154836410Y-46976410D01*
X154967685Y-46816450D01*
X155065232Y-46633954D01*
X155125300Y-46435934D01*
X155145583Y-46230000D01*
X155125300Y-46024066D01*
X155065232Y-45826046D01*
X154967685Y-45643550D01*
X154868053Y-45522147D01*
X154836410Y-45483589D01*
X154703447Y-45374471D01*
X154676450Y-45352315D01*
X154493954Y-45254768D01*
X154295934Y-45194700D01*
X154295932Y-45194699D01*
X154295934Y-45194699D01*
X154090000Y-45174417D01*
X153884067Y-45194699D01*
X153686043Y-45254769D01*
X153575898Y-45313643D01*
X153503550Y-45352315D01*
X153503548Y-45352316D01*
X153503547Y-45352317D01*
X153343589Y-45483589D01*
X153220143Y-45634011D01*
X153212315Y-45643550D01*
X153198063Y-45670213D01*
X153114769Y-45826043D01*
X153054699Y-46024067D01*
X153034417Y-46230000D01*
X152605583Y-46230000D01*
X152585300Y-46024066D01*
X152525232Y-45826046D01*
X152427685Y-45643550D01*
X152328053Y-45522147D01*
X152296410Y-45483589D01*
X152163447Y-45374471D01*
X152136450Y-45352315D01*
X151953954Y-45254768D01*
X151755934Y-45194700D01*
X151755932Y-45194699D01*
X151755934Y-45194699D01*
X151550000Y-45174417D01*
X151344067Y-45194699D01*
X151146043Y-45254769D01*
X151035898Y-45313643D01*
X150963550Y-45352315D01*
X150963548Y-45352316D01*
X150963547Y-45352317D01*
X150803589Y-45483589D01*
X150680143Y-45634011D01*
X150672315Y-45643550D01*
X150658063Y-45670213D01*
X150574767Y-45826046D01*
X150554593Y-45892552D01*
X150516296Y-45950990D01*
X150452483Y-45979447D01*
X150383416Y-45968886D01*
X150331023Y-45922661D01*
X150316158Y-45888649D01*
X150283433Y-45766516D01*
X150283429Y-45766507D01*
X150183600Y-45552422D01*
X150183599Y-45552420D01*
X150048113Y-45358926D01*
X150048108Y-45358920D01*
X149881082Y-45191894D01*
X149687578Y-45056399D01*
X149645722Y-45036882D01*
X149593283Y-44990710D01*
X149574131Y-44923516D01*
X149594347Y-44856635D01*
X149647512Y-44811300D01*
X149698127Y-44800500D01*
X157574167Y-44800500D01*
X157641206Y-44820185D01*
X157661848Y-44836819D01*
X158163181Y-45338152D01*
X158196666Y-45399475D01*
X158199500Y-45425833D01*
X158199500Y-48469579D01*
X158179815Y-48536618D01*
X158127011Y-48582373D01*
X158057853Y-48592317D01*
X157994297Y-48563292D01*
X157956523Y-48504514D01*
X157955725Y-48501672D01*
X157903433Y-48306516D01*
X157903429Y-48306507D01*
X157803600Y-48092422D01*
X157803599Y-48092420D01*
X157668113Y-47898926D01*
X157668108Y-47898920D01*
X157501082Y-47731894D01*
X157307578Y-47596399D01*
X157093492Y-47496570D01*
X157093486Y-47496567D01*
X156971349Y-47463841D01*
X156911689Y-47427476D01*
X156881160Y-47364629D01*
X156889455Y-47295253D01*
X156933940Y-47241375D01*
X156967444Y-47225407D01*
X157033954Y-47205232D01*
X157216450Y-47107685D01*
X157376410Y-46976410D01*
X157507685Y-46816450D01*
X157605232Y-46633954D01*
X157665300Y-46435934D01*
X157685583Y-46230000D01*
X157665300Y-46024066D01*
X157605232Y-45826046D01*
X157507685Y-45643550D01*
X157408053Y-45522147D01*
X157376410Y-45483589D01*
X157243447Y-45374471D01*
X157216450Y-45352315D01*
X157033954Y-45254768D01*
X156835934Y-45194700D01*
X156835932Y-45194699D01*
X156835934Y-45194699D01*
X156630000Y-45174417D01*
X156424067Y-45194699D01*
X156226043Y-45254769D01*
X156115898Y-45313643D01*
X156043550Y-45352315D01*
X156043548Y-45352316D01*
X156043547Y-45352317D01*
X155883589Y-45483589D01*
X155760143Y-45634011D01*
X155752315Y-45643550D01*
X155738063Y-45670213D01*
X155654769Y-45826043D01*
X155594699Y-46024067D01*
X155574417Y-46230000D01*
X155594699Y-46435932D01*
X155594700Y-46435934D01*
X155654768Y-46633954D01*
X155752315Y-46816450D01*
X155752317Y-46816452D01*
X155883589Y-46976410D01*
X155943165Y-47025302D01*
X156043550Y-47107685D01*
X156226046Y-47205232D01*
X156292551Y-47225405D01*
X156350989Y-47263702D01*
X156379446Y-47327514D01*
X156368887Y-47396581D01*
X156322663Y-47448975D01*
X156288650Y-47463841D01*
X156166514Y-47496567D01*
X156166507Y-47496570D01*
X155952422Y-47596399D01*
X155952420Y-47596400D01*
X155758926Y-47731886D01*
X155758920Y-47731891D01*
X155591891Y-47898920D01*
X155591886Y-47898926D01*
X155456400Y-48092420D01*
X155456399Y-48092422D01*
X155356570Y-48306507D01*
X155356567Y-48306514D01*
X155323841Y-48428650D01*
X155287476Y-48488310D01*
X155224629Y-48518839D01*
X155155253Y-48510544D01*
X155101375Y-48466059D01*
X155085406Y-48432552D01*
X155065232Y-48366046D01*
X154967685Y-48183550D01*
X154866336Y-48060055D01*
X154836410Y-48023589D01*
X154710794Y-47920500D01*
X154676450Y-47892315D01*
X154506554Y-47801502D01*
X154493956Y-47794769D01*
X154493955Y-47794768D01*
X154493954Y-47794768D01*
X154295934Y-47734700D01*
X154295932Y-47734699D01*
X154295934Y-47734699D01*
X154090000Y-47714417D01*
X153884067Y-47734699D01*
X153749736Y-47775448D01*
X153686050Y-47794767D01*
X153686043Y-47794769D01*
X153590167Y-47846017D01*
X153503550Y-47892315D01*
X153503548Y-47892316D01*
X153503547Y-47892317D01*
X153343589Y-48023589D01*
X153224184Y-48169087D01*
X153212315Y-48183550D01*
X153199308Y-48207884D01*
X153114769Y-48366043D01*
X153054699Y-48564067D01*
X153034417Y-48770000D01*
X153054699Y-48975932D01*
X153114769Y-49173956D01*
X153122379Y-49188193D01*
X153136620Y-49256596D01*
X153111619Y-49321840D01*
X153100702Y-49334325D01*
X153055489Y-49379539D01*
X153055489Y-49379540D01*
X152999538Y-49435491D01*
X152999535Y-49435495D01*
X152959982Y-49504004D01*
X152959979Y-49504009D01*
X152956511Y-49516953D01*
X152941181Y-49574167D01*
X152939500Y-49580439D01*
X152939500Y-54739794D01*
X152919815Y-54806833D01*
X152867011Y-54852588D01*
X152797853Y-54862532D01*
X152734297Y-54833507D01*
X152719647Y-54818459D01*
X152666410Y-54753590D01*
X152546885Y-54655499D01*
X152506450Y-54622315D01*
X152323954Y-54524768D01*
X152125934Y-54464700D01*
X152125932Y-54464699D01*
X152125934Y-54464699D01*
X151920000Y-54444417D01*
X151714067Y-54464699D01*
X151516039Y-54524770D01*
X151501800Y-54532381D01*
X151433397Y-54546620D01*
X151368154Y-54521616D01*
X151355672Y-54510701D01*
X148104512Y-51259541D01*
X148104504Y-51259535D01*
X148035995Y-51219982D01*
X148035990Y-51219979D01*
X148010513Y-51213152D01*
X147959562Y-51199500D01*
X147959560Y-51199500D01*
X138648077Y-51199500D01*
X138581038Y-51179815D01*
X138546027Y-51145940D01*
X138490483Y-51065470D01*
X138372240Y-50960717D01*
X138372238Y-50960716D01*
X138372237Y-50960715D01*
X138232365Y-50887303D01*
X138078986Y-50849500D01*
X138078985Y-50849500D01*
X137921015Y-50849500D01*
X137921014Y-50849500D01*
X137767634Y-50887303D01*
X137627762Y-50960715D01*
X137509516Y-51065471D01*
X137419781Y-51195475D01*
X137419780Y-51195476D01*
X137363762Y-51343181D01*
X137344722Y-51499999D01*
X137344722Y-51500000D01*
X137363762Y-51656818D01*
X137409196Y-51776616D01*
X137419780Y-51804523D01*
X137509517Y-51934530D01*
X137627760Y-52039283D01*
X137627762Y-52039284D01*
X137767634Y-52112696D01*
X137921014Y-52150500D01*
X137921015Y-52150500D01*
X138078985Y-52150500D01*
X138232365Y-52112696D01*
X138293148Y-52080794D01*
X138372240Y-52039283D01*
X138490483Y-51934530D01*
X138546027Y-51854059D01*
X138600310Y-51810070D01*
X138648077Y-51800500D01*
X147744167Y-51800500D01*
X147811206Y-51820185D01*
X147831848Y-51836819D01*
X150930701Y-54935672D01*
X150964186Y-54996995D01*
X150959202Y-55066687D01*
X150952381Y-55081800D01*
X150944770Y-55096039D01*
X150884699Y-55294067D01*
X150864417Y-55500000D01*
X150884699Y-55705932D01*
X150884700Y-55705934D01*
X150944768Y-55903954D01*
X151042315Y-56086450D01*
X151070499Y-56120793D01*
X151173589Y-56246410D01*
X151254252Y-56312607D01*
X151333550Y-56377685D01*
X151516046Y-56475232D01*
X151582551Y-56495405D01*
X151640989Y-56533702D01*
X151669446Y-56597514D01*
X151658887Y-56666581D01*
X151612663Y-56718975D01*
X151578650Y-56733841D01*
X151456514Y-56766567D01*
X151456507Y-56766570D01*
X151242422Y-56866399D01*
X151242420Y-56866400D01*
X151048926Y-57001886D01*
X151048920Y-57001891D01*
X150881891Y-57168920D01*
X150881886Y-57168926D01*
X150746400Y-57362420D01*
X150746399Y-57362422D01*
X150646570Y-57576507D01*
X150646567Y-57576514D01*
X150613841Y-57698650D01*
X150577476Y-57758310D01*
X150514629Y-57788839D01*
X150445253Y-57780544D01*
X150391375Y-57736059D01*
X150375406Y-57702552D01*
X150355232Y-57636046D01*
X150257685Y-57453550D01*
X150192668Y-57374326D01*
X150126410Y-57293589D01*
X149991723Y-57183056D01*
X149966450Y-57162315D01*
X149783954Y-57064768D01*
X149585934Y-57004700D01*
X149585932Y-57004699D01*
X149585934Y-57004699D01*
X149380000Y-56984417D01*
X149174067Y-57004699D01*
X148976043Y-57064769D01*
X148880167Y-57116017D01*
X148793550Y-57162315D01*
X148793548Y-57162316D01*
X148793547Y-57162317D01*
X148633589Y-57293589D01*
X148502317Y-57453547D01*
X148502315Y-57453550D01*
X148481699Y-57492120D01*
X148404769Y-57636043D01*
X148404769Y-57636044D01*
X148404768Y-57636046D01*
X148399524Y-57653334D01*
X148344699Y-57834067D01*
X148324417Y-58040000D01*
X148344699Y-58245932D01*
X148344700Y-58245934D01*
X148404768Y-58443954D01*
X148502315Y-58626450D01*
X148502317Y-58626452D01*
X148633589Y-58786410D01*
X148662974Y-58810525D01*
X148793550Y-58917685D01*
X148976046Y-59015232D01*
X149174066Y-59075300D01*
X149174065Y-59075300D01*
X149192529Y-59077118D01*
X149380000Y-59095583D01*
X149585934Y-59075300D01*
X149783954Y-59015232D01*
X149966450Y-58917685D01*
X150126410Y-58786410D01*
X150257685Y-58626450D01*
X150355232Y-58443954D01*
X150375406Y-58377446D01*
X150413702Y-58319010D01*
X150477514Y-58290553D01*
X150546581Y-58301112D01*
X150598975Y-58347336D01*
X150613841Y-58381349D01*
X150646567Y-58503486D01*
X150646570Y-58503492D01*
X150746399Y-58717578D01*
X150881894Y-58911082D01*
X151048917Y-59078105D01*
X151242421Y-59213600D01*
X151456507Y-59313429D01*
X151456516Y-59313433D01*
X151670000Y-59370634D01*
X151670000Y-58473012D01*
X151727007Y-58505925D01*
X151854174Y-58540000D01*
X151985826Y-58540000D01*
X152112993Y-58505925D01*
X152170000Y-58473012D01*
X152170000Y-59370634D01*
X152383483Y-59313433D01*
X152383492Y-59313429D01*
X152597579Y-59213599D01*
X152597585Y-59213595D01*
X152744376Y-59110811D01*
X152810582Y-59088483D01*
X152878349Y-59105493D01*
X152926163Y-59156440D01*
X152939500Y-59212385D01*
X152939500Y-62218532D01*
X152919815Y-62285571D01*
X152903181Y-62306213D01*
X147159541Y-68049852D01*
X147159535Y-68049860D01*
X147119982Y-68118369D01*
X147119979Y-68118374D01*
X147099500Y-68194804D01*
X147099500Y-74123821D01*
X147079815Y-74190860D01*
X147027011Y-74236615D01*
X146957853Y-74246559D01*
X146894297Y-74217534D01*
X146887819Y-74211502D01*
X144285858Y-71609541D01*
X144285857Y-71609540D01*
X144227575Y-71575891D01*
X144179360Y-71525325D01*
X144166136Y-71456718D01*
X144192104Y-71391853D01*
X144220681Y-71365403D01*
X144294655Y-71315977D01*
X144440977Y-71169655D01*
X144555941Y-70997598D01*
X144635130Y-70806420D01*
X144675500Y-70603465D01*
X144675500Y-70396535D01*
X144635130Y-70193580D01*
X144555941Y-70002402D01*
X144440977Y-69830345D01*
X144440975Y-69830342D01*
X144294657Y-69684024D01*
X144152940Y-69589333D01*
X144122598Y-69569059D01*
X144075743Y-69549651D01*
X143931420Y-69489870D01*
X143931412Y-69489868D01*
X143728469Y-69449500D01*
X143728465Y-69449500D01*
X143271535Y-69449500D01*
X143271530Y-69449500D01*
X143068587Y-69489868D01*
X143068579Y-69489870D01*
X142877403Y-69569058D01*
X142705342Y-69684024D01*
X142559024Y-69830342D01*
X142444058Y-70002403D01*
X142364870Y-70193579D01*
X142364868Y-70193587D01*
X142324500Y-70396530D01*
X142324500Y-70603469D01*
X142364868Y-70806412D01*
X142364870Y-70806420D01*
X142444058Y-70997596D01*
X142559024Y-71169657D01*
X142705341Y-71315974D01*
X142705345Y-71315977D01*
X142714954Y-71322398D01*
X142759759Y-71376011D01*
X142768466Y-71445336D01*
X142738311Y-71508363D01*
X142678868Y-71545082D01*
X142646063Y-71549500D01*
X142325833Y-71549500D01*
X142258794Y-71529815D01*
X142238152Y-71513181D01*
X141636819Y-70911848D01*
X141603334Y-70850525D01*
X141600500Y-70824167D01*
X141600500Y-66824833D01*
X141620185Y-66757794D01*
X141672989Y-66712039D01*
X141742147Y-66702095D01*
X141805703Y-66731120D01*
X141812181Y-66737152D01*
X142425522Y-67350493D01*
X142459007Y-67411816D01*
X142454023Y-67481508D01*
X142446264Y-67496676D01*
X142446929Y-67497032D01*
X142444059Y-67502400D01*
X142364870Y-67693579D01*
X142364868Y-67693587D01*
X142324500Y-67896530D01*
X142324500Y-68103469D01*
X142364868Y-68306412D01*
X142364870Y-68306420D01*
X142444058Y-68497596D01*
X142559024Y-68669657D01*
X142705342Y-68815975D01*
X142705345Y-68815977D01*
X142877402Y-68930941D01*
X143068580Y-69010130D01*
X143266508Y-69049500D01*
X143271530Y-69050499D01*
X143271534Y-69050500D01*
X143271535Y-69050500D01*
X143728466Y-69050500D01*
X143728467Y-69050499D01*
X143931420Y-69010130D01*
X144122598Y-68930941D01*
X144294655Y-68815977D01*
X144440977Y-68669655D01*
X144555941Y-68497598D01*
X144635130Y-68306420D01*
X144675500Y-68103465D01*
X144675500Y-67896535D01*
X144635130Y-67693580D01*
X144555941Y-67502402D01*
X144440977Y-67330345D01*
X144440975Y-67330342D01*
X144294657Y-67184024D01*
X144182048Y-67108782D01*
X144122598Y-67069059D01*
X144122593Y-67069057D01*
X143931420Y-66989870D01*
X143931412Y-66989868D01*
X143728469Y-66949500D01*
X143728465Y-66949500D01*
X143271535Y-66949500D01*
X143271530Y-66949500D01*
X143068587Y-66989868D01*
X143068580Y-66989870D01*
X143036415Y-67003193D01*
X142966946Y-67010661D01*
X142904467Y-66979385D01*
X142901283Y-66976312D01*
X142687152Y-66762181D01*
X142653667Y-66700858D01*
X142658651Y-66631166D01*
X142700523Y-66575233D01*
X142765987Y-66550816D01*
X142774833Y-66550500D01*
X144279270Y-66550500D01*
X144309699Y-66547646D01*
X144309701Y-66547646D01*
X144380165Y-66522989D01*
X144437882Y-66502793D01*
X144547150Y-66422150D01*
X144627793Y-66312882D01*
X144664648Y-66207557D01*
X144672646Y-66184701D01*
X144672646Y-66184699D01*
X144675500Y-66154269D01*
X144675500Y-64845730D01*
X144672646Y-64815300D01*
X144672646Y-64815298D01*
X144627793Y-64687119D01*
X144627792Y-64687117D01*
X144625883Y-64684530D01*
X144547150Y-64577850D01*
X144437882Y-64497207D01*
X144437880Y-64497206D01*
X144309700Y-64452353D01*
X144279270Y-64449500D01*
X144279266Y-64449500D01*
X142720734Y-64449500D01*
X142720730Y-64449500D01*
X142690300Y-64452353D01*
X142690298Y-64452353D01*
X142562119Y-64497206D01*
X142562117Y-64497207D01*
X142452850Y-64577850D01*
X142372207Y-64687117D01*
X142372206Y-64687119D01*
X142327353Y-64815298D01*
X142327353Y-64815300D01*
X142324500Y-64845730D01*
X142324500Y-66100167D01*
X142304815Y-66167206D01*
X142252011Y-66212961D01*
X142182853Y-66222905D01*
X142119297Y-66193880D01*
X142112819Y-66187848D01*
X142036819Y-66111848D01*
X142003334Y-66050525D01*
X142000500Y-66024167D01*
X142000500Y-63213384D01*
X142000500Y-63213383D01*
X141980021Y-63136956D01*
X141958988Y-63100525D01*
X141940464Y-63068440D01*
X141940458Y-63068432D01*
X141734207Y-62862181D01*
X141700722Y-62800858D01*
X141705706Y-62731166D01*
X141747578Y-62675233D01*
X141813042Y-62650816D01*
X141821888Y-62650500D01*
X141828985Y-62650500D01*
X141982365Y-62612696D01*
X142122240Y-62539283D01*
X142240483Y-62434530D01*
X142272950Y-62387492D01*
X142327233Y-62343503D01*
X142396681Y-62335843D01*
X142459246Y-62366946D01*
X142477049Y-62387492D01*
X142509517Y-62434530D01*
X142627760Y-62539283D01*
X142627762Y-62539284D01*
X142767634Y-62612696D01*
X142921014Y-62650500D01*
X142921015Y-62650500D01*
X143078984Y-62650500D01*
X143078985Y-62650500D01*
X143128647Y-62638259D01*
X143198449Y-62641328D01*
X143246004Y-62670975D01*
X146326965Y-65751936D01*
X146360450Y-65813259D01*
X146362380Y-65854563D01*
X146344722Y-65999999D01*
X146344722Y-66000000D01*
X146363762Y-66156818D01*
X146403666Y-66262035D01*
X146419780Y-66304523D01*
X146509517Y-66434530D01*
X146627760Y-66539283D01*
X146627762Y-66539284D01*
X146767634Y-66612696D01*
X146921014Y-66650500D01*
X146921015Y-66650500D01*
X147078985Y-66650500D01*
X147232365Y-66612696D01*
X147294520Y-66580074D01*
X147372240Y-66539283D01*
X147490483Y-66434530D01*
X147580220Y-66304523D01*
X147636237Y-66156818D01*
X147655278Y-66000000D01*
X147652243Y-65975000D01*
X147636237Y-65843181D01*
X147609162Y-65771790D01*
X147580220Y-65695477D01*
X147490483Y-65565470D01*
X147372240Y-65460717D01*
X147372238Y-65460716D01*
X147372237Y-65460715D01*
X147232365Y-65387303D01*
X147078986Y-65349500D01*
X147078985Y-65349500D01*
X146921015Y-65349500D01*
X146921011Y-65349500D01*
X146871349Y-65361740D01*
X146801547Y-65358670D01*
X146753995Y-65329024D01*
X143673034Y-62248063D01*
X143639549Y-62186740D01*
X143637619Y-62145436D01*
X143655278Y-62000000D01*
X144094722Y-62000000D01*
X144113762Y-62156818D01*
X144152720Y-62259540D01*
X144169780Y-62304523D01*
X144259517Y-62434530D01*
X144377760Y-62539283D01*
X144377762Y-62539284D01*
X144517634Y-62612696D01*
X144671014Y-62650500D01*
X144671015Y-62650500D01*
X144828984Y-62650500D01*
X144828985Y-62650500D01*
X144878647Y-62638259D01*
X144948449Y-62641328D01*
X144996004Y-62670975D01*
X146326965Y-64001936D01*
X146360450Y-64063259D01*
X146362380Y-64104563D01*
X146344722Y-64249999D01*
X146344722Y-64250000D01*
X146363762Y-64406818D01*
X146398043Y-64497207D01*
X146419780Y-64554523D01*
X146509517Y-64684530D01*
X146627760Y-64789283D01*
X146627762Y-64789284D01*
X146767634Y-64862696D01*
X146921014Y-64900500D01*
X146921015Y-64900500D01*
X147078985Y-64900500D01*
X147232365Y-64862696D01*
X147264683Y-64845734D01*
X147372240Y-64789283D01*
X147490483Y-64684530D01*
X147580220Y-64554523D01*
X147636237Y-64406818D01*
X147655278Y-64250000D01*
X147643497Y-64152969D01*
X147636237Y-64093181D01*
X147609814Y-64023511D01*
X147580220Y-63945477D01*
X147490483Y-63815470D01*
X147372240Y-63710717D01*
X147372238Y-63710716D01*
X147372237Y-63710715D01*
X147232365Y-63637303D01*
X147078986Y-63599500D01*
X147078985Y-63599500D01*
X146921015Y-63599500D01*
X146921011Y-63599500D01*
X146871349Y-63611740D01*
X146801547Y-63608670D01*
X146753995Y-63579024D01*
X145423034Y-62248063D01*
X145389549Y-62186740D01*
X145387619Y-62145436D01*
X145405278Y-62000000D01*
X145405278Y-61999999D01*
X145386237Y-61843181D01*
X145364992Y-61787164D01*
X145330220Y-61695477D01*
X145240483Y-61565470D01*
X145122240Y-61460717D01*
X145122238Y-61460716D01*
X145122237Y-61460715D01*
X144982365Y-61387303D01*
X144828986Y-61349500D01*
X144828985Y-61349500D01*
X144671015Y-61349500D01*
X144671014Y-61349500D01*
X144517634Y-61387303D01*
X144377762Y-61460715D01*
X144377760Y-61460717D01*
X144266472Y-61559309D01*
X144259516Y-61565471D01*
X144169781Y-61695475D01*
X144169780Y-61695476D01*
X144113762Y-61843181D01*
X144094722Y-61999999D01*
X144094722Y-62000000D01*
X143655278Y-62000000D01*
X143655278Y-61999999D01*
X143636237Y-61843181D01*
X143614992Y-61787164D01*
X143580220Y-61695477D01*
X143490483Y-61565470D01*
X143372240Y-61460717D01*
X143372238Y-61460716D01*
X143372237Y-61460715D01*
X143232365Y-61387303D01*
X143078986Y-61349500D01*
X143078985Y-61349500D01*
X142921015Y-61349500D01*
X142921014Y-61349500D01*
X142767634Y-61387303D01*
X142627762Y-61460715D01*
X142509517Y-61565469D01*
X142477050Y-61612507D01*
X142422766Y-61656497D01*
X142353318Y-61664156D01*
X142290753Y-61633052D01*
X142272950Y-61612507D01*
X142250592Y-61580116D01*
X142240483Y-61565470D01*
X142122240Y-61460717D01*
X142122238Y-61460716D01*
X142122237Y-61460715D01*
X141982365Y-61387303D01*
X141828986Y-61349500D01*
X141828985Y-61349500D01*
X141671015Y-61349500D01*
X141671014Y-61349500D01*
X141517634Y-61387303D01*
X141377762Y-61460715D01*
X141259515Y-61565471D01*
X141239356Y-61594676D01*
X141185071Y-61638665D01*
X141115623Y-61646322D01*
X141053059Y-61615217D01*
X141049627Y-61611914D01*
X140394023Y-60956310D01*
X140360538Y-60894987D01*
X140365522Y-60825295D01*
X140394023Y-60780948D01*
X141648152Y-59526819D01*
X141709475Y-59493334D01*
X141735833Y-59490500D01*
X142275906Y-59490500D01*
X142275908Y-59490500D01*
X142352335Y-59470021D01*
X142420857Y-59430460D01*
X142476806Y-59374511D01*
X143236574Y-58614742D01*
X143297895Y-58581259D01*
X143367586Y-58586243D01*
X143420106Y-58623760D01*
X143542943Y-58773437D01*
X143553590Y-58786410D01*
X143713550Y-58917685D01*
X143896046Y-59015232D01*
X144094066Y-59075300D01*
X144094065Y-59075300D01*
X144112529Y-59077118D01*
X144300000Y-59095583D01*
X144505934Y-59075300D01*
X144703954Y-59015232D01*
X144886450Y-58917685D01*
X145046410Y-58786410D01*
X145177685Y-58626450D01*
X145275232Y-58443954D01*
X145335300Y-58245934D01*
X145355583Y-58040000D01*
X145784417Y-58040000D01*
X145804699Y-58245932D01*
X145804700Y-58245934D01*
X145864768Y-58443954D01*
X145962315Y-58626450D01*
X145962317Y-58626452D01*
X146093589Y-58786410D01*
X146122974Y-58810525D01*
X146253550Y-58917685D01*
X146436046Y-59015232D01*
X146634066Y-59075300D01*
X146634065Y-59075300D01*
X146652529Y-59077118D01*
X146840000Y-59095583D01*
X147045934Y-59075300D01*
X147243954Y-59015232D01*
X147426450Y-58917685D01*
X147586410Y-58786410D01*
X147717685Y-58626450D01*
X147815232Y-58443954D01*
X147875300Y-58245934D01*
X147895583Y-58040000D01*
X147875300Y-57834066D01*
X147815232Y-57636046D01*
X147717685Y-57453550D01*
X147652668Y-57374326D01*
X147586410Y-57293589D01*
X147451723Y-57183056D01*
X147426450Y-57162315D01*
X147243954Y-57064768D01*
X147045934Y-57004700D01*
X147045932Y-57004699D01*
X147045934Y-57004699D01*
X146840000Y-56984417D01*
X146634067Y-57004699D01*
X146436043Y-57064769D01*
X146340167Y-57116017D01*
X146253550Y-57162315D01*
X146253548Y-57162316D01*
X146253547Y-57162317D01*
X146093589Y-57293589D01*
X145962317Y-57453547D01*
X145962315Y-57453550D01*
X145941699Y-57492120D01*
X145864769Y-57636043D01*
X145864769Y-57636044D01*
X145864768Y-57636046D01*
X145859524Y-57653334D01*
X145804699Y-57834067D01*
X145784417Y-58040000D01*
X145355583Y-58040000D01*
X145335300Y-57834066D01*
X145275232Y-57636046D01*
X145177685Y-57453550D01*
X145112668Y-57374326D01*
X145046410Y-57293589D01*
X144911723Y-57183056D01*
X144886450Y-57162315D01*
X144703954Y-57064768D01*
X144505934Y-57004700D01*
X144505932Y-57004699D01*
X144505934Y-57004699D01*
X144300000Y-56984417D01*
X144094066Y-57004699D01*
X143959453Y-57045533D01*
X143889586Y-57046156D01*
X143830474Y-57008907D01*
X143800883Y-56945613D01*
X143810210Y-56876368D01*
X143835775Y-56839195D01*
X144094112Y-56580857D01*
X144155433Y-56547374D01*
X144193942Y-56545137D01*
X144300000Y-56555583D01*
X144505934Y-56535300D01*
X144703954Y-56475232D01*
X144886450Y-56377685D01*
X145046410Y-56246410D01*
X145177685Y-56086450D01*
X145275232Y-55903954D01*
X145335300Y-55705934D01*
X145355583Y-55500000D01*
X145784417Y-55500000D01*
X145804699Y-55705932D01*
X145804700Y-55705934D01*
X145864768Y-55903954D01*
X145962315Y-56086450D01*
X145990499Y-56120793D01*
X146093589Y-56246410D01*
X146174252Y-56312607D01*
X146253550Y-56377685D01*
X146436046Y-56475232D01*
X146634066Y-56535300D01*
X146634065Y-56535300D01*
X146652529Y-56537118D01*
X146840000Y-56555583D01*
X147045934Y-56535300D01*
X147243954Y-56475232D01*
X147426450Y-56377685D01*
X147586410Y-56246410D01*
X147717685Y-56086450D01*
X147815232Y-55903954D01*
X147875300Y-55705934D01*
X147895583Y-55500000D01*
X148324417Y-55500000D01*
X148344699Y-55705932D01*
X148344700Y-55705934D01*
X148404768Y-55903954D01*
X148502315Y-56086450D01*
X148530499Y-56120793D01*
X148633589Y-56246410D01*
X148714252Y-56312607D01*
X148793550Y-56377685D01*
X148976046Y-56475232D01*
X149174066Y-56535300D01*
X149174065Y-56535300D01*
X149192529Y-56537118D01*
X149380000Y-56555583D01*
X149585934Y-56535300D01*
X149783954Y-56475232D01*
X149966450Y-56377685D01*
X150126410Y-56246410D01*
X150257685Y-56086450D01*
X150355232Y-55903954D01*
X150415300Y-55705934D01*
X150435583Y-55500000D01*
X150415300Y-55294066D01*
X150355232Y-55096046D01*
X150257685Y-54913550D01*
X150182897Y-54822420D01*
X150126410Y-54753589D01*
X150006885Y-54655499D01*
X149966450Y-54622315D01*
X149783954Y-54524768D01*
X149585934Y-54464700D01*
X149585932Y-54464699D01*
X149585934Y-54464699D01*
X149380000Y-54444417D01*
X149174067Y-54464699D01*
X149039736Y-54505448D01*
X148976930Y-54524500D01*
X148976043Y-54524769D01*
X148876221Y-54578126D01*
X148793550Y-54622315D01*
X148793548Y-54622316D01*
X148793547Y-54622317D01*
X148633589Y-54753589D01*
X148502317Y-54913547D01*
X148502315Y-54913550D01*
X148463643Y-54985898D01*
X148404769Y-55096043D01*
X148344699Y-55294067D01*
X148324417Y-55500000D01*
X147895583Y-55500000D01*
X147875300Y-55294066D01*
X147815232Y-55096046D01*
X147717685Y-54913550D01*
X147642897Y-54822420D01*
X147586410Y-54753589D01*
X147466885Y-54655499D01*
X147426450Y-54622315D01*
X147243954Y-54524768D01*
X147045934Y-54464700D01*
X147045932Y-54464699D01*
X147045934Y-54464699D01*
X146840000Y-54444417D01*
X146634067Y-54464699D01*
X146499736Y-54505448D01*
X146436930Y-54524500D01*
X146436043Y-54524769D01*
X146336221Y-54578126D01*
X146253550Y-54622315D01*
X146253548Y-54622316D01*
X146253547Y-54622317D01*
X146093589Y-54753589D01*
X145962317Y-54913547D01*
X145962315Y-54913550D01*
X145923643Y-54985898D01*
X145864769Y-55096043D01*
X145804699Y-55294067D01*
X145784417Y-55500000D01*
X145355583Y-55500000D01*
X145335300Y-55294066D01*
X145275232Y-55096046D01*
X145177685Y-54913550D01*
X145102897Y-54822420D01*
X145046410Y-54753589D01*
X144926885Y-54655499D01*
X144886450Y-54622315D01*
X144703954Y-54524768D01*
X144505934Y-54464700D01*
X144505932Y-54464699D01*
X144505934Y-54464699D01*
X144300000Y-54444417D01*
X144094067Y-54464699D01*
X143959736Y-54505448D01*
X143896930Y-54524500D01*
X143896043Y-54524769D01*
X143796221Y-54578126D01*
X143713550Y-54622315D01*
X143713548Y-54622316D01*
X143713547Y-54622317D01*
X143553589Y-54753589D01*
X143422317Y-54913547D01*
X143422315Y-54913550D01*
X143383643Y-54985898D01*
X143324769Y-55096043D01*
X143264699Y-55294067D01*
X143244417Y-55500000D01*
X143264699Y-55705932D01*
X143264700Y-55705934D01*
X143324768Y-55903954D01*
X143357892Y-55965925D01*
X143422316Y-56086452D01*
X143493574Y-56173280D01*
X143520887Y-56237589D01*
X143509096Y-56306456D01*
X143485402Y-56339625D01*
X142815489Y-57009540D01*
X142759541Y-57065487D01*
X142759535Y-57065495D01*
X142719982Y-57134004D01*
X142719979Y-57134009D01*
X142697397Y-57218288D01*
X142695295Y-57217725D01*
X142671643Y-57271180D01*
X142613315Y-57309646D01*
X142543450Y-57310472D01*
X142498313Y-57286944D01*
X142371723Y-57183056D01*
X142346450Y-57162315D01*
X142163954Y-57064768D01*
X141965934Y-57004700D01*
X141965932Y-57004699D01*
X141965934Y-57004699D01*
X141760000Y-56984417D01*
X141554067Y-57004699D01*
X141356043Y-57064769D01*
X141260167Y-57116017D01*
X141173550Y-57162315D01*
X141173548Y-57162316D01*
X141173547Y-57162317D01*
X141013589Y-57293589D01*
X140882317Y-57453547D01*
X140882315Y-57453550D01*
X140861699Y-57492120D01*
X140784769Y-57636043D01*
X140784769Y-57636044D01*
X140784768Y-57636046D01*
X140779524Y-57653334D01*
X140724699Y-57834067D01*
X140704417Y-58040000D01*
X140724699Y-58245932D01*
X140724700Y-58245934D01*
X140777466Y-58419883D01*
X140784769Y-58443956D01*
X140792379Y-58458193D01*
X140806620Y-58526596D01*
X140781619Y-58591840D01*
X140770701Y-58604326D01*
X138939017Y-60436012D01*
X138939009Y-60436020D01*
X138928357Y-60446670D01*
X138867031Y-60480150D01*
X138797340Y-60475159D01*
X138753003Y-60446662D01*
X136346341Y-58040000D01*
X138164417Y-58040000D01*
X138184699Y-58245932D01*
X138184700Y-58245934D01*
X138244768Y-58443954D01*
X138342315Y-58626450D01*
X138342317Y-58626452D01*
X138473589Y-58786410D01*
X138502974Y-58810525D01*
X138633550Y-58917685D01*
X138816046Y-59015232D01*
X139014066Y-59075300D01*
X139014065Y-59075300D01*
X139032529Y-59077118D01*
X139220000Y-59095583D01*
X139425934Y-59075300D01*
X139623954Y-59015232D01*
X139806450Y-58917685D01*
X139966410Y-58786410D01*
X140097685Y-58626450D01*
X140195232Y-58443954D01*
X140255300Y-58245934D01*
X140275583Y-58040000D01*
X140255300Y-57834066D01*
X140195232Y-57636046D01*
X140097685Y-57453550D01*
X140032668Y-57374326D01*
X139966410Y-57293589D01*
X139831723Y-57183056D01*
X139806450Y-57162315D01*
X139623954Y-57064768D01*
X139425934Y-57004700D01*
X139425932Y-57004699D01*
X139425934Y-57004699D01*
X139220000Y-56984417D01*
X139014067Y-57004699D01*
X138816043Y-57064769D01*
X138720167Y-57116017D01*
X138633550Y-57162315D01*
X138633548Y-57162316D01*
X138633547Y-57162317D01*
X138473589Y-57293589D01*
X138342317Y-57453547D01*
X138342315Y-57453550D01*
X138321699Y-57492120D01*
X138244769Y-57636043D01*
X138244769Y-57636044D01*
X138244768Y-57636046D01*
X138239524Y-57653334D01*
X138184699Y-57834067D01*
X138164417Y-58040000D01*
X136346341Y-58040000D01*
X135336819Y-57030478D01*
X135303334Y-56969155D01*
X135300500Y-56942797D01*
X135300500Y-56369752D01*
X138169500Y-56369752D01*
X138181131Y-56428229D01*
X138181132Y-56428230D01*
X138225447Y-56494552D01*
X138291769Y-56538867D01*
X138291770Y-56538868D01*
X138350247Y-56550499D01*
X138350250Y-56550500D01*
X138350252Y-56550500D01*
X140089750Y-56550500D01*
X140089751Y-56550499D01*
X140104568Y-56547552D01*
X140148229Y-56538868D01*
X140148229Y-56538867D01*
X140148231Y-56538867D01*
X140214552Y-56494552D01*
X140258867Y-56428231D01*
X140258867Y-56428229D01*
X140258868Y-56428229D01*
X140268922Y-56377682D01*
X140270500Y-56369748D01*
X140270500Y-55500000D01*
X140704417Y-55500000D01*
X140724699Y-55705932D01*
X140724700Y-55705934D01*
X140784768Y-55903954D01*
X140882315Y-56086450D01*
X140910499Y-56120793D01*
X141013589Y-56246410D01*
X141094252Y-56312607D01*
X141173550Y-56377685D01*
X141356046Y-56475232D01*
X141554066Y-56535300D01*
X141554065Y-56535300D01*
X141572529Y-56537118D01*
X141760000Y-56555583D01*
X141965934Y-56535300D01*
X142163954Y-56475232D01*
X142346450Y-56377685D01*
X142506410Y-56246410D01*
X142637685Y-56086450D01*
X142735232Y-55903954D01*
X142795300Y-55705934D01*
X142815583Y-55500000D01*
X142795300Y-55294066D01*
X142735232Y-55096046D01*
X142637685Y-54913550D01*
X142562897Y-54822420D01*
X142506410Y-54753589D01*
X142386885Y-54655499D01*
X142346450Y-54622315D01*
X142163954Y-54524768D01*
X141965934Y-54464700D01*
X141965932Y-54464699D01*
X141965934Y-54464699D01*
X141760000Y-54444417D01*
X141554067Y-54464699D01*
X141419736Y-54505448D01*
X141356930Y-54524500D01*
X141356043Y-54524769D01*
X141256221Y-54578126D01*
X141173550Y-54622315D01*
X141173548Y-54622316D01*
X141173547Y-54622317D01*
X141013589Y-54753589D01*
X140882317Y-54913547D01*
X140882315Y-54913550D01*
X140843643Y-54985898D01*
X140784769Y-55096043D01*
X140724699Y-55294067D01*
X140704417Y-55500000D01*
X140270500Y-55500000D01*
X140270500Y-54630252D01*
X140270500Y-54630249D01*
X140270499Y-54630247D01*
X140258868Y-54571770D01*
X140258867Y-54571769D01*
X140214552Y-54505447D01*
X140148230Y-54461132D01*
X140148229Y-54461131D01*
X140089752Y-54449500D01*
X140089748Y-54449500D01*
X138350252Y-54449500D01*
X138350247Y-54449500D01*
X138291770Y-54461131D01*
X138291769Y-54461132D01*
X138225447Y-54505447D01*
X138181132Y-54571769D01*
X138181131Y-54571770D01*
X138169500Y-54630247D01*
X138169500Y-56369752D01*
X135300500Y-56369752D01*
X135300500Y-49542390D01*
X135320185Y-49475351D01*
X135372989Y-49429596D01*
X135442147Y-49419652D01*
X135505703Y-49448677D01*
X135520354Y-49463726D01*
X135563589Y-49516410D01*
X135641609Y-49580438D01*
X135723550Y-49647685D01*
X135906046Y-49745232D01*
X136104066Y-49805300D01*
X136104065Y-49805300D01*
X136122529Y-49807118D01*
X136310000Y-49825583D01*
X136515934Y-49805300D01*
X136713954Y-49745232D01*
X136896450Y-49647685D01*
X137056410Y-49516410D01*
X137187685Y-49356450D01*
X137285232Y-49173954D01*
X137305406Y-49107446D01*
X137343702Y-49049010D01*
X137407514Y-49020553D01*
X137476581Y-49031112D01*
X137528975Y-49077336D01*
X137543841Y-49111349D01*
X137576567Y-49233486D01*
X137576570Y-49233492D01*
X137676399Y-49447578D01*
X137811894Y-49641082D01*
X137978917Y-49808105D01*
X138172421Y-49943600D01*
X138386507Y-50043429D01*
X138386516Y-50043433D01*
X138600000Y-50100634D01*
X138600000Y-49203012D01*
X138657007Y-49235925D01*
X138784174Y-49270000D01*
X138915826Y-49270000D01*
X139042993Y-49235925D01*
X139100000Y-49203012D01*
X139100000Y-50100633D01*
X139313483Y-50043433D01*
X139313492Y-50043429D01*
X139527578Y-49943600D01*
X139721082Y-49808105D01*
X139888105Y-49641082D01*
X140023600Y-49447578D01*
X140123429Y-49233492D01*
X140123433Y-49233483D01*
X140156158Y-49111350D01*
X140192522Y-49051690D01*
X140255369Y-49021160D01*
X140324745Y-49029454D01*
X140378623Y-49073939D01*
X140394593Y-49107447D01*
X140414768Y-49173954D01*
X140512315Y-49356450D01*
X140540499Y-49390793D01*
X140643589Y-49516410D01*
X140721609Y-49580438D01*
X140803550Y-49647685D01*
X140986046Y-49745232D01*
X141184066Y-49805300D01*
X141184065Y-49805300D01*
X141202529Y-49807118D01*
X141390000Y-49825583D01*
X141595934Y-49805300D01*
X141793954Y-49745232D01*
X141976450Y-49647685D01*
X142136410Y-49516410D01*
X142267685Y-49356450D01*
X142365232Y-49173954D01*
X142425300Y-48975934D01*
X142445583Y-48770000D01*
X142425300Y-48564066D01*
X142365232Y-48366046D01*
X142267685Y-48183550D01*
X142166336Y-48060055D01*
X142136410Y-48023589D01*
X142010794Y-47920500D01*
X141976450Y-47892315D01*
X141806554Y-47801502D01*
X141793956Y-47794769D01*
X141793955Y-47794768D01*
X141793954Y-47794768D01*
X141595934Y-47734700D01*
X141595932Y-47734699D01*
X141595934Y-47734699D01*
X141390000Y-47714417D01*
X141184067Y-47734699D01*
X141049736Y-47775448D01*
X140986050Y-47794767D01*
X140986043Y-47794769D01*
X140890167Y-47846017D01*
X140803550Y-47892315D01*
X140803548Y-47892316D01*
X140803547Y-47892317D01*
X140643589Y-48023589D01*
X140524184Y-48169087D01*
X140512315Y-48183550D01*
X140499308Y-48207884D01*
X140414767Y-48366046D01*
X140394593Y-48432552D01*
X140356296Y-48490990D01*
X140292483Y-48519447D01*
X140223416Y-48508886D01*
X140171023Y-48462661D01*
X140156158Y-48428649D01*
X140123433Y-48306516D01*
X140123429Y-48306507D01*
X140023600Y-48092422D01*
X140023599Y-48092420D01*
X139888113Y-47898926D01*
X139888108Y-47898920D01*
X139721082Y-47731894D01*
X139527578Y-47596399D01*
X139313492Y-47496570D01*
X139313486Y-47496567D01*
X139191349Y-47463841D01*
X139131689Y-47427476D01*
X139101160Y-47364629D01*
X139109455Y-47295253D01*
X139153940Y-47241375D01*
X139187444Y-47225407D01*
X139253954Y-47205232D01*
X139436450Y-47107685D01*
X139596410Y-46976410D01*
X139727685Y-46816450D01*
X139825232Y-46633954D01*
X139885300Y-46435934D01*
X139905583Y-46230000D01*
X139885300Y-46024066D01*
X139825232Y-45826046D01*
X139727685Y-45643550D01*
X139628053Y-45522147D01*
X139596410Y-45483589D01*
X139463447Y-45374471D01*
X139436450Y-45352315D01*
X139253954Y-45254768D01*
X139055934Y-45194700D01*
X139055932Y-45194699D01*
X139055934Y-45194699D01*
X138850000Y-45174417D01*
X138644067Y-45194699D01*
X138446043Y-45254769D01*
X138335898Y-45313643D01*
X138263550Y-45352315D01*
X138263548Y-45352316D01*
X138263547Y-45352317D01*
X138103589Y-45483589D01*
X137980143Y-45634011D01*
X137972315Y-45643550D01*
X137958063Y-45670213D01*
X137874769Y-45826043D01*
X137814699Y-46024067D01*
X137794417Y-46230000D01*
X137814699Y-46435932D01*
X137814700Y-46435934D01*
X137859447Y-46583448D01*
X137874769Y-46633956D01*
X137882379Y-46648193D01*
X137896620Y-46716596D01*
X137871619Y-46781840D01*
X137860701Y-46794326D01*
X137371848Y-47283181D01*
X137310525Y-47316666D01*
X137284167Y-47319500D01*
X136984910Y-47319500D01*
X136917871Y-47299815D01*
X136872116Y-47247011D01*
X136862172Y-47177853D01*
X136891197Y-47114297D01*
X136906246Y-47099646D01*
X137056410Y-46976410D01*
X137065089Y-46965835D01*
X137187685Y-46816450D01*
X137285232Y-46633954D01*
X137345300Y-46435934D01*
X137365583Y-46230000D01*
X137345300Y-46024066D01*
X137285232Y-45826046D01*
X137187685Y-45643550D01*
X137088053Y-45522147D01*
X137056410Y-45483589D01*
X136923447Y-45374471D01*
X136896450Y-45352315D01*
X136713954Y-45254768D01*
X136515934Y-45194700D01*
X136515932Y-45194699D01*
X136515934Y-45194699D01*
X136310000Y-45174417D01*
X136104067Y-45194699D01*
X135906039Y-45254770D01*
X135891800Y-45262381D01*
X135823397Y-45276620D01*
X135758154Y-45251616D01*
X135745672Y-45240701D01*
X135517152Y-45012181D01*
X135483667Y-44950858D01*
X135488651Y-44881166D01*
X135530523Y-44825233D01*
X135595987Y-44800816D01*
X135604833Y-44800500D01*
X143241873Y-44800500D01*
X143308912Y-44820185D01*
G37*
G04 #@! TD.AperFunction*
G04 #@! TA.AperFunction,Conductor*
G36*
X116868834Y-49486501D02*
G01*
X116924767Y-49528373D01*
X116949184Y-49593837D01*
X116949500Y-49602683D01*
X116949500Y-61039562D01*
X116952431Y-61050499D01*
X116969979Y-61115990D01*
X116969980Y-61115991D01*
X116995266Y-61159789D01*
X117000659Y-61169129D01*
X117001697Y-61170926D01*
X117009542Y-61184514D01*
X119778118Y-63953089D01*
X119811603Y-64014412D01*
X119806619Y-64084104D01*
X119770969Y-64135060D01*
X119750000Y-64152969D01*
X119750000Y-65095854D01*
X119683343Y-65057370D01*
X119562535Y-65025000D01*
X119437465Y-65025000D01*
X119316657Y-65057370D01*
X119250000Y-65095854D01*
X119250000Y-64152969D01*
X119058872Y-64183242D01*
X119058869Y-64183242D01*
X118856782Y-64248904D01*
X118667442Y-64345379D01*
X118495540Y-64470272D01*
X118495535Y-64470276D01*
X118345276Y-64620535D01*
X118345272Y-64620540D01*
X118220379Y-64792442D01*
X118123904Y-64981782D01*
X118058242Y-65183870D01*
X118058242Y-65183873D01*
X118047769Y-65250000D01*
X119095854Y-65250000D01*
X119057370Y-65316657D01*
X119025000Y-65437465D01*
X119025000Y-65562535D01*
X119057370Y-65683343D01*
X119095854Y-65750000D01*
X118047768Y-65750000D01*
X118058225Y-65816022D01*
X118049270Y-65885315D01*
X118004274Y-65938767D01*
X117937522Y-65959406D01*
X117870209Y-65940681D01*
X117848071Y-65923100D01*
X115086819Y-63161848D01*
X115053334Y-63100525D01*
X115050500Y-63074167D01*
X115050500Y-49620121D01*
X115070185Y-49553082D01*
X115122989Y-49507327D01*
X115192147Y-49497383D01*
X115253165Y-49524268D01*
X115393883Y-49639752D01*
X115403550Y-49647685D01*
X115586046Y-49745232D01*
X115784066Y-49805300D01*
X115784065Y-49805300D01*
X115802529Y-49807118D01*
X115990000Y-49825583D01*
X116195934Y-49805300D01*
X116393954Y-49745232D01*
X116576450Y-49647685D01*
X116736410Y-49516410D01*
X116736411Y-49516408D01*
X116736413Y-49516407D01*
X116737819Y-49515002D01*
X116738736Y-49514500D01*
X116741120Y-49512545D01*
X116741490Y-49512996D01*
X116799142Y-49481517D01*
X116868834Y-49486501D01*
G37*
G04 #@! TD.AperFunction*
G04 #@! TA.AperFunction,Conductor*
G36*
X152882539Y-57809685D02*
G01*
X152928294Y-57862489D01*
X152939500Y-57914000D01*
X152939500Y-58166000D01*
X152919815Y-58233039D01*
X152867011Y-58278794D01*
X152815500Y-58290000D01*
X152353012Y-58290000D01*
X152385925Y-58232993D01*
X152420000Y-58105826D01*
X152420000Y-57974174D01*
X152385925Y-57847007D01*
X152353012Y-57790000D01*
X152815500Y-57790000D01*
X152882539Y-57809685D01*
G37*
G04 #@! TD.AperFunction*
G04 #@! TA.AperFunction,Conductor*
G36*
X153994075Y-57847007D02*
G01*
X153960000Y-57974174D01*
X153960000Y-58105826D01*
X153994075Y-58232993D01*
X154026988Y-58290000D01*
X153664500Y-58290000D01*
X153597461Y-58270315D01*
X153551706Y-58217511D01*
X153540500Y-58166000D01*
X153540500Y-57914000D01*
X153560185Y-57846961D01*
X153612989Y-57801206D01*
X153664500Y-57790000D01*
X154026988Y-57790000D01*
X153994075Y-57847007D01*
G37*
G04 #@! TD.AperFunction*
G04 #@! TA.AperFunction,Conductor*
G36*
X156534075Y-57847007D02*
G01*
X156500000Y-57974174D01*
X156500000Y-58105826D01*
X156534075Y-58232993D01*
X156566988Y-58290000D01*
X154893012Y-58290000D01*
X154925925Y-58232993D01*
X154960000Y-58105826D01*
X154960000Y-57974174D01*
X154925925Y-57847007D01*
X154893012Y-57790000D01*
X156566988Y-57790000D01*
X156534075Y-57847007D01*
G37*
G04 #@! TD.AperFunction*
G04 #@! TA.AperFunction,Conductor*
G36*
X154710000Y-57606988D02*
G01*
X154652993Y-57574075D01*
X154525826Y-57540000D01*
X154394174Y-57540000D01*
X154267007Y-57574075D01*
X154210000Y-57606988D01*
X154210000Y-55933012D01*
X154267007Y-55965925D01*
X154394174Y-56000000D01*
X154525826Y-56000000D01*
X154652993Y-55965925D01*
X154710000Y-55933012D01*
X154710000Y-57606988D01*
G37*
G04 #@! TD.AperFunction*
G04 #@! TA.AperFunction,Conductor*
G36*
X122988912Y-44820185D02*
G01*
X123034667Y-44872989D01*
X123044611Y-44942147D01*
X123015586Y-45005703D01*
X122974278Y-45036882D01*
X122932422Y-45056399D01*
X122932420Y-45056400D01*
X122738926Y-45191886D01*
X122738920Y-45191891D01*
X122571891Y-45358920D01*
X122571886Y-45358926D01*
X122436400Y-45552420D01*
X122436399Y-45552422D01*
X122336570Y-45766507D01*
X122336567Y-45766514D01*
X122303841Y-45888650D01*
X122267476Y-45948310D01*
X122204629Y-45978839D01*
X122135253Y-45970544D01*
X122081375Y-45926059D01*
X122065406Y-45892552D01*
X122045232Y-45826046D01*
X121947685Y-45643550D01*
X121848053Y-45522147D01*
X121816410Y-45483589D01*
X121683447Y-45374471D01*
X121656450Y-45352315D01*
X121473954Y-45254768D01*
X121275934Y-45194700D01*
X121275932Y-45194699D01*
X121275934Y-45194699D01*
X121070000Y-45174417D01*
X120864067Y-45194699D01*
X120666043Y-45254769D01*
X120555898Y-45313643D01*
X120483550Y-45352315D01*
X120483548Y-45352316D01*
X120483547Y-45352317D01*
X120323589Y-45483589D01*
X120200143Y-45634011D01*
X120192315Y-45643550D01*
X120178063Y-45670213D01*
X120094769Y-45826043D01*
X120034699Y-46024067D01*
X120014417Y-46230000D01*
X120034699Y-46435932D01*
X120034700Y-46435934D01*
X120094768Y-46633954D01*
X120192315Y-46816450D01*
X120192317Y-46816452D01*
X120323589Y-46976410D01*
X120383165Y-47025302D01*
X120483550Y-47107685D01*
X120666046Y-47205232D01*
X120864066Y-47265300D01*
X120864065Y-47265300D01*
X120882529Y-47267118D01*
X121070000Y-47285583D01*
X121275934Y-47265300D01*
X121473954Y-47205232D01*
X121488191Y-47197621D01*
X121556592Y-47183379D01*
X121621837Y-47208377D01*
X121634327Y-47219298D01*
X122123181Y-47708152D01*
X122156666Y-47769475D01*
X122159500Y-47795833D01*
X122159500Y-48095090D01*
X122139815Y-48162129D01*
X122087011Y-48207884D01*
X122017853Y-48217828D01*
X121954297Y-48188803D01*
X121939646Y-48173754D01*
X121816410Y-48023589D01*
X121690794Y-47920500D01*
X121656450Y-47892315D01*
X121486554Y-47801502D01*
X121473956Y-47794769D01*
X121473955Y-47794768D01*
X121473954Y-47794768D01*
X121275934Y-47734700D01*
X121275932Y-47734699D01*
X121275934Y-47734699D01*
X121070000Y-47714417D01*
X120864067Y-47734699D01*
X120729736Y-47775448D01*
X120666050Y-47794767D01*
X120666043Y-47794769D01*
X120570167Y-47846017D01*
X120483550Y-47892315D01*
X120483548Y-47892316D01*
X120483547Y-47892317D01*
X120323589Y-48023589D01*
X120204184Y-48169087D01*
X120192315Y-48183550D01*
X120179308Y-48207884D01*
X120094767Y-48366046D01*
X120074593Y-48432552D01*
X120036296Y-48490990D01*
X119972483Y-48519447D01*
X119903416Y-48508886D01*
X119851023Y-48462661D01*
X119836158Y-48428649D01*
X119803433Y-48306516D01*
X119803429Y-48306507D01*
X119703600Y-48092422D01*
X119703599Y-48092420D01*
X119568113Y-47898926D01*
X119568108Y-47898920D01*
X119401082Y-47731894D01*
X119207578Y-47596399D01*
X118993492Y-47496570D01*
X118993486Y-47496567D01*
X118871349Y-47463841D01*
X118811689Y-47427476D01*
X118781160Y-47364629D01*
X118789455Y-47295253D01*
X118833940Y-47241375D01*
X118867444Y-47225407D01*
X118933954Y-47205232D01*
X119116450Y-47107685D01*
X119276410Y-46976410D01*
X119407685Y-46816450D01*
X119505232Y-46633954D01*
X119565300Y-46435934D01*
X119585583Y-46230000D01*
X119565300Y-46024066D01*
X119505232Y-45826046D01*
X119407685Y-45643550D01*
X119308053Y-45522147D01*
X119276410Y-45483589D01*
X119143447Y-45374471D01*
X119116450Y-45352315D01*
X118933954Y-45254768D01*
X118735934Y-45194700D01*
X118735932Y-45194699D01*
X118735934Y-45194699D01*
X118530000Y-45174417D01*
X118324067Y-45194699D01*
X118126043Y-45254769D01*
X118015898Y-45313643D01*
X117943550Y-45352315D01*
X117943548Y-45352316D01*
X117943547Y-45352317D01*
X117783589Y-45483589D01*
X117660143Y-45634011D01*
X117652315Y-45643550D01*
X117638063Y-45670213D01*
X117554769Y-45826043D01*
X117494699Y-46024067D01*
X117474417Y-46230000D01*
X117494699Y-46435932D01*
X117494700Y-46435934D01*
X117539447Y-46583448D01*
X117554769Y-46633956D01*
X117562379Y-46648193D01*
X117576620Y-46716596D01*
X117551619Y-46781840D01*
X117540701Y-46794326D01*
X117065489Y-47269540D01*
X117009541Y-47325487D01*
X117009535Y-47325495D01*
X116969982Y-47394004D01*
X116969979Y-47394009D01*
X116949500Y-47470439D01*
X116949500Y-47937317D01*
X116929815Y-48004356D01*
X116877011Y-48050111D01*
X116807853Y-48060055D01*
X116744297Y-48031030D01*
X116737819Y-48024998D01*
X116736413Y-48023592D01*
X116638291Y-47943066D01*
X116576450Y-47892315D01*
X116406554Y-47801502D01*
X116393956Y-47794769D01*
X116393955Y-47794768D01*
X116393954Y-47794768D01*
X116195934Y-47734700D01*
X116195932Y-47734699D01*
X116195934Y-47734699D01*
X115990000Y-47714417D01*
X115784067Y-47734699D01*
X115649736Y-47775448D01*
X115586050Y-47794767D01*
X115586043Y-47794769D01*
X115490167Y-47846017D01*
X115403550Y-47892315D01*
X115403548Y-47892316D01*
X115403547Y-47892317D01*
X115253164Y-48015732D01*
X115188854Y-48043044D01*
X115119987Y-48031253D01*
X115068427Y-47984100D01*
X115050500Y-47919878D01*
X115050500Y-47645832D01*
X115070185Y-47578793D01*
X115086815Y-47558155D01*
X115425672Y-47219297D01*
X115486995Y-47185813D01*
X115556687Y-47190797D01*
X115571805Y-47197620D01*
X115586046Y-47205232D01*
X115784066Y-47265300D01*
X115784065Y-47265300D01*
X115802529Y-47267118D01*
X115990000Y-47285583D01*
X116195934Y-47265300D01*
X116393954Y-47205232D01*
X116576450Y-47107685D01*
X116736410Y-46976410D01*
X116867685Y-46816450D01*
X116965232Y-46633954D01*
X117025300Y-46435934D01*
X117045583Y-46230000D01*
X117025300Y-46024066D01*
X116965232Y-45826046D01*
X116867685Y-45643550D01*
X116768053Y-45522147D01*
X116736410Y-45483589D01*
X116603447Y-45374471D01*
X116576450Y-45352315D01*
X116393954Y-45254768D01*
X116195934Y-45194700D01*
X116195932Y-45194699D01*
X116195934Y-45194699D01*
X115990000Y-45174417D01*
X115784067Y-45194699D01*
X115586043Y-45254769D01*
X115475898Y-45313643D01*
X115403550Y-45352315D01*
X115403548Y-45352316D01*
X115403547Y-45352317D01*
X115243589Y-45483589D01*
X115120143Y-45634011D01*
X115112315Y-45643550D01*
X115098063Y-45670213D01*
X115014767Y-45826046D01*
X114994593Y-45892552D01*
X114956296Y-45950990D01*
X114892483Y-45979447D01*
X114823416Y-45968886D01*
X114771023Y-45922661D01*
X114756158Y-45888649D01*
X114723433Y-45766516D01*
X114723429Y-45766507D01*
X114623600Y-45552422D01*
X114623599Y-45552420D01*
X114488113Y-45358926D01*
X114488108Y-45358920D01*
X114321082Y-45191894D01*
X114127578Y-45056399D01*
X114085722Y-45036882D01*
X114033283Y-44990710D01*
X114014131Y-44923516D01*
X114034347Y-44856635D01*
X114087512Y-44811300D01*
X114138127Y-44800500D01*
X122921873Y-44800500D01*
X122988912Y-44820185D01*
G37*
G04 #@! TD.AperFunction*
G04 #@! TA.AperFunction,Conductor*
G36*
X148388912Y-44820185D02*
G01*
X148434667Y-44872989D01*
X148444611Y-44942147D01*
X148415586Y-45005703D01*
X148374278Y-45036882D01*
X148332422Y-45056399D01*
X148332420Y-45056400D01*
X148138926Y-45191886D01*
X148138920Y-45191891D01*
X147971891Y-45358920D01*
X147971886Y-45358926D01*
X147836400Y-45552420D01*
X147836399Y-45552422D01*
X147736570Y-45766507D01*
X147736567Y-45766514D01*
X147703841Y-45888650D01*
X147667476Y-45948310D01*
X147604629Y-45978839D01*
X147535253Y-45970544D01*
X147481375Y-45926059D01*
X147465406Y-45892552D01*
X147445232Y-45826046D01*
X147347685Y-45643550D01*
X147248053Y-45522147D01*
X147216410Y-45483589D01*
X147083447Y-45374471D01*
X147056450Y-45352315D01*
X146873954Y-45254768D01*
X146675934Y-45194700D01*
X146675932Y-45194699D01*
X146675934Y-45194699D01*
X146470000Y-45174417D01*
X146264067Y-45194699D01*
X146066043Y-45254769D01*
X145955898Y-45313643D01*
X145883550Y-45352315D01*
X145883548Y-45352316D01*
X145883547Y-45352317D01*
X145723589Y-45483589D01*
X145600143Y-45634011D01*
X145592315Y-45643550D01*
X145578063Y-45670213D01*
X145494767Y-45826046D01*
X145474593Y-45892552D01*
X145436296Y-45950990D01*
X145372483Y-45979447D01*
X145303416Y-45968886D01*
X145251023Y-45922661D01*
X145236158Y-45888649D01*
X145203433Y-45766516D01*
X145203429Y-45766507D01*
X145103600Y-45552422D01*
X145103599Y-45552420D01*
X144968113Y-45358926D01*
X144968108Y-45358920D01*
X144801082Y-45191894D01*
X144607578Y-45056399D01*
X144565722Y-45036882D01*
X144513283Y-44990710D01*
X144494131Y-44923516D01*
X144514347Y-44856635D01*
X144567512Y-44811300D01*
X144618127Y-44800500D01*
X148321873Y-44800500D01*
X148388912Y-44820185D01*
G37*
G04 #@! TD.AperFunction*
M02*
