M48
; DRILL file {KiCad 8.0.2-8.0.2-0~ubuntu22.04.1} date 2024-05-06T17:14:05-0700
; FORMAT={-:-/ absolute / metric / decimal}
; #@! TF.CreationDate,2024-05-06T17:14:05-07:00
; #@! TF.GenerationSoftware,Kicad,Pcbnew,8.0.2-8.0.2-0~ubuntu22.04.1
; #@! TF.FileFunction,Plated,1,2,PTH
FMAT,2
METRIC
; #@! TA.AperFunction,Plated,PTH,ViaDrill
T1C0.600
; #@! TA.AperFunction,Plated,PTH,ViaDrill
T2C0.700
; #@! TA.AperFunction,Plated,PTH,ComponentDrill
T3C0.800
; #@! TA.AperFunction,Plated,PTH,ComponentDrill
T4C0.950
; #@! TA.AperFunction,Plated,PTH,ComponentDrill
T5C1.000
; #@! TA.AperFunction,Plated,PTH,ComponentDrill
T6C1.520
%
G90
G05
T1
X113.5Y-57.0
X119.25Y-57.0
X120.0Y-88.5
X122.0Y-60.25
X125.5Y-63.5
X125.5Y-65.75
X131.0Y-75.0
X136.0Y-80.5
X137.0Y-81.75
X137.5Y-62.0
X138.0Y-51.5
X141.75Y-62.0
X143.0Y-62.0
X144.75Y-62.0
X147.0Y-64.25
X147.0Y-66.0
X160.75Y-63.0
T2
X111.0Y-62.5
X140.75Y-75.5
X162.55Y-60.5
T3
X114.5Y-72.19
X114.5Y-79.81
X117.5Y-90.19
X117.5Y-97.81
X122.38Y-91.25
X122.38Y-94.25
X128.0Y-97.0
X130.0Y-91.25
X130.0Y-94.25
X130.5Y-97.0
X148.69Y-68.5
X148.69Y-73.0
X156.31Y-68.5
X156.31Y-73.0
T4
X111.475Y-91.5
X111.475Y-94.0
X111.475Y-96.5
X119.5Y-65.5
X119.5Y-68.0
X119.5Y-70.5
X119.5Y-73.0
X119.5Y-75.5
X128.25Y-63.25
X128.25Y-65.75
X128.25Y-68.25
X128.25Y-70.75
X128.25Y-73.25
X128.25Y-75.75
X128.25Y-81.75
X128.25Y-84.25
X128.25Y-86.75
X136.0Y-65.5
X136.0Y-68.0
X136.0Y-70.5
X136.0Y-73.0
X136.0Y-75.5
X136.0Y-78.0
X143.5Y-65.5
X143.5Y-68.0
X143.5Y-70.5
X143.5Y-73.0
X143.5Y-75.5
X143.5Y-78.0
X143.5Y-80.5
X143.5Y-83.0
X143.5Y-85.5
X146.5Y-94.25
X149.0Y-94.25
X151.5Y-78.0
X151.5Y-80.5
X151.5Y-83.0
X151.5Y-85.5
X151.5Y-94.25
X154.0Y-94.25
X160.0Y-78.0
X160.0Y-80.5
X160.0Y-83.0
X160.0Y-85.5
T5
X108.37Y-46.23
X108.37Y-48.77
X108.45Y-66.0
X108.45Y-68.5
X108.475Y-74.75
X108.475Y-77.25
X110.91Y-46.23
X110.91Y-48.77
X113.45Y-46.23
X113.45Y-48.77
X115.99Y-46.23
X115.99Y-48.77
X118.53Y-46.23
X118.53Y-48.77
X121.07Y-46.23
X121.07Y-48.77
X123.61Y-46.23
X123.61Y-48.77
X126.15Y-46.23
X126.15Y-48.77
X128.69Y-46.23
X128.69Y-48.77
X131.23Y-46.23
X131.23Y-48.77
X133.77Y-46.23
X133.77Y-48.77
X136.31Y-46.23
X136.31Y-48.77
X138.85Y-46.23
X138.85Y-48.77
X139.22Y-55.5
X139.22Y-58.04
X141.39Y-46.23
X141.39Y-48.77
X141.76Y-55.5
X141.76Y-58.04
X143.93Y-46.23
X143.93Y-48.77
X144.3Y-55.5
X144.3Y-58.04
X146.47Y-46.23
X146.47Y-48.77
X146.84Y-55.5
X146.84Y-58.04
X149.01Y-46.23
X149.01Y-48.77
X149.38Y-55.5
X149.38Y-58.04
X151.55Y-46.23
X151.55Y-48.77
X151.92Y-55.5
X151.92Y-58.04
X154.09Y-46.23
X154.09Y-48.77
X154.46Y-55.5
X154.46Y-58.04
X156.63Y-46.23
X156.63Y-48.77
X157.0Y-55.5
X157.0Y-58.04
X159.54Y-55.5
X159.54Y-58.04
X162.08Y-55.5
X162.08Y-58.04
T6
X104.0Y-54.92
X104.0Y-60.0
X104.0Y-83.96
X104.0Y-89.04
M30
